{
  "header": {
    "keySignatures": [
      {
        "key": "Db",
        "scale": "major",
        "ticks": 0
      }
    ],
    "meta": [],
    "name": "大鱼",
    "ppq": 480,
    "tempos": [
      {
        "bpm": 55.00000458333371,
        "ticks": 0
      },
      {
        "bpm": 53.000022083342536,
        "ticks": 3859
      },
      {
        "bpm": 50.99998215000625,
        "ticks": 3926
      },
      {
        "bpm": 50,
        "ticks": 3955
      },
      {
        "bpm": 30,
        "ticks": 3979
      },
      {
        "bpm": 48.9999918333347,
        "ticks": 3984
      },
      {
        "bpm": 45.99999386666749,
        "ticks": 4003
      },
      {
        "bpm": 44.000011733336464,
        "ticks": 4022
      },
      {
        "bpm": 42.99999498333392,
        "ticks": 4042
      },
      {
        "bpm": 42.00001260000378,
        "ticks": 4051
      },
      {
        "bpm": 40.99998975000256,
        "ticks": 4070
      },
      {
        "bpm": 40,
        "ticks": 4090
      },
      {
        "bpm": 38.99998830000351,
        "ticks": 4109
      },
      {
        "bpm": 36.99999136666868,
        "ticks": 4147
      },
      {
        "bpm": 35.99999280000144,
        "ticks": 4157
      },
      {
        "bpm": 34.99999416666764,
        "ticks": 4426
      },
      {
        "bpm": 32.99999670000033,
        "ticks": 4483
      },
      {
        "bpm": 32,
        "ticks": 4522
      },
      {
        "bpm": 30.99999793333347,
        "ticks": 4570
      },
      {
        "bpm": 28.999993233334912,
        "ticks": 4666
      },
      {
        "bpm": 28.000001866666793,
        "ticks": 4723
      },
      {
        "bpm": 27.00000270000027,
        "ticks": 4752
      },
      {
        "bpm": 25,
        "ticks": 4781
      },
      {
        "bpm": 24,
        "ticks": 4800
      },
      {
        "bpm": 22.999996933333744,
        "ticks": 4838
      },
      {
        "bpm": 21.99999780000022,
        "ticks": 4848
      },
      {
        "bpm": 22.999996933333744,
        "ticks": 4954
      },
      {
        "bpm": 24,
        "ticks": 4973
      },
      {
        "bpm": 25,
        "ticks": 4982
      },
      {
        "bpm": 26.000003466667128,
        "ticks": 5040
      },
      {
        "bpm": 27.00000270000027,
        "ticks": 5069
      },
      {
        "bpm": 28.000001866666793,
        "ticks": 5107
      },
      {
        "bpm": 28.999993233334912,
        "ticks": 5117
      },
      {
        "bpm": 30,
        "ticks": 5165
      },
      {
        "bpm": 32,
        "ticks": 5203
      },
      {
        "bpm": 32.99999670000033,
        "ticks": 5299
      },
      {
        "bpm": 33.99999773333349,
        "ticks": 5366
      },
      {
        "bpm": 35.99999280000144,
        "ticks": 5405
      },
      {
        "bpm": 36.99999136666868,
        "ticks": 5462
      },
      {
        "bpm": 38.000008866668736,
        "ticks": 5472
      },
      {
        "bpm": 38.99998830000351,
        "ticks": 5549
      },
      {
        "bpm": 40,
        "ticks": 5568
      },
      {
        "bpm": 40.99998975000256,
        "ticks": 5597
      },
      {
        "bpm": 42.00001260000378,
        "ticks": 5606
      },
      {
        "bpm": 42.99999498333392,
        "ticks": 5626
      },
      {
        "bpm": 44.000011733336464,
        "ticks": 5664
      },
      {
        "bpm": 45.99999386666749,
        "ticks": 5722
      },
      {
        "bpm": 46.99999060000188,
        "ticks": 5731
      },
      {
        "bpm": 67.99999546666697,
        "ticks": 5760
      },
      {
        "bpm": 80,
        "ticks": 164160
      },
      {
        "bpm": 60,
        "ticks": 166080
      },
      {
        "bpm": 150,
        "ticks": 166560
      },
      {
        "bpm": 60,
        "ticks": 166699
      }
    ],
    "timeSignatures": [
      {
        "ticks": 0,
        "timeSignature": [
          4,
          4
        ],
        "measures": 0
      },
      {
        "ticks": 134400,
        "timeSignature": [
          2,
          4
        ],
        "measures": 70
      },
      {
        "ticks": 135360,
        "timeSignature": [
          4,
          4
        ],
        "measures": 71
      }
    ]
  },
  "tracks": [
    {
      "channel": 0,
      "controlChanges": {},
      "pitchBends": [],
      "instrument": {
        "family": "piano",
        "number": 0,
        "name": "acoustic grand piano"
      },
      "name": "Sound 1",
      "notes": [],
      "endOfTrackTicks": 150720
    },
    {
      "channel": 1,
      "controlChanges": {
        "10": [
          {
            "number": 10,
            "ticks": 0,
            "time": 0,
            "value": 0.5039370078740157
          }
        ]
      },
      "pitchBends": [
        {
          "ticks": 144970,
          "time": 271.85339362916665,
          "value": -1
        },
        {
          "ticks": 144979,
          "time": 271.86993774791665,
          "value": -1
        },
        {
          "ticks": 144989,
          "time": 271.8883201020833,
          "value": -1
        },
        {
          "ticks": 144998,
          "time": 271.9048642208333,
          "value": -1
        },
        {
          "ticks": 145008,
          "time": 271.923246575,
          "value": -1
        },
        {
          "ticks": 145018,
          "time": 271.94162892916665,
          "value": -0.921875
        },
        {
          "ticks": 145027,
          "time": 271.95817304791666,
          "value": -0.8125
        },
        {
          "ticks": 145037,
          "time": 271.9765554020833,
          "value": -0.703125
        },
        {
          "ticks": 145046,
          "time": 271.99309952083337,
          "value": -0.609375
        },
        {
          "ticks": 145056,
          "time": 272.011481875,
          "value": -0.5
        },
        {
          "ticks": 145066,
          "time": 272.0298642291667,
          "value": -0.40625
        },
        {
          "ticks": 145075,
          "time": 272.04640834791667,
          "value": -0.296875
        },
        {
          "ticks": 145085,
          "time": 272.06479070208337,
          "value": -0.203125
        },
        {
          "ticks": 145094,
          "time": 272.0813348208333,
          "value": -0.09375
        },
        {
          "ticks": 145104,
          "time": 272.099717175,
          "value": 0.015625
        }
      ],
      "instrument": {
        "family": "chromatic percussion",
        "number": 11,
        "name": "vibraphone"
      },
      "name": "",
      "notes": [
        {
          "duration": 0.4411765000000045,
          "durationTicks": 240,
          "midi": 70,
          "name": "A#4",
          "ticks": 21120,
          "time": 44.187937274999996,
          "velocity": 0.6299212598425197
        },
        {
          "duration": 0.4411764999999974,
          "durationTicks": 240,
          "midi": 73,
          "name": "C#5",
          "ticks": 21360,
          "time": 44.629113775,
          "velocity": 0.6299212598425197
        },
        {
          "duration": 0.4411764999999974,
          "durationTicks": 240,
          "midi": 73,
          "name": "C#5",
          "ticks": 21600,
          "time": 45.070290275,
          "velocity": 0.6299212598425197
        },
        {
          "duration": 0.4411765000000045,
          "durationTicks": 240,
          "midi": 75,
          "name": "D#5",
          "ticks": 21840,
          "time": 45.511466774999995,
          "velocity": 0.6299212598425197
        },
        {
          "duration": 0.4411764999999974,
          "durationTicks": 240,
          "midi": 75,
          "name": "D#5",
          "ticks": 22080,
          "time": 45.952643275,
          "velocity": 0.6299212598425197
        },
        {
          "duration": 0.4411764999999974,
          "durationTicks": 240,
          "midi": 77,
          "name": "F5",
          "ticks": 22320,
          "time": 46.393819775,
          "velocity": 0.6299212598425197
        },
        {
          "duration": 0.4411765000000045,
          "durationTicks": 240,
          "midi": 77,
          "name": "F5",
          "ticks": 22560,
          "time": 46.834996274999995,
          "velocity": 0.6299212598425197
        },
        {
          "duration": 0.4411764999999974,
          "durationTicks": 240,
          "midi": 82,
          "name": "A#5",
          "ticks": 22800,
          "time": 47.276172775,
          "velocity": 0.6299212598425197
        },
        {
          "duration": 1.2794118500000025,
          "durationTicks": 696,
          "midi": 80,
          "name": "G#5",
          "ticks": 23040,
          "time": 47.717349275,
          "velocity": 0.6299212598425197
        },
        {
          "duration": 0.4411764999999974,
          "durationTicks": 240,
          "midi": 77,
          "name": "F5",
          "ticks": 23760,
          "time": 49.040878774999996,
          "velocity": 0.6299212598425197
        },
        {
          "duration": 1.3235294999999994,
          "durationTicks": 720,
          "midi": 75,
          "name": "D#5",
          "ticks": 24000,
          "time": 49.48205527499999,
          "velocity": 0.6299212598425197
        },
        {
          "duration": 0.4411764999999974,
          "durationTicks": 240,
          "midi": 70,
          "name": "A#4",
          "ticks": 24960,
          "time": 51.246761275,
          "velocity": 0.6299212598425197
        },
        {
          "duration": 0.4411764999999974,
          "durationTicks": 240,
          "midi": 73,
          "name": "C#5",
          "ticks": 25200,
          "time": 51.687937774999995,
          "velocity": 0.6299212598425197
        },
        {
          "duration": 0.4411765000000045,
          "durationTicks": 240,
          "midi": 73,
          "name": "C#5",
          "ticks": 25440,
          "time": 52.12911427499999,
          "velocity": 0.6299212598425197
        },
        {
          "duration": 0.4411764999999974,
          "durationTicks": 240,
          "midi": 75,
          "name": "D#5",
          "ticks": 25680,
          "time": 52.570290775,
          "velocity": 0.6299212598425197
        },
        {
          "duration": 0.4411765000000045,
          "durationTicks": 240,
          "midi": 75,
          "name": "D#5",
          "ticks": 25920,
          "time": 53.011467274999994,
          "velocity": 0.6299212598425197
        },
        {
          "duration": 0.4411764999999974,
          "durationTicks": 240,
          "midi": 77,
          "name": "F5",
          "ticks": 26160,
          "time": 53.452643775,
          "velocity": 0.6299212598425197
        },
        {
          "duration": 0.794117700000001,
          "durationTicks": 432,
          "midi": 77,
          "name": "F5",
          "ticks": 26400,
          "time": 53.893820274999996,
          "velocity": 0.6299212598425197
        },
        {
          "duration": 0.7941176999999939,
          "durationTicks": 432,
          "midi": 70,
          "name": "A#4",
          "ticks": 26880,
          "time": 54.776173275,
          "velocity": 0.6299212598425197
        },
        {
          "duration": 1.588235400000002,
          "durationTicks": 864,
          "midi": 68,
          "name": "G#4",
          "ticks": 27360,
          "time": 55.65852627499999,
          "velocity": 0.6299212598425197
        },
        {
          "duration": 0.4411765000000045,
          "durationTicks": 240,
          "midi": 70,
          "name": "A#4",
          "ticks": 28800,
          "time": 58.30558527499999,
          "velocity": 0.6299212598425197
        },
        {
          "duration": 0.4411764999999974,
          "durationTicks": 240,
          "midi": 73,
          "name": "C#5",
          "ticks": 29040,
          "time": 58.746761774999996,
          "velocity": 0.6299212598425197
        },
        {
          "duration": 0.4411765000000045,
          "durationTicks": 240,
          "midi": 73,
          "name": "C#5",
          "ticks": 29280,
          "time": 59.18793827499999,
          "velocity": 0.6299212598425197
        },
        {
          "duration": 0.4411764999999974,
          "durationTicks": 240,
          "midi": 75,
          "name": "D#5",
          "ticks": 29520,
          "time": 59.629114775,
          "velocity": 0.6299212598425197
        },
        {
          "duration": 0.4411764999999974,
          "durationTicks": 240,
          "midi": 75,
          "name": "D#5",
          "ticks": 29760,
          "time": 60.070291274999995,
          "velocity": 0.6299212598425197
        },
        {
          "duration": 0.4411765000000045,
          "durationTicks": 240,
          "midi": 77,
          "name": "F5",
          "ticks": 30000,
          "time": 60.51146777499999,
          "velocity": 0.6299212598425197
        },
        {
          "duration": 0.4411764999999974,
          "durationTicks": 240,
          "midi": 77,
          "name": "F5",
          "ticks": 30240,
          "time": 60.952644275,
          "velocity": 0.6299212598425197
        },
        {
          "duration": 0.4411764999999974,
          "durationTicks": 240,
          "midi": 82,
          "name": "A#5",
          "ticks": 30480,
          "time": 61.393820774999995,
          "velocity": 0.6299212598425197
        },
        {
          "duration": 1.3235294999999994,
          "durationTicks": 720,
          "midi": 80,
          "name": "G#5",
          "ticks": 30720,
          "time": 61.83499727499999,
          "velocity": 0.6299212598425197
        },
        {
          "duration": 0.4411765000000045,
          "durationTicks": 240,
          "midi": 77,
          "name": "F5",
          "ticks": 31440,
          "time": 63.15852677499999,
          "velocity": 0.6299212598425197
        },
        {
          "duration": 1.3235295000000065,
          "durationTicks": 720,
          "midi": 75,
          "name": "D#5",
          "ticks": 31680,
          "time": 63.599703274999996,
          "velocity": 0.6299212598425197
        },
        {
          "duration": 0.4411764999999974,
          "durationTicks": 240,
          "midi": 75,
          "name": "D#5",
          "ticks": 32640,
          "time": 65.364409275,
          "velocity": 0.6299212598425197
        },
        {
          "duration": 0.4411764999999974,
          "durationTicks": 240,
          "midi": 77,
          "name": "F5",
          "ticks": 32880,
          "time": 65.805585775,
          "velocity": 0.6299212598425197
        },
        {
          "duration": 0.794117700000001,
          "durationTicks": 432,
          "midi": 70,
          "name": "A#4",
          "ticks": 33120,
          "time": 66.246762275,
          "velocity": 0.6299212598425197
        },
        {
          "duration": 0.4411764999999974,
          "durationTicks": 240,
          "midi": 75,
          "name": "D#5",
          "ticks": 33600,
          "time": 67.129115275,
          "velocity": 0.6299212598425197
        },
        {
          "duration": 0.4411764999999974,
          "durationTicks": 240,
          "midi": 77,
          "name": "F5",
          "ticks": 33840,
          "time": 67.570291775,
          "velocity": 0.6299212598425197
        },
        {
          "duration": 0.4411764999999974,
          "durationTicks": 240,
          "midi": 70,
          "name": "A#4",
          "ticks": 34080,
          "time": 68.011468275,
          "velocity": 0.6299212598425197
        },
        {
          "duration": 0.4411764999999974,
          "durationTicks": 240,
          "midi": 68,
          "name": "G#4",
          "ticks": 34320,
          "time": 68.452644775,
          "velocity": 0.6299212598425197
        },
        {
          "duration": 1.588235400000002,
          "durationTicks": 864,
          "midi": 70,
          "name": "A#4",
          "ticks": 34560,
          "time": 68.893821275,
          "velocity": 0.6299212598425197
        },
        {
          "duration": 0.44117650000001163,
          "durationTicks": 240,
          "midi": 70,
          "name": "A#4",
          "ticks": 36000,
          "time": 71.54088027499999,
          "velocity": 0.6299212598425197
        },
        {
          "duration": 0.4411764999999974,
          "durationTicks": 240,
          "midi": 73,
          "name": "C#5",
          "ticks": 36240,
          "time": 71.982056775,
          "velocity": 0.6299212598425197
        },
        {
          "duration": 1.3235294999999923,
          "durationTicks": 720,
          "midi": 75,
          "name": "D#5",
          "ticks": 36480,
          "time": 72.423233275,
          "velocity": 0.6299212598425197
        },
        {
          "duration": 0.4411764999999974,
          "durationTicks": 240,
          "midi": 73,
          "name": "C#5",
          "ticks": 37200,
          "time": 73.746762775,
          "velocity": 0.6299212598425197
        },
        {
          "duration": 0.7941177000000152,
          "durationTicks": 432,
          "midi": 70,
          "name": "A#4",
          "ticks": 37440,
          "time": 74.18793927499999,
          "velocity": 0.6299212598425197
        },
        {
          "duration": 0.4411764999999974,
          "durationTicks": 240,
          "midi": 70,
          "name": "A#4",
          "ticks": 37920,
          "time": 75.070292275,
          "velocity": 0.6299212598425197
        },
        {
          "duration": 0.4411764999999974,
          "durationTicks": 240,
          "midi": 73,
          "name": "C#5",
          "ticks": 38160,
          "time": 75.511468775,
          "velocity": 0.6299212598425197
        },
        {
          "duration": 0.794117700000001,
          "durationTicks": 432,
          "midi": 75,
          "name": "D#5",
          "ticks": 38400,
          "time": 75.952645275,
          "velocity": 0.6299212598425197
        },
        {
          "duration": 0.794117700000001,
          "durationTicks": 432,
          "midi": 73,
          "name": "C#5",
          "ticks": 38880,
          "time": 76.834998275,
          "velocity": 0.6299212598425197
        },
        {
          "duration": 0.794117700000001,
          "durationTicks": 432,
          "midi": 77,
          "name": "F5",
          "ticks": 39360,
          "time": 77.717351275,
          "velocity": 0.6299212598425197
        },
        {
          "duration": 0.4411764999999974,
          "durationTicks": 240,
          "midi": 77,
          "name": "F5",
          "ticks": 39840,
          "time": 78.599704275,
          "velocity": 0.6299212598425197
        },
        {
          "duration": 0.44117650000001163,
          "durationTicks": 240,
          "midi": 80,
          "name": "G#5",
          "ticks": 40080,
          "time": 79.04088077499999,
          "velocity": 0.6299212598425197
        },
        {
          "duration": 0.794117700000001,
          "durationTicks": 432,
          "midi": 82,
          "name": "A#5",
          "ticks": 40320,
          "time": 79.482057275,
          "velocity": 0.6299212598425197
        },
        {
          "duration": 0.4411764999999974,
          "durationTicks": 240,
          "midi": 82,
          "name": "A#5",
          "ticks": 40800,
          "time": 80.364410275,
          "velocity": 0.6299212598425197
        },
        {
          "duration": 0.44117650000001163,
          "durationTicks": 240,
          "midi": 80,
          "name": "G#5",
          "ticks": 41040,
          "time": 80.805586775,
          "velocity": 0.6299212598425197
        },
        {
          "duration": 0.4411764999999974,
          "durationTicks": 240,
          "midi": 77,
          "name": "F5",
          "ticks": 41280,
          "time": 81.246763275,
          "velocity": 0.6299212598425197
        },
        {
          "duration": 0.4411764999999974,
          "durationTicks": 240,
          "midi": 75,
          "name": "D#5",
          "ticks": 41520,
          "time": 81.687939775,
          "velocity": 0.6299212598425197
        },
        {
          "duration": 0.794117700000001,
          "durationTicks": 432,
          "midi": 73,
          "name": "C#5",
          "ticks": 41760,
          "time": 82.129116275,
          "velocity": 0.6299212598425197
        },
        {
          "duration": 0.4411764999999974,
          "durationTicks": 240,
          "midi": 75,
          "name": "D#5",
          "ticks": 42240,
          "time": 83.011469275,
          "velocity": 0.6299212598425197
        },
        {
          "duration": 1.7647060000000039,
          "durationTicks": 960,
          "midi": 77,
          "name": "F5",
          "ticks": 42480,
          "time": 83.452645775,
          "velocity": 0.6299212598425197
        },
        {
          "duration": 0.44117650000001163,
          "durationTicks": 240,
          "midi": 70,
          "name": "A#4",
          "ticks": 43680,
          "time": 85.658528275,
          "velocity": 0.6299212598425197
        },
        {
          "duration": 0.4411764999999974,
          "durationTicks": 240,
          "midi": 73,
          "name": "C#5",
          "ticks": 43920,
          "time": 86.099704775,
          "velocity": 0.6299212598425197
        },
        {
          "duration": 1.3235294999999923,
          "durationTicks": 720,
          "midi": 75,
          "name": "D#5",
          "ticks": 44160,
          "time": 86.540881275,
          "velocity": 0.6299212598425197
        },
        {
          "duration": 0.22058825000000581,
          "durationTicks": 120,
          "midi": 73,
          "name": "C#5",
          "ticks": 44880,
          "time": 87.864410775,
          "velocity": 0.6299212598425197
        },
        {
          "duration": 1.0147059500000069,
          "durationTicks": 552,
          "midi": 70,
          "name": "A#4",
          "ticks": 45000,
          "time": 88.084999025,
          "velocity": 0.6299212598425197
        },
        {
          "duration": 0.4411764999999974,
          "durationTicks": 240,
          "midi": 70,
          "name": "A#4",
          "ticks": 45600,
          "time": 89.187940275,
          "velocity": 0.6299212598425197
        },
        {
          "duration": 0.4411764999999974,
          "durationTicks": 240,
          "midi": 73,
          "name": "C#5",
          "ticks": 45840,
          "time": 89.629116775,
          "velocity": 0.6299212598425197
        },
        {
          "duration": 0.794117700000001,
          "durationTicks": 432,
          "midi": 75,
          "name": "D#5",
          "ticks": 46080,
          "time": 90.070293275,
          "velocity": 0.6299212598425197
        },
        {
          "duration": 0.794117700000001,
          "durationTicks": 432,
          "midi": 73,
          "name": "C#5",
          "ticks": 46560,
          "time": 90.952646275,
          "velocity": 0.6299212598425197
        },
        {
          "duration": 1.3235294999999923,
          "durationTicks": 720,
          "midi": 77,
          "name": "F5",
          "ticks": 47040,
          "time": 91.834999275,
          "velocity": 0.6299212598425197
        },
        {
          "duration": 0.4411764999999974,
          "durationTicks": 240,
          "midi": 75,
          "name": "D#5",
          "ticks": 48000,
          "time": 93.599705275,
          "velocity": 0.6299212598425197
        },
        {
          "duration": 0.4411764999999974,
          "durationTicks": 240,
          "midi": 77,
          "name": "F5",
          "ticks": 48240,
          "time": 94.040881775,
          "velocity": 0.6299212598425197
        },
        {
          "duration": 0.794117700000001,
          "durationTicks": 432,
          "midi": 70,
          "name": "A#4",
          "ticks": 48480,
          "time": 94.482058275,
          "velocity": 0.6299212598425197
        },
        {
          "duration": 0.44117650000001163,
          "durationTicks": 240,
          "midi": 75,
          "name": "D#5",
          "ticks": 48960,
          "time": 95.364411275,
          "velocity": 0.6299212598425197
        },
        {
          "duration": 0.4411764999999974,
          "durationTicks": 240,
          "midi": 77,
          "name": "F5",
          "ticks": 49200,
          "time": 95.805587775,
          "velocity": 0.6299212598425197
        },
        {
          "duration": 0.4411764999999974,
          "durationTicks": 240,
          "midi": 70,
          "name": "A#4",
          "ticks": 49440,
          "time": 96.246764275,
          "velocity": 0.6299212598425197
        },
        {
          "duration": 0.4411764999999974,
          "durationTicks": 240,
          "midi": 68,
          "name": "G#4",
          "ticks": 49680,
          "time": 96.687940775,
          "velocity": 0.6299212598425197
        },
        {
          "duration": 1.588235400000002,
          "durationTicks": 864,
          "midi": 70,
          "name": "A#4",
          "ticks": 49920,
          "time": 97.129117275,
          "velocity": 0.6299212598425197
        },
        {
          "duration": 0.4411764999999974,
          "durationTicks": 240,
          "midi": 77,
          "name": "F5",
          "ticks": 51360,
          "time": 99.776176275,
          "velocity": 0.6299212598425197
        },
        {
          "duration": 0.4411764999999974,
          "durationTicks": 240,
          "midi": 80,
          "name": "G#5",
          "ticks": 51600,
          "time": 100.217352775,
          "velocity": 0.6299212598425197
        },
        {
          "duration": 1.3235295000000065,
          "durationTicks": 720,
          "midi": 85,
          "name": "C#6",
          "ticks": 51840,
          "time": 100.65852927499999,
          "velocity": 0.6299212598425197
        },
        {
          "duration": 0.4411764999999974,
          "durationTicks": 240,
          "midi": 84,
          "name": "C6",
          "ticks": 52560,
          "time": 101.982058775,
          "velocity": 0.6299212598425197
        },
        {
          "duration": 0.794117700000001,
          "durationTicks": 432,
          "midi": 77,
          "name": "F5",
          "ticks": 52800,
          "time": 102.423235275,
          "velocity": 0.6299212598425197
        },
        {
          "duration": 0.4411764999999974,
          "durationTicks": 240,
          "midi": 77,
          "name": "F5",
          "ticks": 53280,
          "time": 103.305588275,
          "velocity": 0.6299212598425197
        },
        {
          "duration": 0.4411764999999974,
          "durationTicks": 240,
          "midi": 75,
          "name": "D#5",
          "ticks": 53520,
          "time": 103.746764775,
          "velocity": 0.6299212598425197
        },
        {
          "duration": 0.794117700000001,
          "durationTicks": 432,
          "midi": 73,
          "name": "C#5",
          "ticks": 53760,
          "time": 104.187941275,
          "velocity": 0.6299212598425197
        },
        {
          "duration": 0.4411764999999974,
          "durationTicks": 240,
          "midi": 73,
          "name": "C#5",
          "ticks": 54240,
          "time": 105.070294275,
          "velocity": 0.6299212598425197
        },
        {
          "duration": 0.44117650000001163,
          "durationTicks": 240,
          "midi": 75,
          "name": "D#5",
          "ticks": 54480,
          "time": 105.51147077499999,
          "velocity": 0.6299212598425197
        },
        {
          "duration": 0.794117700000001,
          "durationTicks": 432,
          "midi": 77,
          "name": "F5",
          "ticks": 54720,
          "time": 105.952647275,
          "velocity": 0.6299212598425197
        },
        {
          "duration": 0.4411764999999974,
          "durationTicks": 240,
          "midi": 77,
          "name": "F5",
          "ticks": 55200,
          "time": 106.835000275,
          "velocity": 0.6299212598425197
        },
        {
          "duration": 0.4411764999999974,
          "durationTicks": 240,
          "midi": 75,
          "name": "D#5",
          "ticks": 55440,
          "time": 107.276176775,
          "velocity": 0.6299212598425197
        },
        {
          "duration": 0.7941177000000152,
          "durationTicks": 432,
          "midi": 73,
          "name": "C#5",
          "ticks": 55680,
          "time": 107.717353275,
          "velocity": 0.6299212598425197
        },
        {
          "duration": 0.4411764999999974,
          "durationTicks": 240,
          "midi": 82,
          "name": "A#5",
          "ticks": 56160,
          "time": 108.599706275,
          "velocity": 0.6299212598425197
        },
        {
          "duration": 0.4411764999999974,
          "durationTicks": 240,
          "midi": 85,
          "name": "C#6",
          "ticks": 56400,
          "time": 109.040882775,
          "velocity": 0.6299212598425197
        },
        {
          "duration": 0.4411764999999974,
          "durationTicks": 240,
          "midi": 84,
          "name": "C6",
          "ticks": 56640,
          "time": 109.482059275,
          "velocity": 0.6299212598425197
        },
        {
          "duration": 0.4411764999999974,
          "durationTicks": 240,
          "midi": 82,
          "name": "A#5",
          "ticks": 56880,
          "time": 109.923235775,
          "velocity": 0.6299212598425197
        },
        {
          "duration": 0.44117650000001163,
          "durationTicks": 240,
          "midi": 80,
          "name": "G#5",
          "ticks": 57120,
          "time": 110.36441227499999,
          "velocity": 0.6299212598425197
        },
        {
          "duration": 0.4411764999999974,
          "durationTicks": 240,
          "midi": 75,
          "name": "D#5",
          "ticks": 57360,
          "time": 110.805588775,
          "velocity": 0.6299212598425197
        },
        {
          "duration": 2.382353100000003,
          "durationTicks": 1296,
          "midi": 77,
          "name": "F5",
          "ticks": 57600,
          "time": 111.246765275,
          "velocity": 0.6299212598425197
        },
        {
          "duration": 0.4411764999999974,
          "durationTicks": 240,
          "midi": 77,
          "name": "F5",
          "ticks": 59040,
          "time": 113.893824275,
          "velocity": 0.6299212598425197
        },
        {
          "duration": 0.4411764999999974,
          "durationTicks": 240,
          "midi": 80,
          "name": "G#5",
          "ticks": 59280,
          "time": 114.335000775,
          "velocity": 0.6299212598425197
        },
        {
          "duration": 1.3235295000000065,
          "durationTicks": 720,
          "midi": 85,
          "name": "C#6",
          "ticks": 59520,
          "time": 114.776177275,
          "velocity": 0.6299212598425197
        },
        {
          "duration": 0.2205882499999916,
          "durationTicks": 120,
          "midi": 84,
          "name": "C6",
          "ticks": 60240,
          "time": 116.099706775,
          "velocity": 0.6299212598425197
        },
        {
          "duration": 1.0147059500000069,
          "durationTicks": 552,
          "midi": 77,
          "name": "F5",
          "ticks": 60360,
          "time": 116.320295025,
          "velocity": 0.6299212598425197
        },
        {
          "duration": 0.44117650000001163,
          "durationTicks": 240,
          "midi": 77,
          "name": "F5",
          "ticks": 60960,
          "time": 117.423236275,
          "velocity": 0.6299212598425197
        },
        {
          "duration": 0.4411764999999974,
          "durationTicks": 240,
          "midi": 75,
          "name": "D#5",
          "ticks": 61200,
          "time": 117.864412775,
          "velocity": 0.6299212598425197
        },
        {
          "duration": 0.794117700000001,
          "durationTicks": 432,
          "midi": 73,
          "name": "C#5",
          "ticks": 61440,
          "time": 118.305589275,
          "velocity": 0.6299212598425197
        },
        {
          "duration": 0.4411764999999974,
          "durationTicks": 240,
          "midi": 73,
          "name": "C#5",
          "ticks": 61920,
          "time": 119.187942275,
          "velocity": 0.6299212598425197
        },
        {
          "duration": 0.4411764999999974,
          "durationTicks": 240,
          "midi": 75,
          "name": "D#5",
          "ticks": 62160,
          "time": 119.629118775,
          "velocity": 0.6299212598425197
        },
        {
          "duration": 1.588235400000002,
          "durationTicks": 864,
          "midi": 77,
          "name": "F5",
          "ticks": 62400,
          "time": 120.07029527499999,
          "velocity": 0.6299212598425197
        },
        {
          "duration": 0.4411764999999974,
          "durationTicks": 240,
          "midi": 75,
          "name": "D#5",
          "ticks": 63360,
          "time": 121.835001275,
          "velocity": 0.6299212598425197
        },
        {
          "duration": 0.4411764999999974,
          "durationTicks": 240,
          "midi": 77,
          "name": "F5",
          "ticks": 63600,
          "time": 122.276177775,
          "velocity": 0.6299212598425197
        },
        {
          "duration": 0.7941177000000152,
          "durationTicks": 432,
          "midi": 70,
          "name": "A#4",
          "ticks": 63840,
          "time": 122.71735427499999,
          "velocity": 0.6299212598425197
        },
        {
          "duration": 0.4411764999999974,
          "durationTicks": 240,
          "midi": 75,
          "name": "D#5",
          "ticks": 64320,
          "time": 123.599707275,
          "velocity": 0.6299212598425197
        },
        {
          "duration": 0.4411764999999974,
          "durationTicks": 240,
          "midi": 77,
          "name": "F5",
          "ticks": 64560,
          "time": 124.040883775,
          "velocity": 0.6299212598425197
        },
        {
          "duration": 0.4411764999999974,
          "durationTicks": 240,
          "midi": 70,
          "name": "A#4",
          "ticks": 64800,
          "time": 124.482060275,
          "velocity": 0.6299212598425197
        },
        {
          "duration": 0.44117650000001163,
          "durationTicks": 240,
          "midi": 68,
          "name": "G#4",
          "ticks": 65040,
          "time": 124.92323677499999,
          "velocity": 0.6299212598425197
        },
        {
          "duration": 3.1764707999999757,
          "durationTicks": 1728,
          "midi": 70,
          "name": "A#4",
          "ticks": 65280,
          "time": 125.364413275,
          "velocity": 0.6299212598425197
        },
        {
          "duration": 0.44117650000001163,
          "durationTicks": 240,
          "midi": 70,
          "name": "A#4",
          "ticks": 74880,
          "time": 143.011473275,
          "velocity": 0.6299212598425197
        },
        {
          "duration": 0.4411764999999832,
          "durationTicks": 240,
          "midi": 73,
          "name": "C#5",
          "ticks": 75120,
          "time": 143.452649775,
          "velocity": 0.6299212598425197
        },
        {
          "duration": 0.44117650000001163,
          "durationTicks": 240,
          "midi": 73,
          "name": "C#5",
          "ticks": 75360,
          "time": 143.89382627499998,
          "velocity": 0.6299212598425197
        },
        {
          "duration": 0.4411764999999832,
          "durationTicks": 240,
          "midi": 75,
          "name": "D#5",
          "ticks": 75600,
          "time": 144.335002775,
          "velocity": 0.6299212598425197
        },
        {
          "duration": 0.44117650000001163,
          "durationTicks": 240,
          "midi": 75,
          "name": "D#5",
          "ticks": 75840,
          "time": 144.77617927499998,
          "velocity": 0.6299212598425197
        },
        {
          "duration": 0.4411764999999832,
          "durationTicks": 240,
          "midi": 77,
          "name": "F5",
          "ticks": 76080,
          "time": 145.217355775,
          "velocity": 0.6299212598425197
        },
        {
          "duration": 0.44117650000001163,
          "durationTicks": 240,
          "midi": 77,
          "name": "F5",
          "ticks": 76320,
          "time": 145.65853227499997,
          "velocity": 0.6299212598425197
        },
        {
          "duration": 0.44117650000001163,
          "durationTicks": 240,
          "midi": 82,
          "name": "A#5",
          "ticks": 76560,
          "time": 146.09970877499998,
          "velocity": 0.6299212598425197
        },
        {
          "duration": 1.323529499999978,
          "durationTicks": 720,
          "midi": 80,
          "name": "G#5",
          "ticks": 76800,
          "time": 146.540885275,
          "velocity": 0.6299212598425197
        },
        {
          "duration": 0.44117650000001163,
          "durationTicks": 240,
          "midi": 77,
          "name": "F5",
          "ticks": 77520,
          "time": 147.86441477499997,
          "velocity": 0.6299212598425197
        },
        {
          "duration": 1.3235295000000065,
          "durationTicks": 720,
          "midi": 75,
          "name": "D#5",
          "ticks": 77760,
          "time": 148.30559127499998,
          "velocity": 0.6299212598425197
        },
        {
          "duration": 0.44117650000001163,
          "durationTicks": 240,
          "midi": 70,
          "name": "A#4",
          "ticks": 78720,
          "time": 150.07029727499997,
          "velocity": 0.6299212598425197
        },
        {
          "duration": 0.4411764999999832,
          "durationTicks": 240,
          "midi": 73,
          "name": "C#5",
          "ticks": 78960,
          "time": 150.51147377499998,
          "velocity": 0.6299212598425197
        },
        {
          "duration": 0.44117650000001163,
          "durationTicks": 240,
          "midi": 73,
          "name": "C#5",
          "ticks": 79200,
          "time": 150.95265027499997,
          "velocity": 0.6299212598425197
        },
        {
          "duration": 0.44117650000001163,
          "durationTicks": 240,
          "midi": 75,
          "name": "D#5",
          "ticks": 79440,
          "time": 151.39382677499998,
          "velocity": 0.6299212598425197
        },
        {
          "duration": 0.4411764999999832,
          "durationTicks": 240,
          "midi": 75,
          "name": "D#5",
          "ticks": 79680,
          "time": 151.835003275,
          "velocity": 0.6299212598425197
        },
        {
          "duration": 0.44117650000001163,
          "durationTicks": 240,
          "midi": 77,
          "name": "F5",
          "ticks": 79920,
          "time": 152.27617977499997,
          "velocity": 0.6299212598425197
        },
        {
          "duration": 0.8823529999999948,
          "durationTicks": 480,
          "midi": 77,
          "name": "F5",
          "ticks": 80160,
          "time": 152.717356275,
          "velocity": 0.6299212598425197
        },
        {
          "duration": 0.44117650000001163,
          "durationTicks": 240,
          "midi": 70,
          "name": "A#4",
          "ticks": 80640,
          "time": 153.59970927499998,
          "velocity": 0.6299212598425197
        },
        {
          "duration": 2.0294118999999853,
          "durationTicks": 1104,
          "midi": 68,
          "name": "G#4",
          "ticks": 80880,
          "time": 154.040885775,
          "velocity": 0.6299212598425197
        },
        {
          "duration": 0.4411764999999832,
          "durationTicks": 240,
          "midi": 70,
          "name": "A#4",
          "ticks": 82560,
          "time": 157.129121275,
          "velocity": 0.6299212598425197
        },
        {
          "duration": 0.44117650000001163,
          "durationTicks": 240,
          "midi": 73,
          "name": "C#5",
          "ticks": 82800,
          "time": 157.57029777499997,
          "velocity": 0.6299212598425197
        },
        {
          "duration": 0.44117650000001163,
          "durationTicks": 240,
          "midi": 73,
          "name": "C#5",
          "ticks": 83040,
          "time": 158.01147427499998,
          "velocity": 0.6299212598425197
        },
        {
          "duration": 0.4411764999999832,
          "durationTicks": 240,
          "midi": 75,
          "name": "D#5",
          "ticks": 83280,
          "time": 158.452650775,
          "velocity": 0.6299212598425197
        },
        {
          "duration": 0.44117650000001163,
          "durationTicks": 240,
          "midi": 75,
          "name": "D#5",
          "ticks": 83520,
          "time": 158.89382727499998,
          "velocity": 0.6299212598425197
        },
        {
          "duration": 0.4411764999999832,
          "durationTicks": 240,
          "midi": 77,
          "name": "F5",
          "ticks": 83760,
          "time": 159.335003775,
          "velocity": 0.6299212598425197
        },
        {
          "duration": 0.44117650000001163,
          "durationTicks": 240,
          "midi": 77,
          "name": "F5",
          "ticks": 84000,
          "time": 159.77618027499997,
          "velocity": 0.6299212598425197
        },
        {
          "duration": 0.4411764999999832,
          "durationTicks": 240,
          "midi": 82,
          "name": "A#5",
          "ticks": 84240,
          "time": 160.21735677499998,
          "velocity": 0.6299212598425197
        },
        {
          "duration": 1.3235295000000065,
          "durationTicks": 720,
          "midi": 80,
          "name": "G#5",
          "ticks": 84480,
          "time": 160.65853327499997,
          "velocity": 0.6299212598425197
        },
        {
          "duration": 0.44117650000001163,
          "durationTicks": 240,
          "midi": 77,
          "name": "F5",
          "ticks": 85200,
          "time": 161.98206277499997,
          "velocity": 0.6299212598425197
        },
        {
          "duration": 1.588235400000002,
          "durationTicks": 864,
          "midi": 75,
          "name": "D#5",
          "ticks": 85440,
          "time": 162.423239275,
          "velocity": 0.6299212598425197
        },
        {
          "duration": 0.44117650000001163,
          "durationTicks": 240,
          "midi": 75,
          "name": "D#5",
          "ticks": 86400,
          "time": 164.18794527499998,
          "velocity": 0.6299212598425197
        },
        {
          "duration": 0.4411764999999832,
          "durationTicks": 240,
          "midi": 77,
          "name": "F5",
          "ticks": 86640,
          "time": 164.629121775,
          "velocity": 0.6299212598425197
        },
        {
          "duration": 0.7941177000000152,
          "durationTicks": 432,
          "midi": 70,
          "name": "A#4",
          "ticks": 86880,
          "time": 165.07029827499997,
          "velocity": 0.6299212598425197
        },
        {
          "duration": 0.4411764999999832,
          "durationTicks": 240,
          "midi": 75,
          "name": "D#5",
          "ticks": 87360,
          "time": 165.952651275,
          "velocity": 0.6299212598425197
        },
        {
          "duration": 0.44117650000001163,
          "durationTicks": 240,
          "midi": 77,
          "name": "F5",
          "ticks": 87600,
          "time": 166.39382777499998,
          "velocity": 0.6299212598425197
        },
        {
          "duration": 0.4411764999999832,
          "durationTicks": 240,
          "midi": 70,
          "name": "A#4",
          "ticks": 87840,
          "time": 166.835004275,
          "velocity": 0.6299212598425197
        },
        {
          "duration": 0.44117650000001163,
          "durationTicks": 240,
          "midi": 68,
          "name": "G#4",
          "ticks": 88080,
          "time": 167.27618077499997,
          "velocity": 0.6299212598425197
        },
        {
          "duration": 1.588235400000002,
          "durationTicks": 864,
          "midi": 70,
          "name": "A#4",
          "ticks": 88320,
          "time": 167.71735727499998,
          "velocity": 0.6299212598425197
        },
        {
          "duration": 0.44117650000001163,
          "durationTicks": 240,
          "midi": 70,
          "name": "A#4",
          "ticks": 89760,
          "time": 170.36441627499997,
          "velocity": 0.6299212598425197
        },
        {
          "duration": 0.44117650000001163,
          "durationTicks": 240,
          "midi": 73,
          "name": "C#5",
          "ticks": 90000,
          "time": 170.80559277499998,
          "velocity": 0.6299212598425197
        },
        {
          "duration": 1.323529499999978,
          "durationTicks": 720,
          "midi": 75,
          "name": "D#5",
          "ticks": 90240,
          "time": 171.246769275,
          "velocity": 0.6299212598425197
        },
        {
          "duration": 0.44117650000001163,
          "durationTicks": 240,
          "midi": 73,
          "name": "C#5",
          "ticks": 90960,
          "time": 172.57029877499997,
          "velocity": 0.6299212598425197
        },
        {
          "duration": 0.7941177000000152,
          "durationTicks": 432,
          "midi": 70,
          "name": "A#4",
          "ticks": 91200,
          "time": 173.01147527499998,
          "velocity": 0.6299212598425197
        },
        {
          "duration": 0.44117650000001163,
          "durationTicks": 240,
          "midi": 70,
          "name": "A#4",
          "ticks": 91680,
          "time": 173.89382827499998,
          "velocity": 0.6299212598425197
        },
        {
          "duration": 0.4411764999999832,
          "durationTicks": 240,
          "midi": 73,
          "name": "C#5",
          "ticks": 91920,
          "time": 174.335004775,
          "velocity": 0.6299212598425197
        },
        {
          "duration": 0.7941177000000152,
          "durationTicks": 432,
          "midi": 75,
          "name": "D#5",
          "ticks": 92160,
          "time": 174.77618127499997,
          "velocity": 0.6299212598425197
        },
        {
          "duration": 0.7941176999999868,
          "durationTicks": 432,
          "midi": 73,
          "name": "C#5",
          "ticks": 92640,
          "time": 175.658534275,
          "velocity": 0.6299212598425197
        },
        {
          "duration": 0.7941176999999868,
          "durationTicks": 432,
          "midi": 77,
          "name": "F5",
          "ticks": 93120,
          "time": 176.540887275,
          "velocity": 0.6299212598425197
        },
        {
          "duration": 0.4411764999999832,
          "durationTicks": 240,
          "midi": 77,
          "name": "F5",
          "ticks": 93600,
          "time": 177.42324027499998,
          "velocity": 0.6299212598425197
        },
        {
          "duration": 0.44117650000001163,
          "durationTicks": 240,
          "midi": 80,
          "name": "G#5",
          "ticks": 93840,
          "time": 177.86441677499997,
          "velocity": 0.6299212598425197
        },
        {
          "duration": 0.7941177000000152,
          "durationTicks": 432,
          "midi": 82,
          "name": "A#5",
          "ticks": 94080,
          "time": 178.30559327499998,
          "velocity": 0.6299212598425197
        },
        {
          "duration": 0.44117650000001163,
          "durationTicks": 240,
          "midi": 82,
          "name": "A#5",
          "ticks": 94560,
          "time": 179.18794627499997,
          "velocity": 0.6299212598425197
        },
        {
          "duration": 0.4411764999999832,
          "durationTicks": 240,
          "midi": 80,
          "name": "G#5",
          "ticks": 94800,
          "time": 179.62912277499998,
          "velocity": 0.6299212598425197
        },
        {
          "duration": 0.44117650000001163,
          "durationTicks": 240,
          "midi": 77,
          "name": "F5",
          "ticks": 95040,
          "time": 180.07029927499997,
          "velocity": 0.6299212598425197
        },
        {
          "duration": 0.44117650000001163,
          "durationTicks": 240,
          "midi": 75,
          "name": "D#5",
          "ticks": 95280,
          "time": 180.51147577499998,
          "velocity": 0.6299212598425197
        },
        {
          "duration": 0.7941176999999868,
          "durationTicks": 432,
          "midi": 73,
          "name": "C#5",
          "ticks": 95520,
          "time": 180.952652275,
          "velocity": 0.6299212598425197
        },
        {
          "duration": 0.4411764999999832,
          "durationTicks": 240,
          "midi": 75,
          "name": "D#5",
          "ticks": 96000,
          "time": 181.835005275,
          "velocity": 0.6299212598425197
        },
        {
          "duration": 2.0294119000000137,
          "durationTicks": 1104,
          "midi": 77,
          "name": "F5",
          "ticks": 96240,
          "time": 182.27618177499997,
          "velocity": 0.6299212598425197
        },
        {
          "duration": 0.44117650000001163,
          "durationTicks": 240,
          "midi": 70,
          "name": "A#4",
          "ticks": 97440,
          "time": 184.48206427499997,
          "velocity": 0.6299212598425197
        },
        {
          "duration": 0.4411764999999832,
          "durationTicks": 240,
          "midi": 73,
          "name": "C#5",
          "ticks": 97680,
          "time": 184.92324077499998,
          "velocity": 0.6299212598425197
        },
        {
          "duration": 1.3235295000000065,
          "durationTicks": 720,
          "midi": 75,
          "name": "D#5",
          "ticks": 97920,
          "time": 185.36441727499997,
          "velocity": 0.6299212598425197
        },
        {
          "duration": 0.22058825000002003,
          "durationTicks": 120,
          "midi": 73,
          "name": "C#5",
          "ticks": 98640,
          "time": 186.68794677499997,
          "velocity": 0.6299212598425197
        },
        {
          "duration": 1.0147059499999784,
          "durationTicks": 552,
          "midi": 70,
          "name": "A#4",
          "ticks": 98760,
          "time": 186.908535025,
          "velocity": 0.6299212598425197
        },
        {
          "duration": 0.44117650000001163,
          "durationTicks": 240,
          "midi": 70,
          "name": "A#4",
          "ticks": 99360,
          "time": 188.01147627499998,
          "velocity": 0.6299212598425197
        },
        {
          "duration": 0.4411764999999832,
          "durationTicks": 240,
          "midi": 73,
          "name": "C#5",
          "ticks": 99600,
          "time": 188.452652775,
          "velocity": 0.6299212598425197
        },
        {
          "duration": 0.7941177000000152,
          "durationTicks": 432,
          "midi": 75,
          "name": "D#5",
          "ticks": 99840,
          "time": 188.89382927499997,
          "velocity": 0.6299212598425197
        },
        {
          "duration": 0.7941177000000152,
          "durationTicks": 432,
          "midi": 73,
          "name": "C#5",
          "ticks": 100320,
          "time": 189.77618227499997,
          "velocity": 0.6299212598425197
        },
        {
          "duration": 1.588235400000002,
          "durationTicks": 864,
          "midi": 77,
          "name": "F5",
          "ticks": 100800,
          "time": 190.658535275,
          "velocity": 0.6299212598425197
        },
        {
          "duration": 0.44117650000001163,
          "durationTicks": 240,
          "midi": 75,
          "name": "D#5",
          "ticks": 101760,
          "time": 192.42324127499998,
          "velocity": 0.6299212598425197
        },
        {
          "duration": 0.4411764999999832,
          "durationTicks": 240,
          "midi": 77,
          "name": "F5",
          "ticks": 102000,
          "time": 192.864417775,
          "velocity": 0.6299212598425197
        },
        {
          "duration": 0.7941177000000152,
          "durationTicks": 432,
          "midi": 70,
          "name": "A#4",
          "ticks": 102240,
          "time": 193.30559427499998,
          "velocity": 0.6299212598425197
        },
        {
          "duration": 0.44117650000001163,
          "durationTicks": 240,
          "midi": 75,
          "name": "D#5",
          "ticks": 102720,
          "time": 194.18794727499997,
          "velocity": 0.6299212598425197
        },
        {
          "duration": 0.4411764999999832,
          "durationTicks": 240,
          "midi": 77,
          "name": "F5",
          "ticks": 102960,
          "time": 194.62912377499998,
          "velocity": 0.6299212598425197
        },
        {
          "duration": 0.44117650000001163,
          "durationTicks": 240,
          "midi": 70,
          "name": "A#4",
          "ticks": 103200,
          "time": 195.07030027499997,
          "velocity": 0.6299212598425197
        },
        {
          "duration": 0.44117650000001163,
          "durationTicks": 240,
          "midi": 68,
          "name": "G#4",
          "ticks": 103440,
          "time": 195.51147677499998,
          "velocity": 0.6299212598425197
        },
        {
          "duration": 2.382353099999989,
          "durationTicks": 1296,
          "midi": 70,
          "name": "A#4",
          "ticks": 103680,
          "time": 195.952653275,
          "velocity": 0.6299212598425197
        },
        {
          "duration": 0.44117650000001163,
          "durationTicks": 240,
          "midi": 77,
          "name": "F5",
          "ticks": 105120,
          "time": 198.59971227499997,
          "velocity": 0.6299212598425197
        },
        {
          "duration": 0.4411764999999832,
          "durationTicks": 240,
          "midi": 80,
          "name": "G#5",
          "ticks": 105360,
          "time": 199.04088877499998,
          "velocity": 0.6299212598425197
        },
        {
          "duration": 1.3235295000000065,
          "durationTicks": 720,
          "midi": 85,
          "name": "C#6",
          "ticks": 105600,
          "time": 199.48206527499997,
          "velocity": 0.6299212598425197
        },
        {
          "duration": 0.44117650000001163,
          "durationTicks": 240,
          "midi": 84,
          "name": "C6",
          "ticks": 106320,
          "time": 200.80559477499997,
          "velocity": 0.6299212598425197
        },
        {
          "duration": 0.7941176999999868,
          "durationTicks": 432,
          "midi": 77,
          "name": "F5",
          "ticks": 106560,
          "time": 201.246771275,
          "velocity": 0.6299212598425197
        },
        {
          "duration": 0.44117650000001163,
          "durationTicks": 240,
          "midi": 77,
          "name": "F5",
          "ticks": 107040,
          "time": 202.12912427499998,
          "velocity": 0.6299212598425197
        },
        {
          "duration": 0.4411764999999832,
          "durationTicks": 240,
          "midi": 75,
          "name": "D#5",
          "ticks": 107280,
          "time": 202.570300775,
          "velocity": 0.6299212598425197
        },
        {
          "duration": 0.7941177000000152,
          "durationTicks": 432,
          "midi": 73,
          "name": "C#5",
          "ticks": 107520,
          "time": 203.01147727499998,
          "velocity": 0.6299212598425197
        },
        {
          "duration": 0.44117650000001163,
          "durationTicks": 240,
          "midi": 73,
          "name": "C#5",
          "ticks": 108000,
          "time": 203.89383027499997,
          "velocity": 0.6299212598425197
        },
        {
          "duration": 0.4411764999999832,
          "durationTicks": 240,
          "midi": 75,
          "name": "D#5",
          "ticks": 108240,
          "time": 204.33500677499998,
          "velocity": 0.6299212598425197
        },
        {
          "duration": 0.7941177000000152,
          "durationTicks": 432,
          "midi": 77,
          "name": "F5",
          "ticks": 108480,
          "time": 204.77618327499997,
          "velocity": 0.6299212598425197
        },
        {
          "duration": 0.4411764999999832,
          "durationTicks": 240,
          "midi": 77,
          "name": "F5",
          "ticks": 108960,
          "time": 205.658536275,
          "velocity": 0.6299212598425197
        },
        {
          "duration": 0.44117650000001163,
          "durationTicks": 240,
          "midi": 75,
          "name": "D#5",
          "ticks": 109200,
          "time": 206.09971277499997,
          "velocity": 0.6299212598425197
        },
        {
          "duration": 0.7941176999999868,
          "durationTicks": 432,
          "midi": 73,
          "name": "C#5",
          "ticks": 109440,
          "time": 206.54088927499998,
          "velocity": 0.6299212598425197
        },
        {
          "duration": 0.44117650000001163,
          "durationTicks": 240,
          "midi": 82,
          "name": "A#5",
          "ticks": 109920,
          "time": 207.42324227499998,
          "velocity": 0.6299212598425197
        },
        {
          "duration": 0.4411764999999832,
          "durationTicks": 240,
          "midi": 85,
          "name": "C#6",
          "ticks": 110160,
          "time": 207.864418775,
          "velocity": 0.6299212598425197
        },
        {
          "duration": 0.44117650000001163,
          "durationTicks": 240,
          "midi": 84,
          "name": "C6",
          "ticks": 110400,
          "time": 208.30559527499997,
          "velocity": 0.6299212598425197
        },
        {
          "duration": 0.4411764999999832,
          "durationTicks": 240,
          "midi": 82,
          "name": "A#5",
          "ticks": 110640,
          "time": 208.74677177499998,
          "velocity": 0.6299212598425197
        },
        {
          "duration": 0.44117650000001163,
          "durationTicks": 240,
          "midi": 80,
          "name": "G#5",
          "ticks": 110880,
          "time": 209.18794827499997,
          "velocity": 0.6299212598425197
        },
        {
          "duration": 0.44117650000001163,
          "durationTicks": 240,
          "midi": 82,
          "name": "A#5",
          "ticks": 111120,
          "time": 209.62912477499998,
          "velocity": 0.6299212598425197
        },
        {
          "duration": 2.382353099999989,
          "durationTicks": 1296,
          "midi": 77,
          "name": "F5",
          "ticks": 111360,
          "time": 210.070301275,
          "velocity": 0.6299212598425197
        },
        {
          "duration": 0.44117650000001163,
          "durationTicks": 240,
          "midi": 77,
          "name": "F5",
          "ticks": 112800,
          "time": 212.71736027499998,
          "velocity": 0.6299212598425197
        },
        {
          "duration": 0.4411764999999832,
          "durationTicks": 240,
          "midi": 80,
          "name": "G#5",
          "ticks": 113040,
          "time": 213.158536775,
          "velocity": 0.6299212598425197
        },
        {
          "duration": 1.3235295000000065,
          "durationTicks": 720,
          "midi": 85,
          "name": "C#6",
          "ticks": 113280,
          "time": 213.59971327499997,
          "velocity": 0.6299212598425197
        },
        {
          "duration": 0.44117650000001163,
          "durationTicks": 240,
          "midi": 84,
          "name": "C6",
          "ticks": 114000,
          "time": 214.92324277499998,
          "velocity": 0.6299212598425197
        },
        {
          "duration": 0.7941176999999868,
          "durationTicks": 432,
          "midi": 77,
          "name": "F5",
          "ticks": 114240,
          "time": 215.364419275,
          "velocity": 0.6299212598425197
        },
        {
          "duration": 0.4411764999999832,
          "durationTicks": 240,
          "midi": 77,
          "name": "F5",
          "ticks": 114720,
          "time": 216.24677227499998,
          "velocity": 0.6299212598425197
        },
        {
          "duration": 0.44117650000001163,
          "durationTicks": 240,
          "midi": 75,
          "name": "D#5",
          "ticks": 114960,
          "time": 216.68794877499997,
          "velocity": 0.6299212598425197
        },
        {
          "duration": 0.7941177000000152,
          "durationTicks": 432,
          "midi": 73,
          "name": "C#5",
          "ticks": 115200,
          "time": 217.12912527499998,
          "velocity": 0.6299212598425197
        },
        {
          "duration": 0.44117650000001163,
          "durationTicks": 240,
          "midi": 73,
          "name": "C#5",
          "ticks": 115680,
          "time": 218.01147827499997,
          "velocity": 0.6299212598425197
        },
        {
          "duration": 0.4411764999999832,
          "durationTicks": 240,
          "midi": 75,
          "name": "D#5",
          "ticks": 115920,
          "time": 218.45265477499998,
          "velocity": 0.6299212598425197
        },
        {
          "duration": 1.5882354000000305,
          "durationTicks": 864,
          "midi": 77,
          "name": "F5",
          "ticks": 116160,
          "time": 218.89383127499997,
          "velocity": 0.6299212598425197
        },
        {
          "duration": 0.4411764999999832,
          "durationTicks": 240,
          "midi": 75,
          "name": "D#5",
          "ticks": 117120,
          "time": 220.658537275,
          "velocity": 0.6299212598425197
        },
        {
          "duration": 0.44117650000001163,
          "durationTicks": 240,
          "midi": 77,
          "name": "F5",
          "ticks": 117360,
          "time": 221.09971377499997,
          "velocity": 0.6299212598425197
        },
        {
          "duration": 0.7941177000000152,
          "durationTicks": 432,
          "midi": 70,
          "name": "A#4",
          "ticks": 117600,
          "time": 221.54089027499998,
          "velocity": 0.6299212598425197
        },
        {
          "duration": 0.44117650000001163,
          "durationTicks": 240,
          "midi": 75,
          "name": "D#5",
          "ticks": 118080,
          "time": 222.42324327499998,
          "velocity": 0.6299212598425197
        },
        {
          "duration": 0.4411764999999832,
          "durationTicks": 240,
          "midi": 77,
          "name": "F5",
          "ticks": 118320,
          "time": 222.864419775,
          "velocity": 0.6299212598425197
        },
        {
          "duration": 0.44117650000001163,
          "durationTicks": 240,
          "midi": 70,
          "name": "A#4",
          "ticks": 118560,
          "time": 223.30559627499997,
          "velocity": 0.6299212598425197
        },
        {
          "duration": 0.4411764999999832,
          "durationTicks": 240,
          "midi": 68,
          "name": "G#4",
          "ticks": 118800,
          "time": 223.74677277499998,
          "velocity": 0.6299212598425197
        },
        {
          "duration": 3.176470800000004,
          "durationTicks": 1728,
          "midi": 70,
          "name": "A#4",
          "ticks": 119040,
          "time": 224.18794927499997,
          "velocity": 0.6299212598425197
        },
        {
          "duration": 0.44117650000001163,
          "durationTicks": 240,
          "midi": 77,
          "name": "F5",
          "ticks": 134880,
          "time": 253.30559827499997,
          "velocity": 0.6299212598425197
        },
        {
          "duration": 0.44117650000001163,
          "durationTicks": 240,
          "midi": 80,
          "name": "G#5",
          "ticks": 135120,
          "time": 253.74677477499998,
          "velocity": 0.6299212598425197
        },
        {
          "duration": 2.647059000000013,
          "durationTicks": 1440,
          "midi": 82,
          "name": "A#5",
          "ticks": 135360,
          "time": 254.187951275,
          "velocity": 0.6299212598425197
        },
        {
          "duration": 0.8823529999999664,
          "durationTicks": 480,
          "midi": 80,
          "name": "G#5",
          "ticks": 136800,
          "time": 256.835010275,
          "velocity": 0.6299212598425197
        },
        {
          "duration": 2.382353099999989,
          "durationTicks": 1296,
          "midi": 77,
          "name": "F5",
          "ticks": 137280,
          "time": 257.71736327499997,
          "velocity": 0.6299212598425197
        },
        {
          "duration": 0.4411764999999832,
          "durationTicks": 240,
          "midi": 77,
          "name": "F5",
          "ticks": 138720,
          "time": 260.364422275,
          "velocity": 0.6299212598425197
        },
        {
          "duration": 0.44117650000004005,
          "durationTicks": 240,
          "midi": 80,
          "name": "G#5",
          "ticks": 138960,
          "time": 260.80559877499996,
          "velocity": 0.6299212598425197
        },
        {
          "duration": 2.647058999999956,
          "durationTicks": 1440,
          "midi": 82,
          "name": "A#5",
          "ticks": 139200,
          "time": 261.246775275,
          "velocity": 0.6299212598425197
        },
        {
          "duration": 0.8823530000000233,
          "durationTicks": 480,
          "midi": 84,
          "name": "C6",
          "ticks": 140640,
          "time": 263.89383427499996,
          "velocity": 0.6299212598425197
        },
        {
          "duration": 2.382353099999989,
          "durationTicks": 1296,
          "midi": 85,
          "name": "C#6",
          "ticks": 141120,
          "time": 264.776187275,
          "velocity": 0.6299212598425197
        },
        {
          "duration": 0.4411764999999832,
          "durationTicks": 240,
          "midi": 82,
          "name": "A#5",
          "ticks": 142560,
          "time": 267.423246275,
          "velocity": 0.6299212598425197
        },
        {
          "duration": 0.4411764999999832,
          "durationTicks": 240,
          "midi": 89,
          "name": "F6",
          "ticks": 142800,
          "time": 267.864422775,
          "velocity": 0.6299212598425197
        },
        {
          "duration": 0.8823530000000233,
          "durationTicks": 480,
          "midi": 87,
          "name": "D#6",
          "ticks": 143040,
          "time": 268.30559927499996,
          "velocity": 0.6299212598425197
        },
        {
          "duration": 0.4411764999999832,
          "durationTicks": 240,
          "midi": 82,
          "name": "A#5",
          "ticks": 143520,
          "time": 269.187952275,
          "velocity": 0.6299212598425197
        },
        {
          "duration": 0.44117650000004005,
          "durationTicks": 240,
          "midi": 89,
          "name": "F6",
          "ticks": 143760,
          "time": 269.62912877499997,
          "velocity": 0.6299212598425197
        },
        {
          "duration": 1.7647059999999897,
          "durationTicks": 960,
          "midi": 87,
          "name": "D#6",
          "ticks": 144000,
          "time": 270.070305275,
          "velocity": 0.6299212598425197
        },
        {
          "duration": 0.8823530000000233,
          "durationTicks": 480,
          "midi": 84,
          "name": "C6",
          "ticks": 144960,
          "time": 271.835011275,
          "velocity": 0.6299212598425197
        },
        {
          "duration": 0.8823529999999664,
          "durationTicks": 480,
          "midi": 80,
          "name": "G#5",
          "ticks": 145440,
          "time": 272.717364275,
          "velocity": 0.6299212598425197
        },
        {
          "duration": 0.7941177000000152,
          "durationTicks": 432,
          "midi": 77,
          "name": "F5",
          "ticks": 145920,
          "time": 273.599717275,
          "velocity": 0.6299212598425197
        },
        {
          "duration": 0.4411764999999832,
          "durationTicks": 240,
          "midi": 87,
          "name": "D#6",
          "ticks": 146400,
          "time": 274.482070275,
          "velocity": 0.6299212598425197
        },
        {
          "duration": 0.4411764999999832,
          "durationTicks": 240,
          "midi": 89,
          "name": "F6",
          "ticks": 146640,
          "time": 274.923246775,
          "velocity": 0.6299212598425197
        },
        {
          "duration": 0.7941177000000152,
          "durationTicks": 432,
          "midi": 82,
          "name": "A#5",
          "ticks": 146880,
          "time": 275.364423275,
          "velocity": 0.6299212598425197
        },
        {
          "duration": 0.4411764999999832,
          "durationTicks": 240,
          "midi": 87,
          "name": "D#6",
          "ticks": 147360,
          "time": 276.246776275,
          "velocity": 0.6299212598425197
        },
        {
          "duration": 0.44117650000004005,
          "durationTicks": 240,
          "midi": 89,
          "name": "F6",
          "ticks": 147600,
          "time": 276.687952775,
          "velocity": 0.6299212598425197
        },
        {
          "duration": 0.8823529999999664,
          "durationTicks": 480,
          "midi": 82,
          "name": "A#5",
          "ticks": 147840,
          "time": 277.129129275,
          "velocity": 0.6299212598425197
        },
        {
          "duration": 0.8823530000000233,
          "durationTicks": 480,
          "midi": 80,
          "name": "G#5",
          "ticks": 148320,
          "time": 278.011482275,
          "velocity": 0.6299212598425197
        },
        {
          "duration": 3.176470800000004,
          "durationTicks": 1728,
          "midi": 82,
          "name": "A#5",
          "ticks": 148800,
          "time": 278.893835275,
          "velocity": 0.6299212598425197
        }
      ]
    },
    {
      "channel": 0,
      "controlChanges": {
        "0": [
          {
            "number": 0,
            "ticks": 38370,
            "time": 75.8974982125,
            "value": 0.5039370078740157
          },
          {
            "number": 0,
            "ticks": 40290,
            "time": 79.42691021249999,
            "value": 0.5039370078740157
          },
          {
            "number": 0,
            "ticks": 42226,
            "time": 82.98573397916667,
            "value": 0.5039370078740157
          },
          {
            "number": 0,
            "ticks": 44146,
            "time": 86.51514597916666,
            "value": 0.5039370078740157
          },
          {
            "number": 0,
            "ticks": 46050,
            "time": 90.0151462125,
            "value": 0.5039370078740157
          },
          {
            "number": 0,
            "ticks": 47986,
            "time": 93.57396997916666,
            "value": 0.5039370078740157
          },
          {
            "number": 0,
            "ticks": 49876,
            "time": 97.04823491666666,
            "value": 0.5039370078740157
          },
          {
            "number": 0,
            "ticks": 51810,
            "time": 100.6033822125,
            "value": 0.5039370078740157
          },
          {
            "number": 0,
            "ticks": 53730,
            "time": 104.1327942125,
            "value": 0.5039370078740157
          },
          {
            "number": 0,
            "ticks": 55650,
            "time": 107.6622062125,
            "value": 0.5039370078740157
          },
          {
            "number": 0,
            "ticks": 57586,
            "time": 111.22102997916666,
            "value": 0.5039370078740157
          },
          {
            "number": 0,
            "ticks": 59490,
            "time": 114.7210302125,
            "value": 0.5039370078740157
          },
          {
            "number": 0,
            "ticks": 61426,
            "time": 118.27985397916666,
            "value": 0.5039370078740157
          },
          {
            "number": 0,
            "ticks": 63330,
            "time": 121.7798542125,
            "value": 0.5039370078740157
          },
          {
            "number": 0,
            "ticks": 65250,
            "time": 125.30926621249999,
            "value": 0.5039370078740157
          },
          {
            "number": 0,
            "ticks": 67186,
            "time": 128.86808997916665,
            "value": 0.5039370078740157
          },
          {
            "number": 0,
            "ticks": 69106,
            "time": 132.39750197916666,
            "value": 0.5039370078740157
          },
          {
            "number": 0,
            "ticks": 70996,
            "time": 135.87176691666664,
            "value": 0.5039370078740157
          },
          {
            "number": 0,
            "ticks": 72946,
            "time": 139.45632597916665,
            "value": 0.5039370078740157
          },
          {
            "number": 0,
            "ticks": 74850,
            "time": 142.9563262125,
            "value": 0.5039370078740157
          },
          {
            "number": 0,
            "ticks": 76786,
            "time": 146.51514997916664,
            "value": 0.5039370078740157
          },
          {
            "number": 0,
            "ticks": 78706,
            "time": 150.04456197916664,
            "value": 0.5039370078740157
          },
          {
            "number": 0,
            "ticks": 80596,
            "time": 153.51882691666665,
            "value": 0.5039370078740157
          },
          {
            "number": 0,
            "ticks": 82530,
            "time": 157.0739742125,
            "value": 0.5039370078740157
          },
          {
            "number": 0,
            "ticks": 86370,
            "time": 164.13279821249998,
            "value": 0.5039370078740157
          },
          {
            "number": 0,
            "ticks": 88290,
            "time": 167.66221021249999,
            "value": 0.5039370078740157
          },
          {
            "number": 0,
            "ticks": 90210,
            "time": 171.1916222125,
            "value": 0.5039370078740157
          },
          {
            "number": 0,
            "ticks": 92146,
            "time": 174.75044597916664,
            "value": 0.5039370078740157
          },
          {
            "number": 0,
            "ticks": 94066,
            "time": 178.27985797916665,
            "value": 0.5039370078740157
          },
          {
            "number": 0,
            "ticks": 95986,
            "time": 181.80926997916666,
            "value": 0.5039370078740157
          },
          {
            "number": 0,
            "ticks": 97890,
            "time": 185.30927021249997,
            "value": 0.5039370078740157
          },
          {
            "number": 0,
            "ticks": 99826,
            "time": 188.86809397916664,
            "value": 0.5039370078740157
          },
          {
            "number": 0,
            "ticks": 101716,
            "time": 192.34235891666665,
            "value": 0.5039370078740157
          },
          {
            "number": 0,
            "ticks": 103650,
            "time": 195.8975062125,
            "value": 0.5039370078740157
          },
          {
            "number": 0,
            "ticks": 105586,
            "time": 199.45632997916664,
            "value": 0.5039370078740157
          },
          {
            "number": 0,
            "ticks": 106516,
            "time": 201.16588891666663,
            "value": 0.5039370078740157
          },
          {
            "number": 0,
            "ticks": 107490,
            "time": 202.95633021249998,
            "value": 0.5039370078740157
          },
          {
            "number": 0,
            "ticks": 109410,
            "time": 206.48574221249999,
            "value": 0.5039370078740157
          },
          {
            "number": 0,
            "ticks": 110370,
            "time": 208.25044821249998,
            "value": 0.5039370078740157
          },
          {
            "number": 0,
            "ticks": 111316,
            "time": 209.98941891666664,
            "value": 0.5039370078740157
          },
          {
            "number": 0,
            "ticks": 112306,
            "time": 211.80927197916665,
            "value": 0.5039370078740157
          },
          {
            "number": 0,
            "ticks": 113266,
            "time": 213.57397797916664,
            "value": 0.5039370078740157
          },
          {
            "number": 0,
            "ticks": 114210,
            "time": 215.3092722125,
            "value": 0.5039370078740157
          },
          {
            "number": 0,
            "ticks": 115170,
            "time": 217.07397821249998,
            "value": 0.5039370078740157
          },
          {
            "number": 0,
            "ticks": 116116,
            "time": 218.81294891666664,
            "value": 0.5039370078740157
          },
          {
            "number": 0,
            "ticks": 117090,
            "time": 220.6033902125,
            "value": 0.5039370078740157
          },
          {
            "number": 0,
            "ticks": 119010,
            "time": 224.13280221249997,
            "value": 0.5039370078740157
          },
          {
            "number": 0,
            "ticks": 119986,
            "time": 225.92691997916666,
            "value": 0.5039370078740157
          },
          {
            "number": 0,
            "ticks": 120946,
            "time": 227.69162597916664,
            "value": 0.5039370078740157
          },
          {
            "number": 0,
            "ticks": 121906,
            "time": 229.45633197916663,
            "value": 0.5039370078740157
          },
          {
            "number": 0,
            "ticks": 122866,
            "time": 231.22103797916665,
            "value": 0.5039370078740157
          },
          {
            "number": 0,
            "ticks": 123826,
            "time": 232.98574397916664,
            "value": 0.5039370078740157
          },
          {
            "number": 0,
            "ticks": 124770,
            "time": 234.72103821249996,
            "value": 0.5039370078740157
          },
          {
            "number": 0,
            "ticks": 125730,
            "time": 236.48574421249998,
            "value": 0.5039370078740157
          },
          {
            "number": 0,
            "ticks": 126706,
            "time": 238.27986197916664,
            "value": 0.5039370078740157
          },
          {
            "number": 0,
            "ticks": 127636,
            "time": 239.98942091666663,
            "value": 0.5039370078740157
          },
          {
            "number": 0,
            "ticks": 128610,
            "time": 241.77986221249998,
            "value": 0.5039370078740157
          },
          {
            "number": 0,
            "ticks": 129586,
            "time": 243.57397997916667,
            "value": 0.5039370078740157
          },
          {
            "number": 0,
            "ticks": 130546,
            "time": 245.33868597916666,
            "value": 0.5039370078740157
          },
          {
            "number": 0,
            "ticks": 131490,
            "time": 247.07398021249998,
            "value": 0.5039370078740157
          },
          {
            "number": 0,
            "ticks": 132436,
            "time": 248.81295091666667,
            "value": 0.5039370078740157
          },
          {
            "number": 0,
            "ticks": 136306,
            "time": 255.92692197916668,
            "value": 0.5039370078740157
          },
          {
            "number": 0,
            "ticks": 137236,
            "time": 257.6364809166667,
            "value": 0.5039370078740157
          },
          {
            "number": 0,
            "ticks": 138226,
            "time": 259.4563339791667,
            "value": 0.5039370078740157
          },
          {
            "number": 0,
            "ticks": 139170,
            "time": 261.1916282125,
            "value": 0.5039370078740157
          },
          {
            "number": 0,
            "ticks": 140146,
            "time": 262.98574597916667,
            "value": 0.5039370078740157
          },
          {
            "number": 0,
            "ticks": 141090,
            "time": 264.7210402125,
            "value": 0.5039370078740157
          },
          {
            "number": 0,
            "ticks": 142036,
            "time": 266.4600109166667,
            "value": 0.5039370078740157
          },
          {
            "number": 0,
            "ticks": 143026,
            "time": 268.2798639791667,
            "value": 0.5039370078740157
          },
          {
            "number": 0,
            "ticks": 143986,
            "time": 270.0445699791667,
            "value": 0.5039370078740157
          },
          {
            "number": 0,
            "ticks": 144946,
            "time": 271.80927597916667,
            "value": 0.5039370078740157
          },
          {
            "number": 0,
            "ticks": 145890,
            "time": 273.5445702125,
            "value": 0.5039370078740157
          },
          {
            "number": 0,
            "ticks": 146836,
            "time": 275.2835409166667,
            "value": 0.5039370078740157
          },
          {
            "number": 0,
            "ticks": 148770,
            "time": 278.8386882125,
            "value": 0.5039370078740157
          },
          {
            "number": 0,
            "ticks": 150706,
            "time": 282.39751197916667,
            "value": 0.5039370078740157
          }
        ],
        "10": [
          {
            "number": 10,
            "ticks": 0,
            "time": 0,
            "value": 0.5039370078740157
          }
        ],
        "64": [
          {
            "number": 64,
            "ticks": 0,
            "time": 0,
            "value": 0.9921259842519685
          }
        ],
        "109": [
          {
            "number": 109,
            "ticks": 36540,
            "time": 72.5335274,
            "value": 0.5039370078740157
          }
        ],
        "115": [
          {
            "number": 115,
            "ticks": 38414,
            "time": 75.97838057083334,
            "value": 0.5039370078740157
          },
          {
            "number": 115,
            "ticks": 40334,
            "time": 79.50779257083333,
            "value": 0.5039370078740157
          },
          {
            "number": 115,
            "ticks": 42270,
            "time": 83.0666163375,
            "value": 0.5039370078740157
          },
          {
            "number": 115,
            "ticks": 44190,
            "time": 86.5960283375,
            "value": 0.5039370078740157
          },
          {
            "number": 115,
            "ticks": 46094,
            "time": 90.09602857083334,
            "value": 0.5039370078740157
          },
          {
            "number": 115,
            "ticks": 48030,
            "time": 93.6548523375,
            "value": 0.5039370078740157
          },
          {
            "number": 115,
            "ticks": 49920,
            "time": 97.129117275,
            "value": 0.5039370078740157
          },
          {
            "number": 115,
            "ticks": 51854,
            "time": 100.68426457083334,
            "value": 0.5039370078740157
          },
          {
            "number": 115,
            "ticks": 53774,
            "time": 104.21367657083333,
            "value": 0.5039370078740157
          },
          {
            "number": 115,
            "ticks": 55694,
            "time": 107.74308857083334,
            "value": 0.5039370078740157
          },
          {
            "number": 115,
            "ticks": 57630,
            "time": 111.3019123375,
            "value": 0.5039370078740157
          },
          {
            "number": 115,
            "ticks": 59534,
            "time": 114.80191257083334,
            "value": 0.5039370078740157
          },
          {
            "number": 115,
            "ticks": 61470,
            "time": 118.3607363375,
            "value": 0.5039370078740157
          },
          {
            "number": 115,
            "ticks": 63374,
            "time": 121.86073657083334,
            "value": 0.5039370078740157
          },
          {
            "number": 115,
            "ticks": 65294,
            "time": 125.39014857083333,
            "value": 0.5039370078740157
          },
          {
            "number": 115,
            "ticks": 67230,
            "time": 128.94897233749998,
            "value": 0.5039370078740157
          },
          {
            "number": 115,
            "ticks": 69150,
            "time": 132.4783843375,
            "value": 0.5039370078740157
          },
          {
            "number": 115,
            "ticks": 71040,
            "time": 135.952649275,
            "value": 0.5039370078740157
          },
          {
            "number": 115,
            "ticks": 72990,
            "time": 139.53720833749998,
            "value": 0.5039370078740157
          },
          {
            "number": 115,
            "ticks": 74894,
            "time": 143.03720857083331,
            "value": 0.5039370078740157
          },
          {
            "number": 115,
            "ticks": 76830,
            "time": 146.5960323375,
            "value": 0.5039370078740157
          },
          {
            "number": 115,
            "ticks": 78750,
            "time": 150.12544433749997,
            "value": 0.5039370078740157
          },
          {
            "number": 115,
            "ticks": 80640,
            "time": 153.59970927499998,
            "value": 0.5039370078740157
          },
          {
            "number": 115,
            "ticks": 84494,
            "time": 160.68426857083332,
            "value": 0.5039370078740157
          },
          {
            "number": 115,
            "ticks": 86414,
            "time": 164.2136805708333,
            "value": 0.5039370078740157
          },
          {
            "number": 115,
            "ticks": 88334,
            "time": 167.7430925708333,
            "value": 0.5039370078740157
          },
          {
            "number": 115,
            "ticks": 90254,
            "time": 171.27250457083332,
            "value": 0.5039370078740157
          },
          {
            "number": 115,
            "ticks": 92190,
            "time": 174.83132833749997,
            "value": 0.5039370078740157
          },
          {
            "number": 115,
            "ticks": 94110,
            "time": 178.36074033749998,
            "value": 0.5039370078740157
          },
          {
            "number": 115,
            "ticks": 96030,
            "time": 181.89015233749998,
            "value": 0.5039370078740157
          },
          {
            "number": 115,
            "ticks": 97934,
            "time": 185.39015257083332,
            "value": 0.5039370078740157
          },
          {
            "number": 115,
            "ticks": 99870,
            "time": 188.94897633749997,
            "value": 0.5039370078740157
          },
          {
            "number": 115,
            "ticks": 101760,
            "time": 192.42324127499998,
            "value": 0.5039370078740157
          },
          {
            "number": 115,
            "ticks": 103694,
            "time": 195.97838857083332,
            "value": 0.5039370078740157
          },
          {
            "number": 115,
            "ticks": 105630,
            "time": 199.53721233749997,
            "value": 0.5039370078740157
          },
          {
            "number": 115,
            "ticks": 106560,
            "time": 201.246771275,
            "value": 0.5039370078740157
          },
          {
            "number": 115,
            "ticks": 107534,
            "time": 203.0372125708333,
            "value": 0.5039370078740157
          },
          {
            "number": 115,
            "ticks": 109454,
            "time": 206.5666245708333,
            "value": 0.5039370078740157
          },
          {
            "number": 115,
            "ticks": 110414,
            "time": 208.3313305708333,
            "value": 0.5039370078740157
          },
          {
            "number": 115,
            "ticks": 111360,
            "time": 210.070301275,
            "value": 0.5039370078740157
          },
          {
            "number": 115,
            "ticks": 112350,
            "time": 211.89015433749998,
            "value": 0.5039370078740157
          },
          {
            "number": 115,
            "ticks": 113310,
            "time": 213.65486033749997,
            "value": 0.5039370078740157
          },
          {
            "number": 115,
            "ticks": 114254,
            "time": 215.39015457083332,
            "value": 0.5039370078740157
          },
          {
            "number": 115,
            "ticks": 115214,
            "time": 217.1548605708333,
            "value": 0.5039370078740157
          },
          {
            "number": 115,
            "ticks": 116160,
            "time": 218.89383127499997,
            "value": 0.5039370078740157
          },
          {
            "number": 115,
            "ticks": 117134,
            "time": 220.68427257083331,
            "value": 0.5039370078740157
          },
          {
            "number": 115,
            "ticks": 119054,
            "time": 224.21368457083332,
            "value": 0.5039370078740157
          },
          {
            "number": 115,
            "ticks": 120030,
            "time": 226.00780233749998,
            "value": 0.5039370078740157
          },
          {
            "number": 115,
            "ticks": 120990,
            "time": 227.77250833749997,
            "value": 0.5039370078740157
          },
          {
            "number": 115,
            "ticks": 121950,
            "time": 229.5372143375,
            "value": 0.5039370078740157
          },
          {
            "number": 115,
            "ticks": 122910,
            "time": 231.30192033749998,
            "value": 0.5039370078740157
          },
          {
            "number": 115,
            "ticks": 123870,
            "time": 233.06662633749997,
            "value": 0.5039370078740157
          },
          {
            "number": 115,
            "ticks": 124814,
            "time": 234.80192057083332,
            "value": 0.5039370078740157
          },
          {
            "number": 115,
            "ticks": 125774,
            "time": 236.5666265708333,
            "value": 0.5039370078740157
          },
          {
            "number": 115,
            "ticks": 126750,
            "time": 238.36074433749997,
            "value": 0.5039370078740157
          },
          {
            "number": 115,
            "ticks": 127680,
            "time": 240.070303275,
            "value": 0.5039370078740157
          },
          {
            "number": 115,
            "ticks": 128654,
            "time": 241.86074457083328,
            "value": 0.5039370078740157
          },
          {
            "number": 115,
            "ticks": 129630,
            "time": 243.65486233749996,
            "value": 0.5039370078740157
          },
          {
            "number": 115,
            "ticks": 130590,
            "time": 245.41956833749998,
            "value": 0.5039370078740157
          },
          {
            "number": 115,
            "ticks": 131534,
            "time": 247.15486257083327,
            "value": 0.5039370078740157
          },
          {
            "number": 115,
            "ticks": 135390,
            "time": 254.2430983375,
            "value": 0.5039370078740157
          },
          {
            "number": 115,
            "ticks": 136350,
            "time": 256.0078043375,
            "value": 0.5039370078740157
          },
          {
            "number": 115,
            "ticks": 137280,
            "time": 257.71736327499997,
            "value": 0.5039370078740157
          },
          {
            "number": 115,
            "ticks": 138270,
            "time": 259.5372163375,
            "value": 0.5039370078740157
          },
          {
            "number": 115,
            "ticks": 139214,
            "time": 261.2725105708333,
            "value": 0.5039370078740157
          },
          {
            "number": 115,
            "ticks": 140190,
            "time": 263.0666283375,
            "value": 0.5039370078740157
          },
          {
            "number": 115,
            "ticks": 141134,
            "time": 264.8019225708333,
            "value": 0.5039370078740157
          },
          {
            "number": 115,
            "ticks": 142080,
            "time": 266.540893275,
            "value": 0.5039370078740157
          },
          {
            "number": 115,
            "ticks": 143070,
            "time": 268.36074633749996,
            "value": 0.5039370078740157
          },
          {
            "number": 115,
            "ticks": 144030,
            "time": 270.1254523375,
            "value": 0.5039370078740157
          },
          {
            "number": 115,
            "ticks": 144990,
            "time": 271.8901583375,
            "value": 0.5039370078740157
          },
          {
            "number": 115,
            "ticks": 145934,
            "time": 273.6254525708333,
            "value": 0.5039370078740157
          },
          {
            "number": 115,
            "ticks": 146880,
            "time": 275.364423275,
            "value": 0.5039370078740157
          },
          {
            "number": 115,
            "ticks": 148814,
            "time": 278.9195705708333,
            "value": 0.5039370078740157
          }
        ]
      },
      "pitchBends": [],
      "instrument": {
        "family": "piano",
        "number": 0,
        "name": "acoustic grand piano"
      },
      "name": "Piano",
      "notes": [
        {
          "duration": 3.9272724000000006,
          "durationTicks": 1728,
          "midi": 66,
          "name": "F#4",
          "ticks": 0,
          "time": 0,
          "velocity": 0.6299212598425197
        },
        {
          "duration": 3.927272400000001,
          "durationTicks": 1728,
          "midi": 73,
          "name": "C#5",
          "ticks": 33,
          "time": 0.07499999375000002,
          "velocity": 0.6299212598425197
        },
        {
          "duration": 3.927272400000001,
          "durationTicks": 1728,
          "midi": 75,
          "name": "D#5",
          "ticks": 67,
          "time": 0.15227271458333336,
          "velocity": 0.6299212598425197
        },
        {
          "duration": 3.9272724000000006,
          "durationTicks": 1728,
          "midi": 84,
          "name": "C6",
          "ticks": 100,
          "time": 0.22727270833333338,
          "velocity": 0.6299212598425197
        },
        {
          "duration": 3.9272724,
          "durationTicks": 1728,
          "midi": 85,
          "name": "C#6",
          "ticks": 133,
          "time": 0.3022727020833334,
          "velocity": 0.6299212598425197
        },
        {
          "duration": 3.9272724,
          "durationTicks": 1728,
          "midi": 92,
          "name": "G#6",
          "ticks": 167,
          "time": 0.3795454229166667,
          "velocity": 0.6299212598425197
        },
        {
          "duration": 3.9272724,
          "durationTicks": 1728,
          "midi": 65,
          "name": "F4",
          "ticks": 1720,
          "time": 3.909090583333334,
          "velocity": 0.6299212598425197
        },
        {
          "duration": 3.927272400000001,
          "durationTicks": 1728,
          "midi": 72,
          "name": "C5",
          "ticks": 1749,
          "time": 3.97499966875,
          "velocity": 0.6299212598425197
        },
        {
          "duration": 3.9272723999999997,
          "durationTicks": 1728,
          "midi": 73,
          "name": "C#5",
          "ticks": 1777,
          "time": 4.038636027083334,
          "velocity": 0.6299212598425197
        },
        {
          "duration": 3.9272723999999997,
          "durationTicks": 1728,
          "midi": 75,
          "name": "D#5",
          "ticks": 1806,
          "time": 4.1045451125,
          "velocity": 0.6299212598425197
        },
        {
          "duration": 3.9272724000000014,
          "durationTicks": 1728,
          "midi": 80,
          "name": "G#5",
          "ticks": 1834,
          "time": 4.168181470833334,
          "velocity": 0.6299212598425197
        },
        {
          "duration": 3.9272723999999997,
          "durationTicks": 1728,
          "midi": 84,
          "name": "C6",
          "ticks": 1863,
          "time": 4.234090556250001,
          "velocity": 0.6299212598425197
        },
        {
          "duration": 3.9272724000000006,
          "durationTicks": 1728,
          "midi": 87,
          "name": "D#6",
          "ticks": 1891,
          "time": 4.2977269145833334,
          "velocity": 0.6299212598425197
        },
        {
          "duration": 1.053383785416667,
          "durationTicks": 432,
          "midi": 66,
          "name": "F#4",
          "ticks": 3640,
          "time": 8.272726583333334,
          "velocity": 0.6299212598425197
        },
        {
          "duration": 1.0801368541666676,
          "durationTicks": 432,
          "midi": 73,
          "name": "C#5",
          "ticks": 3673,
          "time": 8.347726577083334,
          "velocity": 0.6299212598425197
        },
        {
          "duration": 1.1115180083333343,
          "durationTicks": 432,
          "midi": 75,
          "name": "D#5",
          "ticks": 3707,
          "time": 8.424999297916667,
          "velocity": 0.6299212598425197
        },
        {
          "duration": 1.1480261833333323,
          "durationTicks": 432,
          "midi": 80,
          "name": "G#5",
          "ticks": 3740,
          "time": 8.499999291666668,
          "velocity": 0.6299212598425197
        },
        {
          "duration": 1.1876095458333324,
          "durationTicks": 432,
          "midi": 84,
          "name": "C6",
          "ticks": 3773,
          "time": 8.574999285416668,
          "velocity": 0.6299212598425197
        },
        {
          "duration": 1.2283924041666658,
          "durationTicks": 432,
          "midi": 85,
          "name": "C#6",
          "ticks": 3807,
          "time": 8.652272006250001,
          "velocity": 0.6299212598425197
        },
        {
          "duration": 0.7740418791666652,
          "durationTicks": 216,
          "midi": 84,
          "name": "C6",
          "ticks": 4320,
          "time": 10.161914466666667,
          "velocity": 0.6299212598425197
        },
        {
          "duration": 0.9124243895833359,
          "durationTicks": 216,
          "midi": 82,
          "name": "A#5",
          "ticks": 4560,
          "time": 11.029706345833333,
          "velocity": 0.6299212598425197
        },
        {
          "duration": 1.1746731708333336,
          "durationTicks": 216,
          "midi": 84,
          "name": "C6",
          "ticks": 4800,
          "time": 12.060278881250001,
          "velocity": 0.6299212598425197
        },
        {
          "duration": 2.467695939583331,
          "durationTicks": 672,
          "midi": 85,
          "name": "C#6",
          "ticks": 5040,
          "time": 13.354952052083336,
          "velocity": 0.6299212598425197
        },
        {
          "duration": 0.39705884999999874,
          "durationTicks": 216,
          "midi": 77,
          "name": "F5",
          "ticks": 5760,
          "time": 15.952641275,
          "velocity": 0.6299212598425197
        },
        {
          "duration": 0.3970588500000005,
          "durationTicks": 216,
          "midi": 75,
          "name": "D#5",
          "ticks": 6000,
          "time": 16.393817775,
          "velocity": 0.6299212598425197
        },
        {
          "duration": 0.3970588500000005,
          "durationTicks": 216,
          "midi": 77,
          "name": "F5",
          "ticks": 6240,
          "time": 16.834994275,
          "velocity": 0.6299212598425197
        },
        {
          "duration": 0.39705884999999697,
          "durationTicks": 216,
          "midi": 82,
          "name": "A#5",
          "ticks": 6480,
          "time": 17.276170775,
          "velocity": 0.6299212598425197
        },
        {
          "duration": 0.3970588500000005,
          "durationTicks": 216,
          "midi": 77,
          "name": "F5",
          "ticks": 6720,
          "time": 17.717347274999998,
          "velocity": 0.6299212598425197
        },
        {
          "duration": 0.3970588500000005,
          "durationTicks": 216,
          "midi": 75,
          "name": "D#5",
          "ticks": 6960,
          "time": 18.158523775,
          "velocity": 0.6299212598425197
        },
        {
          "duration": 0.3970588500000005,
          "durationTicks": 216,
          "midi": 77,
          "name": "F5",
          "ticks": 7200,
          "time": 18.599700275,
          "velocity": 0.6299212598425197
        },
        {
          "duration": 0.39705884999999697,
          "durationTicks": 216,
          "midi": 84,
          "name": "C6",
          "ticks": 7440,
          "time": 19.040876775,
          "velocity": 0.6299212598425197
        },
        {
          "duration": 0.3970588500000005,
          "durationTicks": 216,
          "midi": 77,
          "name": "F5",
          "ticks": 7680,
          "time": 19.482053275,
          "velocity": 0.6299212598425197
        },
        {
          "duration": 0.3970588500000005,
          "durationTicks": 216,
          "midi": 75,
          "name": "D#5",
          "ticks": 7920,
          "time": 19.923229775,
          "velocity": 0.6299212598425197
        },
        {
          "duration": 0.3970588500000005,
          "durationTicks": 216,
          "midi": 77,
          "name": "F5",
          "ticks": 8160,
          "time": 20.364406275,
          "velocity": 0.6299212598425197
        },
        {
          "duration": 0.3970588500000005,
          "durationTicks": 216,
          "midi": 85,
          "name": "C#6",
          "ticks": 8400,
          "time": 20.805582774999998,
          "velocity": 0.6299212598425197
        },
        {
          "duration": 0.794117700000001,
          "durationTicks": 432,
          "midi": 75,
          "name": "D#5",
          "ticks": 8640,
          "time": 21.246759275,
          "velocity": 0.6299212598425197
        },
        {
          "duration": 0.794117700000001,
          "durationTicks": 432,
          "midi": 84,
          "name": "C6",
          "ticks": 8640,
          "time": 21.246759275,
          "velocity": 0.6299212598425197
        },
        {
          "duration": 0.794117700000001,
          "durationTicks": 432,
          "midi": 72,
          "name": "C5",
          "ticks": 9120,
          "time": 22.129112274999997,
          "velocity": 0.6299212598425197
        },
        {
          "duration": 0.794117700000001,
          "durationTicks": 432,
          "midi": 80,
          "name": "G#5",
          "ticks": 9120,
          "time": 22.129112274999997,
          "velocity": 0.6299212598425197
        },
        {
          "duration": 0.3970588500000005,
          "durationTicks": 216,
          "midi": 70,
          "name": "A#4",
          "ticks": 9510,
          "time": 22.8460240875,
          "velocity": 0.6299212598425197
        },
        {
          "duration": 0.39705884999999697,
          "durationTicks": 216,
          "midi": 75,
          "name": "D#5",
          "ticks": 9540,
          "time": 22.90117115,
          "velocity": 0.6299212598425197
        },
        {
          "duration": 0.39705884999999697,
          "durationTicks": 216,
          "midi": 77,
          "name": "F5",
          "ticks": 9570,
          "time": 22.9563182125,
          "velocity": 0.6299212598425197
        },
        {
          "duration": 0.39705884999999697,
          "durationTicks": 216,
          "midi": 75,
          "name": "D#5",
          "ticks": 9840,
          "time": 23.452641775,
          "velocity": 0.6299212598425197
        },
        {
          "duration": 0.39705884999999697,
          "durationTicks": 216,
          "midi": 77,
          "name": "F5",
          "ticks": 10080,
          "time": 23.893818275,
          "velocity": 0.6299212598425197
        },
        {
          "duration": 0.3970588500000005,
          "durationTicks": 216,
          "midi": 82,
          "name": "A#5",
          "ticks": 10320,
          "time": 24.334994775,
          "velocity": 0.6299212598425197
        },
        {
          "duration": 0.39705884999999697,
          "durationTicks": 216,
          "midi": 77,
          "name": "F5",
          "ticks": 10560,
          "time": 24.776171275,
          "velocity": 0.6299212598425197
        },
        {
          "duration": 0.3970588500000005,
          "durationTicks": 216,
          "midi": 75,
          "name": "D#5",
          "ticks": 10800,
          "time": 25.217347775,
          "velocity": 0.6299212598425197
        },
        {
          "duration": 0.3970588500000005,
          "durationTicks": 216,
          "midi": 77,
          "name": "F5",
          "ticks": 11040,
          "time": 25.658524274999998,
          "velocity": 0.6299212598425197
        },
        {
          "duration": 0.39705884999999697,
          "durationTicks": 216,
          "midi": 84,
          "name": "C6",
          "ticks": 11280,
          "time": 26.099700775,
          "velocity": 0.6299212598425197
        },
        {
          "duration": 1.588235400000002,
          "durationTicks": 864,
          "midi": 80,
          "name": "G#5",
          "ticks": 11520,
          "time": 26.540877275,
          "velocity": 0.6299212598425197
        },
        {
          "duration": 0.3970588500000005,
          "durationTicks": 216,
          "midi": 70,
          "name": "A#4",
          "ticks": 13350,
          "time": 29.9048480875,
          "velocity": 0.6299212598425197
        },
        {
          "duration": 0.3970588500000005,
          "durationTicks": 216,
          "midi": 75,
          "name": "D#5",
          "ticks": 13380,
          "time": 29.959995149999997,
          "velocity": 0.6299212598425197
        },
        {
          "duration": 0.39705884999999697,
          "durationTicks": 216,
          "midi": 77,
          "name": "F5",
          "ticks": 13410,
          "time": 30.0151422125,
          "velocity": 0.6299212598425197
        },
        {
          "duration": 0.3970588500000005,
          "durationTicks": 216,
          "midi": 75,
          "name": "D#5",
          "ticks": 13680,
          "time": 30.511465774999998,
          "velocity": 0.6299212598425197
        },
        {
          "duration": 0.39705884999999697,
          "durationTicks": 216,
          "midi": 77,
          "name": "F5",
          "ticks": 13920,
          "time": 30.952642275,
          "velocity": 0.6299212598425197
        },
        {
          "duration": 0.3970588500000005,
          "durationTicks": 216,
          "midi": 82,
          "name": "A#5",
          "ticks": 14160,
          "time": 31.393818775,
          "velocity": 0.6299212598425197
        },
        {
          "duration": 0.3970588500000005,
          "durationTicks": 216,
          "midi": 77,
          "name": "F5",
          "ticks": 14400,
          "time": 31.834995274999997,
          "velocity": 0.6299212598425197
        },
        {
          "duration": 0.3970588499999934,
          "durationTicks": 216,
          "midi": 75,
          "name": "D#5",
          "ticks": 14640,
          "time": 32.276171775,
          "velocity": 0.6299212598425197
        },
        {
          "duration": 0.3970588500000005,
          "durationTicks": 216,
          "midi": 77,
          "name": "F5",
          "ticks": 14880,
          "time": 32.717348275,
          "velocity": 0.6299212598425197
        },
        {
          "duration": 0.3970588500000005,
          "durationTicks": 216,
          "midi": 84,
          "name": "C6",
          "ticks": 15120,
          "time": 33.158524775,
          "velocity": 0.6299212598425197
        },
        {
          "duration": 0.3970588499999934,
          "durationTicks": 216,
          "midi": 77,
          "name": "F5",
          "ticks": 15360,
          "time": 33.599701275,
          "velocity": 0.6299212598425197
        },
        {
          "duration": 0.3970588500000005,
          "durationTicks": 216,
          "midi": 75,
          "name": "D#5",
          "ticks": 15600,
          "time": 34.040877775,
          "velocity": 0.6299212598425197
        },
        {
          "duration": 0.3970588500000005,
          "durationTicks": 216,
          "midi": 77,
          "name": "F5",
          "ticks": 15840,
          "time": 34.482054274999996,
          "velocity": 0.6299212598425197
        },
        {
          "duration": 0.3970588500000005,
          "durationTicks": 216,
          "midi": 85,
          "name": "C#6",
          "ticks": 16080,
          "time": 34.923230775,
          "velocity": 0.6299212598425197
        },
        {
          "duration": 0.794117700000001,
          "durationTicks": 432,
          "midi": 75,
          "name": "D#5",
          "ticks": 16320,
          "time": 35.364407275,
          "velocity": 0.6299212598425197
        },
        {
          "duration": 0.794117700000001,
          "durationTicks": 432,
          "midi": 84,
          "name": "C6",
          "ticks": 16320,
          "time": 35.364407275,
          "velocity": 0.6299212598425197
        },
        {
          "duration": 0.7941176999999939,
          "durationTicks": 432,
          "midi": 80,
          "name": "G#5",
          "ticks": 16800,
          "time": 36.246760275,
          "velocity": 0.6299212598425197
        },
        {
          "duration": 0.3970588500000005,
          "durationTicks": 216,
          "midi": 66,
          "name": "F#4",
          "ticks": 17280,
          "time": 37.129113274999995,
          "velocity": 0.6299212598425197
        },
        {
          "duration": 0.3970588500000005,
          "durationTicks": 216,
          "midi": 70,
          "name": "A#4",
          "ticks": 17280,
          "time": 37.129113274999995,
          "velocity": 0.6299212598425197
        },
        {
          "duration": 0.3970588500000005,
          "durationTicks": 216,
          "midi": 75,
          "name": "D#5",
          "ticks": 17280,
          "time": 37.129113274999995,
          "velocity": 0.6299212598425197
        },
        {
          "duration": 0.3970588500000005,
          "durationTicks": 216,
          "midi": 77,
          "name": "F5",
          "ticks": 17520,
          "time": 37.570289775,
          "velocity": 0.6299212598425197
        },
        {
          "duration": 0.794117700000001,
          "durationTicks": 432,
          "midi": 70,
          "name": "A#4",
          "ticks": 17760,
          "time": 38.011466275,
          "velocity": 0.6299212598425197
        },
        {
          "duration": 0.3970588500000005,
          "durationTicks": 216,
          "midi": 65,
          "name": "F4",
          "ticks": 18240,
          "time": 38.893819275,
          "velocity": 0.6299212598425197
        },
        {
          "duration": 0.3970588500000005,
          "durationTicks": 216,
          "midi": 68,
          "name": "G#4",
          "ticks": 18240,
          "time": 38.893819275,
          "velocity": 0.6299212598425197
        },
        {
          "duration": 0.3970588500000005,
          "durationTicks": 216,
          "midi": 75,
          "name": "D#5",
          "ticks": 18240,
          "time": 38.893819275,
          "velocity": 0.6299212598425197
        },
        {
          "duration": 0.3970588500000005,
          "durationTicks": 216,
          "midi": 77,
          "name": "F5",
          "ticks": 18480,
          "time": 39.334995774999996,
          "velocity": 0.6299212598425197
        },
        {
          "duration": 0.3970588499999934,
          "durationTicks": 216,
          "midi": 70,
          "name": "A#4",
          "ticks": 18720,
          "time": 39.776172275,
          "velocity": 0.6299212598425197
        },
        {
          "duration": 0.3970588500000005,
          "durationTicks": 216,
          "midi": 68,
          "name": "G#4",
          "ticks": 18960,
          "time": 40.217348775,
          "velocity": 0.6299212598425197
        },
        {
          "duration": 3.176470800000004,
          "durationTicks": 1728,
          "midi": 70,
          "name": "A#4",
          "ticks": 19200,
          "time": 40.658525274999995,
          "velocity": 0.6299212598425197
        },
        {
          "duration": 0.3970588500000005,
          "durationTicks": 216,
          "midi": 68,
          "name": "G#4",
          "ticks": 21600,
          "time": 45.070290275,
          "velocity": 0.6299212598425197
        },
        {
          "duration": 0.3970588500000076,
          "durationTicks": 216,
          "midi": 70,
          "name": "A#4",
          "ticks": 21840,
          "time": 45.511466774999995,
          "velocity": 0.6299212598425197
        },
        {
          "duration": 1.588235399999995,
          "durationTicks": 864,
          "midi": 77,
          "name": "F5",
          "ticks": 22080,
          "time": 45.952643275,
          "velocity": 0.6299212598425197
        },
        {
          "duration": 0.3970588500000005,
          "durationTicks": 216,
          "midi": 61,
          "name": "C#4",
          "ticks": 23520,
          "time": 48.599702275,
          "velocity": 0.6299212598425197
        },
        {
          "duration": 0.3970588500000005,
          "durationTicks": 216,
          "midi": 68,
          "name": "G#4",
          "ticks": 23760,
          "time": 49.040878774999996,
          "velocity": 0.6299212598425197
        },
        {
          "duration": 1.588235400000002,
          "durationTicks": 864,
          "midi": 73,
          "name": "C#5",
          "ticks": 24000,
          "time": 49.48205527499999,
          "velocity": 0.6299212598425197
        },
        {
          "duration": 0.3970588500000076,
          "durationTicks": 216,
          "midi": 68,
          "name": "G#4",
          "ticks": 25440,
          "time": 52.12911427499999,
          "velocity": 0.6299212598425197
        },
        {
          "duration": 0.3970588500000005,
          "durationTicks": 216,
          "midi": 63,
          "name": "D#4",
          "ticks": 25680,
          "time": 52.570290775,
          "velocity": 0.6299212598425197
        },
        {
          "duration": 1.588235400000002,
          "durationTicks": 864,
          "midi": 70,
          "name": "A#4",
          "ticks": 25920,
          "time": 53.011467274999994,
          "velocity": 0.6299212598425197
        },
        {
          "duration": 0.3970588500000076,
          "durationTicks": 216,
          "midi": 68,
          "name": "G#4",
          "ticks": 27360,
          "time": 55.65852627499999,
          "velocity": 0.6299212598425197
        },
        {
          "duration": 0.3970588500000005,
          "durationTicks": 216,
          "midi": 61,
          "name": "C#4",
          "ticks": 27600,
          "time": 56.099702775,
          "velocity": 0.6299212598425197
        },
        {
          "duration": 1.588235399999995,
          "durationTicks": 864,
          "midi": 72,
          "name": "C5",
          "ticks": 27840,
          "time": 56.540879274999995,
          "velocity": 0.6299212598425197
        },
        {
          "duration": 0.3970588500000005,
          "durationTicks": 216,
          "midi": 68,
          "name": "G#4",
          "ticks": 29280,
          "time": 59.18793827499999,
          "velocity": 0.6299212598425197
        },
        {
          "duration": 0.3970588500000005,
          "durationTicks": 216,
          "midi": 70,
          "name": "A#4",
          "ticks": 29520,
          "time": 59.629114775,
          "velocity": 0.6299212598425197
        },
        {
          "duration": 1.588235399999995,
          "durationTicks": 864,
          "midi": 73,
          "name": "C#5",
          "ticks": 29760,
          "time": 60.070291274999995,
          "velocity": 0.6299212598425197
        },
        {
          "duration": 1.2794118500000025,
          "durationTicks": 696,
          "midi": 68,
          "name": "G#4",
          "ticks": 30600,
          "time": 61.61440902499999,
          "velocity": 0.6299212598425197
        },
        {
          "duration": 1.2794118499999954,
          "durationTicks": 696,
          "midi": 73,
          "name": "C#5",
          "ticks": 30640,
          "time": 61.68793844166667,
          "velocity": 0.6299212598425197
        },
        {
          "duration": 1.2794118500000025,
          "durationTicks": 696,
          "midi": 80,
          "name": "G#5",
          "ticks": 30680,
          "time": 61.761467858333326,
          "velocity": 0.6299212598425197
        },
        {
          "duration": 0.3970588500000076,
          "durationTicks": 216,
          "midi": 68,
          "name": "G#4",
          "ticks": 31440,
          "time": 63.15852677499999,
          "velocity": 0.6299212598425197
        },
        {
          "duration": 1.588235400000002,
          "durationTicks": 864,
          "midi": 75,
          "name": "D#5",
          "ticks": 31680,
          "time": 63.599703274999996,
          "velocity": 0.6299212598425197
        },
        {
          "duration": 1.588235400000002,
          "durationTicks": 864,
          "midi": 66,
          "name": "F#4",
          "ticks": 32640,
          "time": 65.364409275,
          "velocity": 0.6299212598425197
        },
        {
          "duration": 1.588235400000002,
          "durationTicks": 864,
          "midi": 70,
          "name": "A#4",
          "ticks": 32685,
          "time": 65.44712986875,
          "velocity": 0.6299212598425197
        },
        {
          "duration": 1.588235400000002,
          "durationTicks": 864,
          "midi": 73,
          "name": "C#5",
          "ticks": 32730,
          "time": 65.5298504625,
          "velocity": 0.6299212598425197
        },
        {
          "duration": 1.5882353999999879,
          "durationTicks": 864,
          "midi": 75,
          "name": "D#5",
          "ticks": 32775,
          "time": 65.61257105625,
          "velocity": 0.6299212598425197
        },
        {
          "duration": 1.5882353999999879,
          "durationTicks": 864,
          "midi": 68,
          "name": "G#4",
          "ticks": 33600,
          "time": 67.129115275,
          "velocity": 0.6299212598425197
        },
        {
          "duration": 1.5882353999999879,
          "durationTicks": 864,
          "midi": 72,
          "name": "C5",
          "ticks": 33600,
          "time": 67.129115275,
          "velocity": 0.6299212598425197
        },
        {
          "duration": 1.5882353999999879,
          "durationTicks": 864,
          "midi": 75,
          "name": "D#5",
          "ticks": 33600,
          "time": 67.129115275,
          "velocity": 0.6299212598425197
        },
        {
          "duration": 1.2794118500000025,
          "durationTicks": 696,
          "midi": 68,
          "name": "G#4",
          "ticks": 36390,
          "time": 72.2577920875,
          "velocity": 0.6299212598425197
        },
        {
          "duration": 1.2794118500000025,
          "durationTicks": 696,
          "midi": 70,
          "name": "A#4",
          "ticks": 36420,
          "time": 72.31293914999999,
          "velocity": 0.6299212598425197
        },
        {
          "duration": 1.2794118500000025,
          "durationTicks": 696,
          "midi": 77,
          "name": "F5",
          "ticks": 36450,
          "time": 72.3680862125,
          "velocity": 0.6299212598425197
        },
        {
          "duration": 0.3970588500000076,
          "durationTicks": 216,
          "midi": 70,
          "name": "A#4",
          "ticks": 37200,
          "time": 73.746762775,
          "velocity": 0.6299212598425197
        },
        {
          "duration": 0.7941177000000152,
          "durationTicks": 432,
          "midi": 68,
          "name": "G#4",
          "ticks": 37440,
          "time": 74.18793927499999,
          "velocity": 0.6299212598425197
        },
        {
          "duration": 0.7941177000000152,
          "durationTicks": 432,
          "midi": 72,
          "name": "C5",
          "ticks": 37440,
          "time": 74.18793927499999,
          "velocity": 0.6299212598425197
        },
        {
          "duration": 0.794117700000001,
          "durationTicks": 432,
          "midi": 63,
          "name": "D#4",
          "ticks": 37920,
          "time": 75.070292275,
          "velocity": 0.6299212598425197
        },
        {
          "duration": 0.794117700000001,
          "durationTicks": 432,
          "midi": 68,
          "name": "G#4",
          "ticks": 37920,
          "time": 75.070292275,
          "velocity": 0.6299212598425197
        },
        {
          "duration": 1.2794118500000025,
          "durationTicks": 696,
          "midi": 70,
          "name": "A#4",
          "ticks": 38400,
          "time": 75.952645275,
          "velocity": 0.6299212598425197
        },
        {
          "duration": 1.2794118500000025,
          "durationTicks": 696,
          "midi": 73,
          "name": "C#5",
          "ticks": 38400,
          "time": 75.952645275,
          "velocity": 0.6299212598425197
        },
        {
          "duration": 0.3970588499999934,
          "durationTicks": 216,
          "midi": 72,
          "name": "C5",
          "ticks": 39120,
          "time": 77.276174775,
          "velocity": 0.6299212598425197
        },
        {
          "duration": 1.588235400000002,
          "durationTicks": 864,
          "midi": 63,
          "name": "D#4",
          "ticks": 39360,
          "time": 77.717351275,
          "velocity": 0.6299212598425197
        },
        {
          "duration": 1.588235400000002,
          "durationTicks": 864,
          "midi": 68,
          "name": "G#4",
          "ticks": 39360,
          "time": 77.717351275,
          "velocity": 0.6299212598425197
        },
        {
          "duration": 0.794117700000001,
          "durationTicks": 432,
          "midi": 70,
          "name": "A#4",
          "ticks": 40320,
          "time": 79.482057275,
          "velocity": 0.6299212598425197
        },
        {
          "duration": 0.794117700000001,
          "durationTicks": 432,
          "midi": 77,
          "name": "F5",
          "ticks": 40320,
          "time": 79.482057275,
          "velocity": 0.6299212598425197
        },
        {
          "duration": 0.7941177000000152,
          "durationTicks": 432,
          "midi": 70,
          "name": "A#4",
          "ticks": 40800,
          "time": 80.364410275,
          "velocity": 0.6299212598425197
        },
        {
          "duration": 0.794117700000001,
          "durationTicks": 432,
          "midi": 68,
          "name": "G#4",
          "ticks": 41280,
          "time": 81.246763275,
          "velocity": 0.6299212598425197
        },
        {
          "duration": 0.794117700000001,
          "durationTicks": 432,
          "midi": 75,
          "name": "D#5",
          "ticks": 41280,
          "time": 81.246763275,
          "velocity": 0.6299212598425197
        },
        {
          "duration": 0.794117700000001,
          "durationTicks": 432,
          "midi": 68,
          "name": "G#4",
          "ticks": 41760,
          "time": 82.129116275,
          "velocity": 0.6299212598425197
        },
        {
          "duration": 2.382353100000003,
          "durationTicks": 1296,
          "midi": 63,
          "name": "D#4",
          "ticks": 42240,
          "time": 83.011469275,
          "velocity": 0.6299212598425197
        },
        {
          "duration": 2.382353100000003,
          "durationTicks": 1296,
          "midi": 65,
          "name": "F4",
          "ticks": 42240,
          "time": 83.011469275,
          "velocity": 0.6299212598425197
        },
        {
          "duration": 2.382353100000003,
          "durationTicks": 1296,
          "midi": 68,
          "name": "G#4",
          "ticks": 42240,
          "time": 83.011469275,
          "velocity": 0.6299212598425197
        },
        {
          "duration": 0.7941177000000152,
          "durationTicks": 432,
          "midi": 68,
          "name": "G#4",
          "ticks": 43680,
          "time": 85.658528275,
          "velocity": 0.6299212598425197
        },
        {
          "duration": 1.5882353999999879,
          "durationTicks": 864,
          "midi": 67,
          "name": "G4",
          "ticks": 44160,
          "time": 86.540881275,
          "velocity": 0.6299212598425197
        },
        {
          "duration": 1.5882353999999879,
          "durationTicks": 864,
          "midi": 70,
          "name": "A#4",
          "ticks": 44160,
          "time": 86.540881275,
          "velocity": 0.6299212598425197
        },
        {
          "duration": 1.588235400000002,
          "durationTicks": 864,
          "midi": 69,
          "name": "A4",
          "ticks": 45120,
          "time": 88.305587275,
          "velocity": 0.6299212598425197
        },
        {
          "duration": 1.588235400000002,
          "durationTicks": 864,
          "midi": 72,
          "name": "C5",
          "ticks": 45120,
          "time": 88.305587275,
          "velocity": 0.6299212598425197
        },
        {
          "duration": 0.794117700000001,
          "durationTicks": 432,
          "midi": 58,
          "name": "A#3",
          "ticks": 46080,
          "time": 90.070293275,
          "velocity": 0.6299212598425197
        },
        {
          "duration": 0.794117700000001,
          "durationTicks": 432,
          "midi": 63,
          "name": "D#4",
          "ticks": 46080,
          "time": 90.070293275,
          "velocity": 0.6299212598425197
        },
        {
          "duration": 0.794117700000001,
          "durationTicks": 432,
          "midi": 68,
          "name": "G#4",
          "ticks": 46080,
          "time": 90.070293275,
          "velocity": 0.6299212598425197
        },
        {
          "duration": 0.794117700000001,
          "durationTicks": 432,
          "midi": 58,
          "name": "A#3",
          "ticks": 46560,
          "time": 90.952646275,
          "velocity": 0.6299212598425197
        },
        {
          "duration": 0.794117700000001,
          "durationTicks": 432,
          "midi": 63,
          "name": "D#4",
          "ticks": 46560,
          "time": 90.952646275,
          "velocity": 0.6299212598425197
        },
        {
          "duration": 0.794117700000001,
          "durationTicks": 432,
          "midi": 68,
          "name": "G#4",
          "ticks": 46560,
          "time": 90.952646275,
          "velocity": 0.6299212598425197
        },
        {
          "duration": 1.588235400000002,
          "durationTicks": 864,
          "midi": 61,
          "name": "C#4",
          "ticks": 47040,
          "time": 91.834999275,
          "velocity": 0.6299212598425197
        },
        {
          "duration": 1.588235400000002,
          "durationTicks": 864,
          "midi": 65,
          "name": "F4",
          "ticks": 47040,
          "time": 91.834999275,
          "velocity": 0.6299212598425197
        },
        {
          "duration": 1.588235400000002,
          "durationTicks": 864,
          "midi": 70,
          "name": "A#4",
          "ticks": 47040,
          "time": 91.834999275,
          "velocity": 0.6299212598425197
        },
        {
          "duration": 1.588235400000002,
          "durationTicks": 864,
          "midi": 61,
          "name": "C#4",
          "ticks": 47933,
          "time": 93.47654350208333,
          "velocity": 0.6299212598425197
        },
        {
          "duration": 1.5882353999999879,
          "durationTicks": 864,
          "midi": 63,
          "name": "D#4",
          "ticks": 47967,
          "time": 93.53904350625001,
          "velocity": 0.6299212598425197
        },
        {
          "duration": 1.5882353999999879,
          "durationTicks": 864,
          "midi": 68,
          "name": "G#4",
          "ticks": 48000,
          "time": 93.599705275,
          "velocity": 0.6299212598425197
        },
        {
          "duration": 1.5882353999999879,
          "durationTicks": 864,
          "midi": 56,
          "name": "G#3",
          "ticks": 48893,
          "time": 95.24124950208333,
          "velocity": 0.6299212598425197
        },
        {
          "duration": 1.588235400000002,
          "durationTicks": 864,
          "midi": 63,
          "name": "D#4",
          "ticks": 48927,
          "time": 95.30374950625,
          "velocity": 0.6299212598425197
        },
        {
          "duration": 1.588235400000002,
          "durationTicks": 864,
          "midi": 68,
          "name": "G#4",
          "ticks": 48960,
          "time": 95.364411275,
          "velocity": 0.6299212598425197
        },
        {
          "duration": 0.7941177000000152,
          "durationTicks": 432,
          "midi": 61,
          "name": "C#4",
          "ticks": 51840,
          "time": 100.65852927499999,
          "velocity": 0.6299212598425197
        },
        {
          "duration": 0.7941177000000152,
          "durationTicks": 432,
          "midi": 66,
          "name": "F#4",
          "ticks": 51840,
          "time": 100.65852927499999,
          "velocity": 0.6299212598425197
        },
        {
          "duration": 0.7941177000000152,
          "durationTicks": 432,
          "midi": 70,
          "name": "A#4",
          "ticks": 51840,
          "time": 100.65852927499999,
          "velocity": 0.6299212598425197
        },
        {
          "duration": 0.794117700000001,
          "durationTicks": 432,
          "midi": 61,
          "name": "C#4",
          "ticks": 52320,
          "time": 101.540882275,
          "velocity": 0.6299212598425197
        },
        {
          "duration": 0.794117700000001,
          "durationTicks": 432,
          "midi": 66,
          "name": "F#4",
          "ticks": 52320,
          "time": 101.540882275,
          "velocity": 0.6299212598425197
        },
        {
          "duration": 0.794117700000001,
          "durationTicks": 432,
          "midi": 70,
          "name": "A#4",
          "ticks": 52320,
          "time": 101.540882275,
          "velocity": 0.6299212598425197
        },
        {
          "duration": 0.794117700000001,
          "durationTicks": 432,
          "midi": 58,
          "name": "A#3",
          "ticks": 52733,
          "time": 102.30007350208334,
          "velocity": 0.6299212598425197
        },
        {
          "duration": 0.794117700000001,
          "durationTicks": 432,
          "midi": 60,
          "name": "C4",
          "ticks": 52755,
          "time": 102.34051468125,
          "velocity": 0.6299212598425197
        },
        {
          "duration": 0.794117700000001,
          "durationTicks": 432,
          "midi": 63,
          "name": "D#4",
          "ticks": 52778,
          "time": 102.38279409583333,
          "velocity": 0.6299212598425197
        },
        {
          "duration": 0.794117700000001,
          "durationTicks": 432,
          "midi": 68,
          "name": "G#4",
          "ticks": 52800,
          "time": 102.423235275,
          "velocity": 0.6299212598425197
        },
        {
          "duration": 0.794117700000001,
          "durationTicks": 432,
          "midi": 63,
          "name": "D#4",
          "ticks": 53280,
          "time": 103.305588275,
          "velocity": 0.6299212598425197
        },
        {
          "duration": 0.794117700000001,
          "durationTicks": 432,
          "midi": 68,
          "name": "G#4",
          "ticks": 53280,
          "time": 103.305588275,
          "velocity": 0.6299212598425197
        },
        {
          "duration": 1.588235400000002,
          "durationTicks": 864,
          "midi": 58,
          "name": "A#3",
          "ticks": 53760,
          "time": 104.187941275,
          "velocity": 0.6299212598425197
        },
        {
          "duration": 1.588235400000002,
          "durationTicks": 864,
          "midi": 61,
          "name": "C#4",
          "ticks": 53760,
          "time": 104.187941275,
          "velocity": 0.6299212598425197
        },
        {
          "duration": 1.5882353999999879,
          "durationTicks": 864,
          "midi": 68,
          "name": "G#4",
          "ticks": 54720,
          "time": 105.952647275,
          "velocity": 0.6299212598425197
        },
        {
          "duration": 0.7941177000000152,
          "durationTicks": 432,
          "midi": 61,
          "name": "C#4",
          "ticks": 55680,
          "time": 107.717353275,
          "velocity": 0.6299212598425197
        },
        {
          "duration": 0.7941177000000152,
          "durationTicks": 432,
          "midi": 66,
          "name": "F#4",
          "ticks": 55680,
          "time": 107.717353275,
          "velocity": 0.6299212598425197
        },
        {
          "duration": 0.7941177000000152,
          "durationTicks": 432,
          "midi": 70,
          "name": "A#4",
          "ticks": 55680,
          "time": 107.717353275,
          "velocity": 0.6299212598425197
        },
        {
          "duration": 0.794117700000001,
          "durationTicks": 432,
          "midi": 61,
          "name": "C#4",
          "ticks": 56160,
          "time": 108.599706275,
          "velocity": 0.6299212598425197
        },
        {
          "duration": 0.794117700000001,
          "durationTicks": 432,
          "midi": 66,
          "name": "F#4",
          "ticks": 56160,
          "time": 108.599706275,
          "velocity": 0.6299212598425197
        },
        {
          "duration": 0.794117700000001,
          "durationTicks": 432,
          "midi": 70,
          "name": "A#4",
          "ticks": 56160,
          "time": 108.599706275,
          "velocity": 0.6299212598425197
        },
        {
          "duration": 0.794117700000001,
          "durationTicks": 432,
          "midi": 60,
          "name": "C4",
          "ticks": 56640,
          "time": 109.482059275,
          "velocity": 0.6299212598425197
        },
        {
          "duration": 0.794117700000001,
          "durationTicks": 432,
          "midi": 63,
          "name": "D#4",
          "ticks": 56640,
          "time": 109.482059275,
          "velocity": 0.6299212598425197
        },
        {
          "duration": 0.794117700000001,
          "durationTicks": 432,
          "midi": 68,
          "name": "G#4",
          "ticks": 56640,
          "time": 109.482059275,
          "velocity": 0.6299212598425197
        },
        {
          "duration": 0.7941177000000152,
          "durationTicks": 432,
          "midi": 60,
          "name": "C4",
          "ticks": 57120,
          "time": 110.36441227499999,
          "velocity": 0.6299212598425197
        },
        {
          "duration": 0.7941177000000152,
          "durationTicks": 432,
          "midi": 63,
          "name": "D#4",
          "ticks": 57120,
          "time": 110.36441227499999,
          "velocity": 0.6299212598425197
        },
        {
          "duration": 0.7941177000000152,
          "durationTicks": 432,
          "midi": 68,
          "name": "G#4",
          "ticks": 57120,
          "time": 110.36441227499999,
          "velocity": 0.6299212598425197
        },
        {
          "duration": 0.794117700000001,
          "durationTicks": 432,
          "midi": 58,
          "name": "A#3",
          "ticks": 57600,
          "time": 111.246765275,
          "velocity": 0.6299212598425197
        },
        {
          "duration": 0.794117700000001,
          "durationTicks": 432,
          "midi": 61,
          "name": "C#4",
          "ticks": 57600,
          "time": 111.246765275,
          "velocity": 0.6299212598425197
        },
        {
          "duration": 0.794117700000001,
          "durationTicks": 432,
          "midi": 65,
          "name": "F4",
          "ticks": 57600,
          "time": 111.246765275,
          "velocity": 0.6299212598425197
        },
        {
          "duration": 0.794117700000001,
          "durationTicks": 432,
          "midi": 65,
          "name": "F4",
          "ticks": 58080,
          "time": 112.129118275,
          "velocity": 0.6299212598425197
        },
        {
          "duration": 0.794117700000001,
          "durationTicks": 432,
          "midi": 70,
          "name": "A#4",
          "ticks": 58080,
          "time": 112.129118275,
          "velocity": 0.6299212598425197
        },
        {
          "duration": 0.794117700000001,
          "durationTicks": 432,
          "midi": 73,
          "name": "C#5",
          "ticks": 58080,
          "time": 112.129118275,
          "velocity": 0.6299212598425197
        },
        {
          "duration": 0.794117700000001,
          "durationTicks": 432,
          "midi": 68,
          "name": "G#4",
          "ticks": 58560,
          "time": 113.011471275,
          "velocity": 0.6299212598425197
        },
        {
          "duration": 0.794117700000001,
          "durationTicks": 432,
          "midi": 72,
          "name": "C5",
          "ticks": 58560,
          "time": 113.011471275,
          "velocity": 0.6299212598425197
        },
        {
          "duration": 0.794117700000001,
          "durationTicks": 432,
          "midi": 63,
          "name": "D#4",
          "ticks": 59040,
          "time": 113.893824275,
          "velocity": 0.6299212598425197
        },
        {
          "duration": 0.794117700000001,
          "durationTicks": 432,
          "midi": 68,
          "name": "G#4",
          "ticks": 59040,
          "time": 113.893824275,
          "velocity": 0.6299212598425197
        },
        {
          "duration": 0.7941177000000152,
          "durationTicks": 432,
          "midi": 61,
          "name": "C#4",
          "ticks": 59520,
          "time": 114.776177275,
          "velocity": 0.6299212598425197
        },
        {
          "duration": 0.7941177000000152,
          "durationTicks": 432,
          "midi": 70,
          "name": "A#4",
          "ticks": 59520,
          "time": 114.776177275,
          "velocity": 0.6299212598425197
        },
        {
          "duration": 0.794117700000001,
          "durationTicks": 432,
          "midi": 61,
          "name": "C#4",
          "ticks": 60000,
          "time": 115.658530275,
          "velocity": 0.6299212598425197
        },
        {
          "duration": 0.794117700000001,
          "durationTicks": 432,
          "midi": 70,
          "name": "A#4",
          "ticks": 60000,
          "time": 115.658530275,
          "velocity": 0.6299212598425197
        },
        {
          "duration": 0.794117700000001,
          "durationTicks": 432,
          "midi": 63,
          "name": "D#4",
          "ticks": 60480,
          "time": 116.540883275,
          "velocity": 0.6299212598425197
        },
        {
          "duration": 0.794117700000001,
          "durationTicks": 432,
          "midi": 68,
          "name": "G#4",
          "ticks": 60480,
          "time": 116.540883275,
          "velocity": 0.6299212598425197
        },
        {
          "duration": 0.7941177000000152,
          "durationTicks": 432,
          "midi": 63,
          "name": "D#4",
          "ticks": 60960,
          "time": 117.423236275,
          "velocity": 0.6299212598425197
        },
        {
          "duration": 0.7941177000000152,
          "durationTicks": 432,
          "midi": 68,
          "name": "G#4",
          "ticks": 60960,
          "time": 117.423236275,
          "velocity": 0.6299212598425197
        },
        {
          "duration": 0.794117700000001,
          "durationTicks": 432,
          "midi": 61,
          "name": "C#4",
          "ticks": 61440,
          "time": 118.305589275,
          "velocity": 0.6299212598425197
        },
        {
          "duration": 0.794117700000001,
          "durationTicks": 432,
          "midi": 65,
          "name": "F4",
          "ticks": 61440,
          "time": 118.305589275,
          "velocity": 0.6299212598425197
        },
        {
          "duration": 0.794117700000001,
          "durationTicks": 432,
          "midi": 68,
          "name": "G#4",
          "ticks": 61440,
          "time": 118.305589275,
          "velocity": 0.6299212598425197
        },
        {
          "duration": 0.794117700000001,
          "durationTicks": 432,
          "midi": 65,
          "name": "F4",
          "ticks": 61920,
          "time": 119.187942275,
          "velocity": 0.6299212598425197
        },
        {
          "duration": 0.794117700000001,
          "durationTicks": 432,
          "midi": 68,
          "name": "G#4",
          "ticks": 61920,
          "time": 119.187942275,
          "velocity": 0.6299212598425197
        },
        {
          "duration": 1.588235400000002,
          "durationTicks": 864,
          "midi": 65,
          "name": "F4",
          "ticks": 62400,
          "time": 120.07029527499999,
          "velocity": 0.6299212598425197
        },
        {
          "duration": 1.588235400000002,
          "durationTicks": 864,
          "midi": 70,
          "name": "A#4",
          "ticks": 62400,
          "time": 120.07029527499999,
          "velocity": 0.6299212598425197
        },
        {
          "duration": 1.5882353999999879,
          "durationTicks": 864,
          "midi": 63,
          "name": "D#4",
          "ticks": 63293,
          "time": 121.71183950208334,
          "velocity": 0.6299212598425197
        },
        {
          "duration": 1.588235400000002,
          "durationTicks": 864,
          "midi": 66,
          "name": "F#4",
          "ticks": 63315,
          "time": 121.75228068125,
          "velocity": 0.6299212598425197
        },
        {
          "duration": 1.5882353999999879,
          "durationTicks": 864,
          "midi": 70,
          "name": "A#4",
          "ticks": 63338,
          "time": 121.79456009583333,
          "velocity": 0.6299212598425197
        },
        {
          "duration": 1.588235400000002,
          "durationTicks": 864,
          "midi": 73,
          "name": "C#5",
          "ticks": 63360,
          "time": 121.835001275,
          "velocity": 0.6299212598425197
        },
        {
          "duration": 1.588235400000002,
          "durationTicks": 864,
          "midi": 63,
          "name": "D#4",
          "ticks": 64253,
          "time": 123.47654550208333,
          "velocity": 0.6299212598425197
        },
        {
          "duration": 1.5882353999999879,
          "durationTicks": 864,
          "midi": 65,
          "name": "F4",
          "ticks": 64275,
          "time": 123.51698668125,
          "velocity": 0.6299212598425197
        },
        {
          "duration": 1.5882353999999879,
          "durationTicks": 864,
          "midi": 68,
          "name": "G#4",
          "ticks": 64298,
          "time": 123.55926609583334,
          "velocity": 0.6299212598425197
        },
        {
          "duration": 1.588235400000002,
          "durationTicks": 864,
          "midi": 72,
          "name": "C5",
          "ticks": 64320,
          "time": 123.599707275,
          "velocity": 0.6299212598425197
        },
        {
          "duration": 3.1764707999999757,
          "durationTicks": 1728,
          "midi": 61,
          "name": "C#4",
          "ticks": 65280,
          "time": 125.364413275,
          "velocity": 0.6299212598425197
        },
        {
          "duration": 3.1764707999999757,
          "durationTicks": 1728,
          "midi": 70,
          "name": "A#4",
          "ticks": 65280,
          "time": 125.364413275,
          "velocity": 0.6299212598425197
        },
        {
          "duration": 0.3970588500000076,
          "durationTicks": 216,
          "midi": 77,
          "name": "F5",
          "ticks": 67200,
          "time": 128.89382527499998,
          "velocity": 0.6299212598425197
        },
        {
          "duration": 0.3970588499999792,
          "durationTicks": 216,
          "midi": 75,
          "name": "D#5",
          "ticks": 67440,
          "time": 129.335001775,
          "velocity": 0.6299212598425197
        },
        {
          "duration": 0.3970588500000076,
          "durationTicks": 216,
          "midi": 77,
          "name": "F5",
          "ticks": 67680,
          "time": 129.77617827499998,
          "velocity": 0.6299212598425197
        },
        {
          "duration": 0.3970588499999792,
          "durationTicks": 216,
          "midi": 82,
          "name": "A#5",
          "ticks": 67920,
          "time": 130.217354775,
          "velocity": 0.6299212598425197
        },
        {
          "duration": 0.3970588499999792,
          "durationTicks": 216,
          "midi": 77,
          "name": "F5",
          "ticks": 68160,
          "time": 130.658531275,
          "velocity": 0.6299212598425197
        },
        {
          "duration": 0.3970588500000076,
          "durationTicks": 216,
          "midi": 75,
          "name": "D#5",
          "ticks": 68400,
          "time": 131.09970777499998,
          "velocity": 0.6299212598425197
        },
        {
          "duration": 0.3970588499999792,
          "durationTicks": 216,
          "midi": 77,
          "name": "F5",
          "ticks": 68640,
          "time": 131.540884275,
          "velocity": 0.6299212598425197
        },
        {
          "duration": 0.3970588500000076,
          "durationTicks": 216,
          "midi": 84,
          "name": "C6",
          "ticks": 68880,
          "time": 131.98206077499998,
          "velocity": 0.6299212598425197
        },
        {
          "duration": 0.3970588499999792,
          "durationTicks": 216,
          "midi": 77,
          "name": "F5",
          "ticks": 69120,
          "time": 132.423237275,
          "velocity": 0.6299212598425197
        },
        {
          "duration": 0.3970588499999792,
          "durationTicks": 216,
          "midi": 75,
          "name": "D#5",
          "ticks": 69360,
          "time": 132.864413775,
          "velocity": 0.6299212598425197
        },
        {
          "duration": 0.3970588500000076,
          "durationTicks": 216,
          "midi": 77,
          "name": "F5",
          "ticks": 69600,
          "time": 133.305590275,
          "velocity": 0.6299212598425197
        },
        {
          "duration": 0.3970588499999792,
          "durationTicks": 216,
          "midi": 85,
          "name": "C#6",
          "ticks": 69840,
          "time": 133.746766775,
          "velocity": 0.6299212598425197
        },
        {
          "duration": 0.7941177000000152,
          "durationTicks": 432,
          "midi": 75,
          "name": "D#5",
          "ticks": 70080,
          "time": 134.18794327499998,
          "velocity": 0.6299212598425197
        },
        {
          "duration": 0.7941177000000152,
          "durationTicks": 432,
          "midi": 84,
          "name": "C6",
          "ticks": 70080,
          "time": 134.18794327499998,
          "velocity": 0.6299212598425197
        },
        {
          "duration": 0.7941176999999868,
          "durationTicks": 432,
          "midi": 72,
          "name": "C5",
          "ticks": 70560,
          "time": 135.070296275,
          "velocity": 0.6299212598425197
        },
        {
          "duration": 0.7941176999999868,
          "durationTicks": 432,
          "midi": 80,
          "name": "G#5",
          "ticks": 70560,
          "time": 135.070296275,
          "velocity": 0.6299212598425197
        },
        {
          "duration": 0.3970588500000076,
          "durationTicks": 216,
          "midi": 70,
          "name": "A#4",
          "ticks": 70950,
          "time": 135.78720808749998,
          "velocity": 0.6299212598425197
        },
        {
          "duration": 0.3970588499999792,
          "durationTicks": 216,
          "midi": 75,
          "name": "D#5",
          "ticks": 70980,
          "time": 135.84235515,
          "velocity": 0.6299212598425197
        },
        {
          "duration": 0.3970588499999792,
          "durationTicks": 216,
          "midi": 77,
          "name": "F5",
          "ticks": 71010,
          "time": 135.8975022125,
          "velocity": 0.6299212598425197
        },
        {
          "duration": 0.3970588500000076,
          "durationTicks": 216,
          "midi": 75,
          "name": "D#5",
          "ticks": 71280,
          "time": 136.39382577499998,
          "velocity": 0.6299212598425197
        },
        {
          "duration": 0.3970588499999792,
          "durationTicks": 216,
          "midi": 77,
          "name": "F5",
          "ticks": 71520,
          "time": 136.835002275,
          "velocity": 0.6299212598425197
        },
        {
          "duration": 0.3970588500000076,
          "durationTicks": 216,
          "midi": 82,
          "name": "A#5",
          "ticks": 71760,
          "time": 137.27617877499998,
          "velocity": 0.6299212598425197
        },
        {
          "duration": 0.3970588499999792,
          "durationTicks": 216,
          "midi": 77,
          "name": "F5",
          "ticks": 72000,
          "time": 137.717355275,
          "velocity": 0.6299212598425197
        },
        {
          "duration": 0.3970588499999792,
          "durationTicks": 216,
          "midi": 75,
          "name": "D#5",
          "ticks": 72240,
          "time": 138.158531775,
          "velocity": 0.6299212598425197
        },
        {
          "duration": 0.3970588500000076,
          "durationTicks": 216,
          "midi": 77,
          "name": "F5",
          "ticks": 72480,
          "time": 138.59970827499998,
          "velocity": 0.6299212598425197
        },
        {
          "duration": 0.3970588499999792,
          "durationTicks": 216,
          "midi": 84,
          "name": "C6",
          "ticks": 72720,
          "time": 139.040884775,
          "velocity": 0.6299212598425197
        },
        {
          "duration": 1.5882354000000305,
          "durationTicks": 864,
          "midi": 80,
          "name": "G#5",
          "ticks": 72960,
          "time": 139.48206127499998,
          "velocity": 0.6299212598425197
        },
        {
          "duration": 3.1764707999999757,
          "durationTicks": 1728,
          "midi": 61,
          "name": "C#4",
          "ticks": 82480,
          "time": 156.98206244166667,
          "velocity": 0.6299212598425197
        },
        {
          "duration": 3.176470800000004,
          "durationTicks": 1728,
          "midi": 66,
          "name": "F#4",
          "ticks": 82520,
          "time": 157.05559185833332,
          "velocity": 0.6299212598425197
        },
        {
          "duration": 3.1764707999999757,
          "durationTicks": 1728,
          "midi": 73,
          "name": "C#5",
          "ticks": 82560,
          "time": 157.129121275,
          "velocity": 0.6299212598425197
        },
        {
          "duration": 3.176470800000004,
          "durationTicks": 1728,
          "midi": 68,
          "name": "G#4",
          "ticks": 84360,
          "time": 160.43794502499998,
          "velocity": 0.6299212598425197
        },
        {
          "duration": 3.176470800000004,
          "durationTicks": 1728,
          "midi": 73,
          "name": "C#5",
          "ticks": 84400,
          "time": 160.51147444166665,
          "velocity": 0.6299212598425197
        },
        {
          "duration": 3.1764708000000326,
          "durationTicks": 1728,
          "midi": 80,
          "name": "G#5",
          "ticks": 84440,
          "time": 160.5850038583333,
          "velocity": 0.6299212598425197
        },
        {
          "duration": 1.588235400000002,
          "durationTicks": 864,
          "midi": 66,
          "name": "F#4",
          "ticks": 86400,
          "time": 164.18794527499998,
          "velocity": 0.6299212598425197
        },
        {
          "duration": 1.5882354000000305,
          "durationTicks": 864,
          "midi": 70,
          "name": "A#4",
          "ticks": 86445,
          "time": 164.27066586874997,
          "velocity": 0.6299212598425197
        },
        {
          "duration": 1.5882354000000305,
          "durationTicks": 864,
          "midi": 73,
          "name": "C#5",
          "ticks": 86490,
          "time": 164.35338646249997,
          "velocity": 0.6299212598425197
        },
        {
          "duration": 1.588235400000002,
          "durationTicks": 864,
          "midi": 75,
          "name": "D#5",
          "ticks": 86535,
          "time": 164.43610705625,
          "velocity": 0.6299212598425197
        },
        {
          "duration": 1.588235400000002,
          "durationTicks": 864,
          "midi": 68,
          "name": "G#4",
          "ticks": 87360,
          "time": 165.952651275,
          "velocity": 0.6299212598425197
        },
        {
          "duration": 1.588235400000002,
          "durationTicks": 864,
          "midi": 72,
          "name": "C5",
          "ticks": 87360,
          "time": 165.952651275,
          "velocity": 0.6299212598425197
        },
        {
          "duration": 1.588235400000002,
          "durationTicks": 864,
          "midi": 75,
          "name": "D#5",
          "ticks": 87360,
          "time": 165.952651275,
          "velocity": 0.6299212598425197
        },
        {
          "duration": 1.2794118500000025,
          "durationTicks": 696,
          "midi": 68,
          "name": "G#4",
          "ticks": 90150,
          "time": 171.08132808749997,
          "velocity": 0.6299212598425197
        },
        {
          "duration": 1.2794118500000025,
          "durationTicks": 696,
          "midi": 70,
          "name": "A#4",
          "ticks": 90180,
          "time": 171.13647514999997,
          "velocity": 0.6299212598425197
        },
        {
          "duration": 1.279411849999974,
          "durationTicks": 696,
          "midi": 77,
          "name": "F5",
          "ticks": 90210,
          "time": 171.1916222125,
          "velocity": 0.6299212598425197
        },
        {
          "duration": 0.3970588500000076,
          "durationTicks": 216,
          "midi": 70,
          "name": "A#4",
          "ticks": 90960,
          "time": 172.57029877499997,
          "velocity": 0.6299212598425197
        },
        {
          "duration": 0.7941177000000152,
          "durationTicks": 432,
          "midi": 68,
          "name": "G#4",
          "ticks": 91200,
          "time": 173.01147527499998,
          "velocity": 0.6299212598425197
        },
        {
          "duration": 0.7941177000000152,
          "durationTicks": 432,
          "midi": 72,
          "name": "C5",
          "ticks": 91200,
          "time": 173.01147527499998,
          "velocity": 0.6299212598425197
        },
        {
          "duration": 0.7941177000000152,
          "durationTicks": 432,
          "midi": 63,
          "name": "D#4",
          "ticks": 91680,
          "time": 173.89382827499998,
          "velocity": 0.6299212598425197
        },
        {
          "duration": 0.7941177000000152,
          "durationTicks": 432,
          "midi": 68,
          "name": "G#4",
          "ticks": 91680,
          "time": 173.89382827499998,
          "velocity": 0.6299212598425197
        },
        {
          "duration": 1.5882354000000305,
          "durationTicks": 864,
          "midi": 70,
          "name": "A#4",
          "ticks": 92160,
          "time": 174.77618127499997,
          "velocity": 0.6299212598425197
        },
        {
          "duration": 1.5882354000000305,
          "durationTicks": 864,
          "midi": 73,
          "name": "C#5",
          "ticks": 92160,
          "time": 174.77618127499997,
          "velocity": 0.6299212598425197
        },
        {
          "duration": 1.588235400000002,
          "durationTicks": 864,
          "midi": 63,
          "name": "D#4",
          "ticks": 93120,
          "time": 176.540887275,
          "velocity": 0.6299212598425197
        },
        {
          "duration": 1.588235400000002,
          "durationTicks": 864,
          "midi": 68,
          "name": "G#4",
          "ticks": 93120,
          "time": 176.540887275,
          "velocity": 0.6299212598425197
        },
        {
          "duration": 1.2794118500000025,
          "durationTicks": 696,
          "midi": 70,
          "name": "A#4",
          "ticks": 94080,
          "time": 178.30559327499998,
          "velocity": 0.6299212598425197
        },
        {
          "duration": 1.2794118500000025,
          "durationTicks": 696,
          "midi": 77,
          "name": "F5",
          "ticks": 94080,
          "time": 178.30559327499998,
          "velocity": 0.6299212598425197
        },
        {
          "duration": 0.3970588499999792,
          "durationTicks": 216,
          "midi": 70,
          "name": "A#4",
          "ticks": 94800,
          "time": 179.62912277499998,
          "velocity": 0.6299212598425197
        },
        {
          "duration": 0.7941177000000152,
          "durationTicks": 432,
          "midi": 68,
          "name": "G#4",
          "ticks": 95040,
          "time": 180.07029927499997,
          "velocity": 0.6299212598425197
        },
        {
          "duration": 0.7941177000000152,
          "durationTicks": 432,
          "midi": 75,
          "name": "D#5",
          "ticks": 95040,
          "time": 180.07029927499997,
          "velocity": 0.6299212598425197
        },
        {
          "duration": 0.7941176999999868,
          "durationTicks": 432,
          "midi": 68,
          "name": "G#4",
          "ticks": 95520,
          "time": 180.952652275,
          "velocity": 0.6299212598425197
        },
        {
          "duration": 2.382353099999989,
          "durationTicks": 1296,
          "midi": 63,
          "name": "D#4",
          "ticks": 96000,
          "time": 181.835005275,
          "velocity": 0.6299212598425197
        },
        {
          "duration": 2.382353099999989,
          "durationTicks": 1296,
          "midi": 65,
          "name": "F4",
          "ticks": 96000,
          "time": 181.835005275,
          "velocity": 0.6299212598425197
        },
        {
          "duration": 2.382353099999989,
          "durationTicks": 1296,
          "midi": 68,
          "name": "G#4",
          "ticks": 96000,
          "time": 181.835005275,
          "velocity": 0.6299212598425197
        },
        {
          "duration": 0.7941177000000152,
          "durationTicks": 432,
          "midi": 68,
          "name": "G#4",
          "ticks": 97440,
          "time": 184.48206427499997,
          "velocity": 0.6299212598425197
        },
        {
          "duration": 1.5882354000000305,
          "durationTicks": 864,
          "midi": 67,
          "name": "G4",
          "ticks": 97920,
          "time": 185.36441727499997,
          "velocity": 0.6299212598425197
        },
        {
          "duration": 1.5882354000000305,
          "durationTicks": 864,
          "midi": 70,
          "name": "A#4",
          "ticks": 97920,
          "time": 185.36441727499997,
          "velocity": 0.6299212598425197
        },
        {
          "duration": 1.588235400000002,
          "durationTicks": 864,
          "midi": 69,
          "name": "A4",
          "ticks": 98880,
          "time": 187.12912327499998,
          "velocity": 0.6299212598425197
        },
        {
          "duration": 1.588235400000002,
          "durationTicks": 864,
          "midi": 72,
          "name": "C5",
          "ticks": 98880,
          "time": 187.12912327499998,
          "velocity": 0.6299212598425197
        },
        {
          "duration": 0.7941177000000152,
          "durationTicks": 432,
          "midi": 58,
          "name": "A#3",
          "ticks": 99840,
          "time": 188.89382927499997,
          "velocity": 0.6299212598425197
        },
        {
          "duration": 0.7941177000000152,
          "durationTicks": 432,
          "midi": 63,
          "name": "D#4",
          "ticks": 99840,
          "time": 188.89382927499997,
          "velocity": 0.6299212598425197
        },
        {
          "duration": 0.7941177000000152,
          "durationTicks": 432,
          "midi": 68,
          "name": "G#4",
          "ticks": 99840,
          "time": 188.89382927499997,
          "velocity": 0.6299212598425197
        },
        {
          "duration": 0.7941177000000152,
          "durationTicks": 432,
          "midi": 58,
          "name": "A#3",
          "ticks": 100320,
          "time": 189.77618227499997,
          "velocity": 0.6299212598425197
        },
        {
          "duration": 0.7941177000000152,
          "durationTicks": 432,
          "midi": 63,
          "name": "D#4",
          "ticks": 100320,
          "time": 189.77618227499997,
          "velocity": 0.6299212598425197
        },
        {
          "duration": 0.7941177000000152,
          "durationTicks": 432,
          "midi": 68,
          "name": "G#4",
          "ticks": 100320,
          "time": 189.77618227499997,
          "velocity": 0.6299212598425197
        },
        {
          "duration": 1.588235400000002,
          "durationTicks": 864,
          "midi": 61,
          "name": "C#4",
          "ticks": 100800,
          "time": 190.658535275,
          "velocity": 0.6299212598425197
        },
        {
          "duration": 1.588235400000002,
          "durationTicks": 864,
          "midi": 65,
          "name": "F4",
          "ticks": 100800,
          "time": 190.658535275,
          "velocity": 0.6299212598425197
        },
        {
          "duration": 1.588235400000002,
          "durationTicks": 864,
          "midi": 70,
          "name": "A#4",
          "ticks": 100800,
          "time": 190.658535275,
          "velocity": 0.6299212598425197
        },
        {
          "duration": 1.588235400000002,
          "durationTicks": 864,
          "midi": 61,
          "name": "C#4",
          "ticks": 101693,
          "time": 192.30007950208332,
          "velocity": 0.6299212598425197
        },
        {
          "duration": 1.588235400000002,
          "durationTicks": 864,
          "midi": 63,
          "name": "D#4",
          "ticks": 101727,
          "time": 192.36257950624997,
          "velocity": 0.6299212598425197
        },
        {
          "duration": 1.588235400000002,
          "durationTicks": 864,
          "midi": 68,
          "name": "G#4",
          "ticks": 101760,
          "time": 192.42324127499998,
          "velocity": 0.6299212598425197
        },
        {
          "duration": 1.588235400000002,
          "durationTicks": 864,
          "midi": 56,
          "name": "G#3",
          "ticks": 102653,
          "time": 194.0647855020833,
          "velocity": 0.6299212598425197
        },
        {
          "duration": 1.5882353999999737,
          "durationTicks": 864,
          "midi": 63,
          "name": "D#4",
          "ticks": 102687,
          "time": 194.12728550625,
          "velocity": 0.6299212598425197
        },
        {
          "duration": 1.5882354000000305,
          "durationTicks": 864,
          "midi": 68,
          "name": "G#4",
          "ticks": 102720,
          "time": 194.18794727499997,
          "velocity": 0.6299212598425197
        },
        {
          "duration": 0.7941177000000152,
          "durationTicks": 432,
          "midi": 61,
          "name": "C#4",
          "ticks": 105600,
          "time": 199.48206527499997,
          "velocity": 0.6299212598425197
        },
        {
          "duration": 0.7941177000000152,
          "durationTicks": 432,
          "midi": 66,
          "name": "F#4",
          "ticks": 105600,
          "time": 199.48206527499997,
          "velocity": 0.6299212598425197
        },
        {
          "duration": 0.7941177000000152,
          "durationTicks": 432,
          "midi": 70,
          "name": "A#4",
          "ticks": 105600,
          "time": 199.48206527499997,
          "velocity": 0.6299212598425197
        },
        {
          "duration": 0.7941176999999868,
          "durationTicks": 432,
          "midi": 61,
          "name": "C#4",
          "ticks": 106080,
          "time": 200.364418275,
          "velocity": 0.6299212598425197
        },
        {
          "duration": 0.7941176999999868,
          "durationTicks": 432,
          "midi": 66,
          "name": "F#4",
          "ticks": 106080,
          "time": 200.364418275,
          "velocity": 0.6299212598425197
        },
        {
          "duration": 0.7941176999999868,
          "durationTicks": 432,
          "midi": 70,
          "name": "A#4",
          "ticks": 106080,
          "time": 200.364418275,
          "velocity": 0.6299212598425197
        },
        {
          "duration": 0.7941176999999868,
          "durationTicks": 432,
          "midi": 58,
          "name": "A#3",
          "ticks": 106493,
          "time": 201.12360950208333,
          "velocity": 0.6299212598425197
        },
        {
          "duration": 0.7941176999999868,
          "durationTicks": 432,
          "midi": 60,
          "name": "C4",
          "ticks": 106515,
          "time": 201.16405068125,
          "velocity": 0.6299212598425197
        },
        {
          "duration": 0.7941176999999868,
          "durationTicks": 432,
          "midi": 63,
          "name": "D#4",
          "ticks": 106538,
          "time": 201.20633009583332,
          "velocity": 0.6299212598425197
        },
        {
          "duration": 0.7941176999999868,
          "durationTicks": 432,
          "midi": 68,
          "name": "G#4",
          "ticks": 106560,
          "time": 201.246771275,
          "velocity": 0.6299212598425197
        },
        {
          "duration": 0.7941177000000152,
          "durationTicks": 432,
          "midi": 63,
          "name": "D#4",
          "ticks": 107040,
          "time": 202.12912427499998,
          "velocity": 0.6299212598425197
        },
        {
          "duration": 0.7941177000000152,
          "durationTicks": 432,
          "midi": 68,
          "name": "G#4",
          "ticks": 107040,
          "time": 202.12912427499998,
          "velocity": 0.6299212598425197
        },
        {
          "duration": 1.588235400000002,
          "durationTicks": 864,
          "midi": 58,
          "name": "A#3",
          "ticks": 107520,
          "time": 203.01147727499998,
          "velocity": 0.6299212598425197
        },
        {
          "duration": 1.588235400000002,
          "durationTicks": 864,
          "midi": 61,
          "name": "C#4",
          "ticks": 107520,
          "time": 203.01147727499998,
          "velocity": 0.6299212598425197
        },
        {
          "duration": 1.5882354000000305,
          "durationTicks": 864,
          "midi": 68,
          "name": "G#4",
          "ticks": 108480,
          "time": 204.77618327499997,
          "velocity": 0.6299212598425197
        },
        {
          "duration": 0.7941176999999868,
          "durationTicks": 432,
          "midi": 61,
          "name": "C#4",
          "ticks": 109440,
          "time": 206.54088927499998,
          "velocity": 0.6299212598425197
        },
        {
          "duration": 0.7941176999999868,
          "durationTicks": 432,
          "midi": 66,
          "name": "F#4",
          "ticks": 109440,
          "time": 206.54088927499998,
          "velocity": 0.6299212598425197
        },
        {
          "duration": 0.7941176999999868,
          "durationTicks": 432,
          "midi": 70,
          "name": "A#4",
          "ticks": 109440,
          "time": 206.54088927499998,
          "velocity": 0.6299212598425197
        },
        {
          "duration": 0.7941177000000152,
          "durationTicks": 432,
          "midi": 61,
          "name": "C#4",
          "ticks": 109920,
          "time": 207.42324227499998,
          "velocity": 0.6299212598425197
        },
        {
          "duration": 0.7941177000000152,
          "durationTicks": 432,
          "midi": 66,
          "name": "F#4",
          "ticks": 109920,
          "time": 207.42324227499998,
          "velocity": 0.6299212598425197
        },
        {
          "duration": 0.7941177000000152,
          "durationTicks": 432,
          "midi": 70,
          "name": "A#4",
          "ticks": 109920,
          "time": 207.42324227499998,
          "velocity": 0.6299212598425197
        },
        {
          "duration": 0.7941177000000152,
          "durationTicks": 432,
          "midi": 60,
          "name": "C4",
          "ticks": 110400,
          "time": 208.30559527499997,
          "velocity": 0.6299212598425197
        },
        {
          "duration": 0.7941177000000152,
          "durationTicks": 432,
          "midi": 63,
          "name": "D#4",
          "ticks": 110400,
          "time": 208.30559527499997,
          "velocity": 0.6299212598425197
        },
        {
          "duration": 0.7941177000000152,
          "durationTicks": 432,
          "midi": 68,
          "name": "G#4",
          "ticks": 110400,
          "time": 208.30559527499997,
          "velocity": 0.6299212598425197
        },
        {
          "duration": 0.7941177000000152,
          "durationTicks": 432,
          "midi": 60,
          "name": "C4",
          "ticks": 110880,
          "time": 209.18794827499997,
          "velocity": 0.6299212598425197
        },
        {
          "duration": 0.7941177000000152,
          "durationTicks": 432,
          "midi": 63,
          "name": "D#4",
          "ticks": 110880,
          "time": 209.18794827499997,
          "velocity": 0.6299212598425197
        },
        {
          "duration": 0.7941177000000152,
          "durationTicks": 432,
          "midi": 68,
          "name": "G#4",
          "ticks": 110880,
          "time": 209.18794827499997,
          "velocity": 0.6299212598425197
        },
        {
          "duration": 0.7941176999999868,
          "durationTicks": 432,
          "midi": 58,
          "name": "A#3",
          "ticks": 111360,
          "time": 210.070301275,
          "velocity": 0.6299212598425197
        },
        {
          "duration": 0.7941176999999868,
          "durationTicks": 432,
          "midi": 61,
          "name": "C#4",
          "ticks": 111360,
          "time": 210.070301275,
          "velocity": 0.6299212598425197
        },
        {
          "duration": 0.7941176999999868,
          "durationTicks": 432,
          "midi": 65,
          "name": "F4",
          "ticks": 111360,
          "time": 210.070301275,
          "velocity": 0.6299212598425197
        },
        {
          "duration": 0.7941176999999868,
          "durationTicks": 432,
          "midi": 65,
          "name": "F4",
          "ticks": 111840,
          "time": 210.952654275,
          "velocity": 0.6299212598425197
        },
        {
          "duration": 0.7941176999999868,
          "durationTicks": 432,
          "midi": 70,
          "name": "A#4",
          "ticks": 111840,
          "time": 210.952654275,
          "velocity": 0.6299212598425197
        },
        {
          "duration": 0.7941176999999868,
          "durationTicks": 432,
          "midi": 73,
          "name": "C#5",
          "ticks": 111840,
          "time": 210.952654275,
          "velocity": 0.6299212598425197
        },
        {
          "duration": 0.7941177000000152,
          "durationTicks": 432,
          "midi": 68,
          "name": "G#4",
          "ticks": 112320,
          "time": 211.83500727499998,
          "velocity": 0.6299212598425197
        },
        {
          "duration": 0.7941177000000152,
          "durationTicks": 432,
          "midi": 72,
          "name": "C5",
          "ticks": 112320,
          "time": 211.83500727499998,
          "velocity": 0.6299212598425197
        },
        {
          "duration": 0.7941177000000152,
          "durationTicks": 432,
          "midi": 63,
          "name": "D#4",
          "ticks": 112800,
          "time": 212.71736027499998,
          "velocity": 0.6299212598425197
        },
        {
          "duration": 0.7941177000000152,
          "durationTicks": 432,
          "midi": 68,
          "name": "G#4",
          "ticks": 112800,
          "time": 212.71736027499998,
          "velocity": 0.6299212598425197
        },
        {
          "duration": 0.7941177000000152,
          "durationTicks": 432,
          "midi": 61,
          "name": "C#4",
          "ticks": 113280,
          "time": 213.59971327499997,
          "velocity": 0.6299212598425197
        },
        {
          "duration": 0.7941177000000152,
          "durationTicks": 432,
          "midi": 70,
          "name": "A#4",
          "ticks": 113280,
          "time": 213.59971327499997,
          "velocity": 0.6299212598425197
        },
        {
          "duration": 0.7941177000000152,
          "durationTicks": 432,
          "midi": 61,
          "name": "C#4",
          "ticks": 113760,
          "time": 214.48206627499997,
          "velocity": 0.6299212598425197
        },
        {
          "duration": 0.7941177000000152,
          "durationTicks": 432,
          "midi": 70,
          "name": "A#4",
          "ticks": 113760,
          "time": 214.48206627499997,
          "velocity": 0.6299212598425197
        },
        {
          "duration": 0.7941176999999868,
          "durationTicks": 432,
          "midi": 63,
          "name": "D#4",
          "ticks": 114240,
          "time": 215.364419275,
          "velocity": 0.6299212598425197
        },
        {
          "duration": 0.7941176999999868,
          "durationTicks": 432,
          "midi": 68,
          "name": "G#4",
          "ticks": 114240,
          "time": 215.364419275,
          "velocity": 0.6299212598425197
        },
        {
          "duration": 0.7941176999999868,
          "durationTicks": 432,
          "midi": 63,
          "name": "D#4",
          "ticks": 114720,
          "time": 216.24677227499998,
          "velocity": 0.6299212598425197
        },
        {
          "duration": 0.7941176999999868,
          "durationTicks": 432,
          "midi": 68,
          "name": "G#4",
          "ticks": 114720,
          "time": 216.24677227499998,
          "velocity": 0.6299212598425197
        },
        {
          "duration": 0.7941177000000152,
          "durationTicks": 432,
          "midi": 61,
          "name": "C#4",
          "ticks": 115200,
          "time": 217.12912527499998,
          "velocity": 0.6299212598425197
        },
        {
          "duration": 0.7941177000000152,
          "durationTicks": 432,
          "midi": 65,
          "name": "F4",
          "ticks": 115200,
          "time": 217.12912527499998,
          "velocity": 0.6299212598425197
        },
        {
          "duration": 0.7941177000000152,
          "durationTicks": 432,
          "midi": 68,
          "name": "G#4",
          "ticks": 115200,
          "time": 217.12912527499998,
          "velocity": 0.6299212598425197
        },
        {
          "duration": 0.7941177000000152,
          "durationTicks": 432,
          "midi": 65,
          "name": "F4",
          "ticks": 115680,
          "time": 218.01147827499997,
          "velocity": 0.6299212598425197
        },
        {
          "duration": 0.7941177000000152,
          "durationTicks": 432,
          "midi": 68,
          "name": "G#4",
          "ticks": 115680,
          "time": 218.01147827499997,
          "velocity": 0.6299212598425197
        },
        {
          "duration": 1.5882354000000305,
          "durationTicks": 864,
          "midi": 65,
          "name": "F4",
          "ticks": 116160,
          "time": 218.89383127499997,
          "velocity": 0.6299212598425197
        },
        {
          "duration": 1.5882354000000305,
          "durationTicks": 864,
          "midi": 70,
          "name": "A#4",
          "ticks": 116160,
          "time": 218.89383127499997,
          "velocity": 0.6299212598425197
        },
        {
          "duration": 1.5882353999999737,
          "durationTicks": 864,
          "midi": 63,
          "name": "D#4",
          "ticks": 117023,
          "time": 220.48022843958333,
          "velocity": 0.6299212598425197
        },
        {
          "duration": 1.588235400000002,
          "durationTicks": 864,
          "midi": 66,
          "name": "F#4",
          "ticks": 117055,
          "time": 220.53905197291664,
          "velocity": 0.6299212598425197
        },
        {
          "duration": 1.5882353999999737,
          "durationTicks": 864,
          "midi": 70,
          "name": "A#4",
          "ticks": 117088,
          "time": 220.59971374166665,
          "velocity": 0.6299212598425197
        },
        {
          "duration": 1.588235400000002,
          "durationTicks": 864,
          "midi": 73,
          "name": "C#5",
          "ticks": 117120,
          "time": 220.658537275,
          "velocity": 0.6299212598425197
        },
        {
          "duration": 1.588235400000002,
          "durationTicks": 864,
          "midi": 63,
          "name": "D#4",
          "ticks": 117983,
          "time": 222.24493443958332,
          "velocity": 0.6299212598425197
        },
        {
          "duration": 1.5882353999999737,
          "durationTicks": 864,
          "midi": 65,
          "name": "F4",
          "ticks": 118015,
          "time": 222.30375797291666,
          "velocity": 0.6299212598425197
        },
        {
          "duration": 1.588235400000002,
          "durationTicks": 864,
          "midi": 68,
          "name": "G#4",
          "ticks": 118048,
          "time": 222.36441974166664,
          "velocity": 0.6299212598425197
        },
        {
          "duration": 1.588235400000002,
          "durationTicks": 864,
          "midi": 72,
          "name": "C5",
          "ticks": 118080,
          "time": 222.42324327499998,
          "velocity": 0.6299212598425197
        },
        {
          "duration": 0.1985294250000038,
          "durationTicks": 108,
          "midi": 77,
          "name": "F5",
          "ticks": 119040,
          "time": 224.18794927499997,
          "velocity": 0.6299212598425197
        },
        {
          "duration": 0.1985294249999754,
          "durationTicks": 108,
          "midi": 70,
          "name": "A#4",
          "ticks": 119160,
          "time": 224.40853752499999,
          "velocity": 0.6299212598425197
        },
        {
          "duration": 0.1985294250000038,
          "durationTicks": 108,
          "midi": 75,
          "name": "D#5",
          "ticks": 119280,
          "time": 224.62912577499998,
          "velocity": 0.6299212598425197
        },
        {
          "duration": 0.1985294250000038,
          "durationTicks": 108,
          "midi": 77,
          "name": "F5",
          "ticks": 119400,
          "time": 224.84971402499997,
          "velocity": 0.6299212598425197
        },
        {
          "duration": 0.1985294249999754,
          "durationTicks": 108,
          "midi": 82,
          "name": "A#5",
          "ticks": 119520,
          "time": 225.070302275,
          "velocity": 0.6299212598425197
        },
        {
          "duration": 0.1985294250000038,
          "durationTicks": 108,
          "midi": 77,
          "name": "F5",
          "ticks": 119640,
          "time": 225.29089052499998,
          "velocity": 0.6299212598425197
        },
        {
          "duration": 0.1985294250000038,
          "durationTicks": 108,
          "midi": 75,
          "name": "D#5",
          "ticks": 119760,
          "time": 225.51147877499997,
          "velocity": 0.6299212598425197
        },
        {
          "duration": 0.1985294250000038,
          "durationTicks": 108,
          "midi": 70,
          "name": "A#4",
          "ticks": 119880,
          "time": 225.73206702499996,
          "velocity": 0.6299212598425197
        },
        {
          "duration": 0.1985294249999754,
          "durationTicks": 108,
          "midi": 77,
          "name": "F5",
          "ticks": 120000,
          "time": 225.95265527499998,
          "velocity": 0.6299212598425197
        },
        {
          "duration": 0.1985294250000038,
          "durationTicks": 108,
          "midi": 70,
          "name": "A#4",
          "ticks": 120120,
          "time": 226.17324352499998,
          "velocity": 0.6299212598425197
        },
        {
          "duration": 0.1985294250000038,
          "durationTicks": 108,
          "midi": 75,
          "name": "D#5",
          "ticks": 120240,
          "time": 226.39383177499997,
          "velocity": 0.6299212598425197
        },
        {
          "duration": 0.1985294249999754,
          "durationTicks": 108,
          "midi": 77,
          "name": "F5",
          "ticks": 120360,
          "time": 226.614420025,
          "velocity": 0.6299212598425197
        },
        {
          "duration": 0.1985294250000038,
          "durationTicks": 108,
          "midi": 82,
          "name": "A#5",
          "ticks": 120480,
          "time": 226.83500827499998,
          "velocity": 0.6299212598425197
        },
        {
          "duration": 0.1985294250000038,
          "durationTicks": 108,
          "midi": 77,
          "name": "F5",
          "ticks": 120600,
          "time": 227.05559652499997,
          "velocity": 0.6299212598425197
        },
        {
          "duration": 0.1985294249999754,
          "durationTicks": 108,
          "midi": 75,
          "name": "D#5",
          "ticks": 120720,
          "time": 227.276184775,
          "velocity": 0.6299212598425197
        },
        {
          "duration": 0.1985294250000038,
          "durationTicks": 108,
          "midi": 70,
          "name": "A#4",
          "ticks": 120840,
          "time": 227.49677302499998,
          "velocity": 0.6299212598425197
        },
        {
          "duration": 0.1985294250000038,
          "durationTicks": 108,
          "midi": 77,
          "name": "F5",
          "ticks": 120960,
          "time": 227.71736127499997,
          "velocity": 0.6299212598425197
        },
        {
          "duration": 0.1985294250000038,
          "durationTicks": 108,
          "midi": 72,
          "name": "C5",
          "ticks": 121080,
          "time": 227.93794952499996,
          "velocity": 0.6299212598425197
        },
        {
          "duration": 0.1985294249999754,
          "durationTicks": 108,
          "midi": 75,
          "name": "D#5",
          "ticks": 121200,
          "time": 228.15853777499999,
          "velocity": 0.6299212598425197
        },
        {
          "duration": 0.1985294250000038,
          "durationTicks": 108,
          "midi": 77,
          "name": "F5",
          "ticks": 121320,
          "time": 228.37912602499998,
          "velocity": 0.6299212598425197
        },
        {
          "duration": 0.1985294250000038,
          "durationTicks": 108,
          "midi": 84,
          "name": "C6",
          "ticks": 121440,
          "time": 228.59971427499997,
          "velocity": 0.6299212598425197
        },
        {
          "duration": 0.1985294249999754,
          "durationTicks": 108,
          "midi": 77,
          "name": "F5",
          "ticks": 121560,
          "time": 228.820302525,
          "velocity": 0.6299212598425197
        },
        {
          "duration": 0.1985294250000038,
          "durationTicks": 108,
          "midi": 75,
          "name": "D#5",
          "ticks": 121680,
          "time": 229.04089077499998,
          "velocity": 0.6299212598425197
        },
        {
          "duration": 0.1985294250000038,
          "durationTicks": 108,
          "midi": 72,
          "name": "C5",
          "ticks": 121800,
          "time": 229.26147902499997,
          "velocity": 0.6299212598425197
        },
        {
          "duration": 0.1985294250000038,
          "durationTicks": 108,
          "midi": 77,
          "name": "F5",
          "ticks": 121920,
          "time": 229.48206727499996,
          "velocity": 0.6299212598425197
        },
        {
          "duration": 0.1985294249999754,
          "durationTicks": 108,
          "midi": 72,
          "name": "C5",
          "ticks": 122040,
          "time": 229.70265552499998,
          "velocity": 0.6299212598425197
        },
        {
          "duration": 0.1985294250000038,
          "durationTicks": 108,
          "midi": 75,
          "name": "D#5",
          "ticks": 122160,
          "time": 229.92324377499997,
          "velocity": 0.6299212598425197
        },
        {
          "duration": 0.1985294250000038,
          "durationTicks": 108,
          "midi": 77,
          "name": "F5",
          "ticks": 122280,
          "time": 230.14383202499997,
          "velocity": 0.6299212598425197
        },
        {
          "duration": 0.1985294249999754,
          "durationTicks": 108,
          "midi": 84,
          "name": "C6",
          "ticks": 122400,
          "time": 230.364420275,
          "velocity": 0.6299212598425197
        },
        {
          "duration": 0.1985294250000038,
          "durationTicks": 108,
          "midi": 77,
          "name": "F5",
          "ticks": 122520,
          "time": 230.58500852499998,
          "velocity": 0.6299212598425197
        },
        {
          "duration": 0.1985294250000038,
          "durationTicks": 108,
          "midi": 75,
          "name": "D#5",
          "ticks": 122640,
          "time": 230.80559677499997,
          "velocity": 0.6299212598425197
        },
        {
          "duration": 0.1985294249999754,
          "durationTicks": 108,
          "midi": 72,
          "name": "C5",
          "ticks": 122760,
          "time": 231.026185025,
          "velocity": 0.6299212598425197
        },
        {
          "duration": 0.1985294250000038,
          "durationTicks": 108,
          "midi": 77,
          "name": "F5",
          "ticks": 122880,
          "time": 231.24677327499998,
          "velocity": 0.6299212598425197
        },
        {
          "duration": 0.1985294250000038,
          "durationTicks": 108,
          "midi": 70,
          "name": "A#4",
          "ticks": 123000,
          "time": 231.46736152499997,
          "velocity": 0.6299212598425197
        },
        {
          "duration": 0.1985294250000038,
          "durationTicks": 108,
          "midi": 75,
          "name": "D#5",
          "ticks": 123120,
          "time": 231.68794977499996,
          "velocity": 0.6299212598425197
        },
        {
          "duration": 0.1985294249999754,
          "durationTicks": 108,
          "midi": 77,
          "name": "F5",
          "ticks": 123240,
          "time": 231.90853802499998,
          "velocity": 0.6299212598425197
        },
        {
          "duration": 0.1985294250000038,
          "durationTicks": 108,
          "midi": 82,
          "name": "A#5",
          "ticks": 123360,
          "time": 232.12912627499998,
          "velocity": 0.6299212598425197
        },
        {
          "duration": 0.1985294250000038,
          "durationTicks": 108,
          "midi": 77,
          "name": "F5",
          "ticks": 123480,
          "time": 232.34971452499997,
          "velocity": 0.6299212598425197
        },
        {
          "duration": 0.1985294249999754,
          "durationTicks": 108,
          "midi": 75,
          "name": "D#5",
          "ticks": 123600,
          "time": 232.570302775,
          "velocity": 0.6299212598425197
        },
        {
          "duration": 0.1985294250000038,
          "durationTicks": 108,
          "midi": 70,
          "name": "A#4",
          "ticks": 123720,
          "time": 232.79089102499998,
          "velocity": 0.6299212598425197
        },
        {
          "duration": 0.1985294250000038,
          "durationTicks": 108,
          "midi": 77,
          "name": "F5",
          "ticks": 123840,
          "time": 233.01147927499997,
          "velocity": 0.6299212598425197
        },
        {
          "duration": 0.1985294250000038,
          "durationTicks": 108,
          "midi": 70,
          "name": "A#4",
          "ticks": 123960,
          "time": 233.23206752499996,
          "velocity": 0.6299212598425197
        },
        {
          "duration": 0.1985294249999754,
          "durationTicks": 108,
          "midi": 75,
          "name": "D#5",
          "ticks": 124080,
          "time": 233.45265577499998,
          "velocity": 0.6299212598425197
        },
        {
          "duration": 0.1985294250000038,
          "durationTicks": 108,
          "midi": 77,
          "name": "F5",
          "ticks": 124200,
          "time": 233.67324402499997,
          "velocity": 0.6299212598425197
        },
        {
          "duration": 0.1985294250000038,
          "durationTicks": 108,
          "midi": 82,
          "name": "A#5",
          "ticks": 124320,
          "time": 233.89383227499997,
          "velocity": 0.6299212598425197
        },
        {
          "duration": 0.1985294249999754,
          "durationTicks": 108,
          "midi": 77,
          "name": "F5",
          "ticks": 124440,
          "time": 234.11442052499999,
          "velocity": 0.6299212598425197
        },
        {
          "duration": 0.1985294250000038,
          "durationTicks": 108,
          "midi": 75,
          "name": "D#5",
          "ticks": 124560,
          "time": 234.33500877499998,
          "velocity": 0.6299212598425197
        },
        {
          "duration": 0.1985294250000038,
          "durationTicks": 108,
          "midi": 70,
          "name": "A#4",
          "ticks": 124680,
          "time": 234.55559702499997,
          "velocity": 0.6299212598425197
        },
        {
          "duration": 0.1985294249999754,
          "durationTicks": 108,
          "midi": 77,
          "name": "F5",
          "ticks": 124800,
          "time": 234.776185275,
          "velocity": 0.6299212598425197
        },
        {
          "duration": 0.1985294250000038,
          "durationTicks": 108,
          "midi": 70,
          "name": "A#4",
          "ticks": 124920,
          "time": 234.99677352499998,
          "velocity": 0.6299212598425197
        },
        {
          "duration": 0.1985294250000038,
          "durationTicks": 108,
          "midi": 75,
          "name": "D#5",
          "ticks": 125040,
          "time": 235.21736177499997,
          "velocity": 0.6299212598425197
        },
        {
          "duration": 0.1985294250000038,
          "durationTicks": 108,
          "midi": 77,
          "name": "F5",
          "ticks": 125160,
          "time": 235.43795002499996,
          "velocity": 0.6299212598425197
        },
        {
          "duration": 0.1985294249999754,
          "durationTicks": 108,
          "midi": 82,
          "name": "A#5",
          "ticks": 125280,
          "time": 235.65853827499998,
          "velocity": 0.6299212598425197
        },
        {
          "duration": 0.1985294250000038,
          "durationTicks": 108,
          "midi": 77,
          "name": "F5",
          "ticks": 125400,
          "time": 235.87912652499998,
          "velocity": 0.6299212598425197
        },
        {
          "duration": 0.1985294250000038,
          "durationTicks": 108,
          "midi": 75,
          "name": "D#5",
          "ticks": 125520,
          "time": 236.09971477499997,
          "velocity": 0.6299212598425197
        },
        {
          "duration": 0.1985294249999754,
          "durationTicks": 108,
          "midi": 70,
          "name": "A#4",
          "ticks": 125640,
          "time": 236.320303025,
          "velocity": 0.6299212598425197
        },
        {
          "duration": 0.1985294250000038,
          "durationTicks": 108,
          "midi": 77,
          "name": "F5",
          "ticks": 125760,
          "time": 236.54089127499998,
          "velocity": 0.6299212598425197
        },
        {
          "duration": 0.1985294250000038,
          "durationTicks": 108,
          "midi": 70,
          "name": "A#4",
          "ticks": 125880,
          "time": 236.76147952499997,
          "velocity": 0.6299212598425197
        },
        {
          "duration": 0.1985294249999754,
          "durationTicks": 108,
          "midi": 75,
          "name": "D#5",
          "ticks": 126000,
          "time": 236.982067775,
          "velocity": 0.6299212598425197
        },
        {
          "duration": 0.1985294249999754,
          "durationTicks": 108,
          "midi": 77,
          "name": "F5",
          "ticks": 126120,
          "time": 237.20265602499998,
          "velocity": 0.6299212598425197
        },
        {
          "duration": 0.1985294250000038,
          "durationTicks": 108,
          "midi": 82,
          "name": "A#5",
          "ticks": 126240,
          "time": 237.42324427499997,
          "velocity": 0.6299212598425197
        },
        {
          "duration": 0.1985294250000038,
          "durationTicks": 108,
          "midi": 77,
          "name": "F5",
          "ticks": 126360,
          "time": 237.64383252499997,
          "velocity": 0.6299212598425197
        },
        {
          "duration": 0.1985294249999754,
          "durationTicks": 108,
          "midi": 75,
          "name": "D#5",
          "ticks": 126480,
          "time": 237.86442077499999,
          "velocity": 0.6299212598425197
        },
        {
          "duration": 0.1985294250000038,
          "durationTicks": 108,
          "midi": 70,
          "name": "A#4",
          "ticks": 126600,
          "time": 238.08500902499998,
          "velocity": 0.6299212598425197
        },
        {
          "duration": 0.1985294250000038,
          "durationTicks": 108,
          "midi": 77,
          "name": "F5",
          "ticks": 126720,
          "time": 238.30559727499997,
          "velocity": 0.6299212598425197
        },
        {
          "duration": 0.1985294249999754,
          "durationTicks": 108,
          "midi": 70,
          "name": "A#4",
          "ticks": 126840,
          "time": 238.526185525,
          "velocity": 0.6299212598425197
        },
        {
          "duration": 0.1985294250000038,
          "durationTicks": 108,
          "midi": 75,
          "name": "D#5",
          "ticks": 126960,
          "time": 238.74677377499998,
          "velocity": 0.6299212598425197
        },
        {
          "duration": 0.1985294250000038,
          "durationTicks": 108,
          "midi": 77,
          "name": "F5",
          "ticks": 127080,
          "time": 238.96736202499997,
          "velocity": 0.6299212598425197
        },
        {
          "duration": 0.1985294250000038,
          "durationTicks": 108,
          "midi": 82,
          "name": "A#5",
          "ticks": 127200,
          "time": 239.18795027499996,
          "velocity": 0.6299212598425197
        },
        {
          "duration": 0.1985294249999754,
          "durationTicks": 108,
          "midi": 77,
          "name": "F5",
          "ticks": 127320,
          "time": 239.40853852499998,
          "velocity": 0.6299212598425197
        },
        {
          "duration": 0.1985294250000038,
          "durationTicks": 108,
          "midi": 75,
          "name": "D#5",
          "ticks": 127440,
          "time": 239.62912677499997,
          "velocity": 0.6299212598425197
        },
        {
          "duration": 0.1985294250000038,
          "durationTicks": 108,
          "midi": 70,
          "name": "A#4",
          "ticks": 127560,
          "time": 239.84971502499997,
          "velocity": 0.6299212598425197
        },
        {
          "duration": 0.1985294249999754,
          "durationTicks": 108,
          "midi": 77,
          "name": "F5",
          "ticks": 127680,
          "time": 240.070303275,
          "velocity": 0.6299212598425197
        },
        {
          "duration": 0.1985294250000038,
          "durationTicks": 108,
          "midi": 70,
          "name": "A#4",
          "ticks": 127800,
          "time": 240.29089152499998,
          "velocity": 0.6299212598425197
        },
        {
          "duration": 0.1985294250000038,
          "durationTicks": 108,
          "midi": 75,
          "name": "D#5",
          "ticks": 127920,
          "time": 240.51147977499997,
          "velocity": 0.6299212598425197
        },
        {
          "duration": 0.1985294249999754,
          "durationTicks": 108,
          "midi": 77,
          "name": "F5",
          "ticks": 128040,
          "time": 240.732068025,
          "velocity": 0.6299212598425197
        },
        {
          "duration": 0.1985294250000038,
          "durationTicks": 108,
          "midi": 82,
          "name": "A#5",
          "ticks": 128160,
          "time": 240.95265627499998,
          "velocity": 0.6299212598425197
        },
        {
          "duration": 0.1985294250000038,
          "durationTicks": 108,
          "midi": 77,
          "name": "F5",
          "ticks": 128280,
          "time": 241.17324452499997,
          "velocity": 0.6299212598425197
        },
        {
          "duration": 0.1985294250000038,
          "durationTicks": 108,
          "midi": 75,
          "name": "D#5",
          "ticks": 128400,
          "time": 241.39383277499996,
          "velocity": 0.6299212598425197
        },
        {
          "duration": 0.1985294249999754,
          "durationTicks": 108,
          "midi": 70,
          "name": "A#4",
          "ticks": 128520,
          "time": 241.61442102499998,
          "velocity": 0.6299212598425197
        },
        {
          "duration": 0.19852942500003223,
          "durationTicks": 108,
          "midi": 77,
          "name": "F5",
          "ticks": 128640,
          "time": 241.83500927499998,
          "velocity": 0.6299212598425197
        },
        {
          "duration": 0.19852942500003223,
          "durationTicks": 108,
          "midi": 72,
          "name": "C5",
          "ticks": 128760,
          "time": 242.05559752499997,
          "velocity": 0.6299212598425197
        },
        {
          "duration": 0.1985294250000038,
          "durationTicks": 108,
          "midi": 75,
          "name": "D#5",
          "ticks": 128880,
          "time": 242.276185775,
          "velocity": 0.6299212598425197
        },
        {
          "duration": 0.1985294250000038,
          "durationTicks": 108,
          "midi": 77,
          "name": "F5",
          "ticks": 129000,
          "time": 242.49677402499998,
          "velocity": 0.6299212598425197
        },
        {
          "duration": 0.19852942500003223,
          "durationTicks": 108,
          "midi": 84,
          "name": "C6",
          "ticks": 129120,
          "time": 242.71736227499997,
          "velocity": 0.6299212598425197
        },
        {
          "duration": 0.19852942500003223,
          "durationTicks": 108,
          "midi": 77,
          "name": "F5",
          "ticks": 129240,
          "time": 242.93795052499996,
          "velocity": 0.6299212598425197
        },
        {
          "duration": 0.1985294250000038,
          "durationTicks": 108,
          "midi": 75,
          "name": "D#5",
          "ticks": 129360,
          "time": 243.15853877499998,
          "velocity": 0.6299212598425197
        },
        {
          "duration": 0.19852942500003223,
          "durationTicks": 108,
          "midi": 72,
          "name": "C5",
          "ticks": 129480,
          "time": 243.37912702499997,
          "velocity": 0.6299212598425197
        },
        {
          "duration": 0.19852942500003223,
          "durationTicks": 108,
          "midi": 77,
          "name": "F5",
          "ticks": 129600,
          "time": 243.59971527499997,
          "velocity": 0.6299212598425197
        },
        {
          "duration": 0.1985294250000038,
          "durationTicks": 108,
          "midi": 72,
          "name": "C5",
          "ticks": 129720,
          "time": 243.82030352499999,
          "velocity": 0.6299212598425197
        },
        {
          "duration": 0.19852942500003223,
          "durationTicks": 108,
          "midi": 75,
          "name": "D#5",
          "ticks": 129840,
          "time": 244.04089177499998,
          "velocity": 0.6299212598425197
        },
        {
          "duration": 0.19852942500003223,
          "durationTicks": 108,
          "midi": 77,
          "name": "F5",
          "ticks": 129960,
          "time": 244.26148002499997,
          "velocity": 0.6299212598425197
        },
        {
          "duration": 0.1985294250000038,
          "durationTicks": 108,
          "midi": 84,
          "name": "C6",
          "ticks": 130080,
          "time": 244.482068275,
          "velocity": 0.6299212598425197
        },
        {
          "duration": 0.1985294250000038,
          "durationTicks": 108,
          "midi": 77,
          "name": "F5",
          "ticks": 130200,
          "time": 244.70265652499998,
          "velocity": 0.6299212598425197
        },
        {
          "duration": 0.19852942500003223,
          "durationTicks": 108,
          "midi": 75,
          "name": "D#5",
          "ticks": 130320,
          "time": 244.92324477499997,
          "velocity": 0.6299212598425197
        },
        {
          "duration": 0.19852942500003223,
          "durationTicks": 108,
          "midi": 72,
          "name": "C5",
          "ticks": 130440,
          "time": 245.14383302499996,
          "velocity": 0.6299212598425197
        },
        {
          "duration": 0.7941176999999584,
          "durationTicks": 432,
          "midi": 63,
          "name": "D#4",
          "ticks": 130560,
          "time": 245.36442127499998,
          "velocity": 0.6299212598425197
        },
        {
          "duration": 0.7941176999999584,
          "durationTicks": 432,
          "midi": 65,
          "name": "F4",
          "ticks": 130560,
          "time": 245.36442127499998,
          "velocity": 0.6299212598425197
        },
        {
          "duration": 0.7941176999999868,
          "durationTicks": 432,
          "midi": 63,
          "name": "D#4",
          "ticks": 131040,
          "time": 246.24677427499998,
          "velocity": 0.6299212598425197
        },
        {
          "duration": 0.7941176999999868,
          "durationTicks": 432,
          "midi": 65,
          "name": "F4",
          "ticks": 131040,
          "time": 246.24677427499998,
          "velocity": 0.6299212598425197
        },
        {
          "duration": 0.5955882750000114,
          "durationTicks": 324,
          "midi": 75,
          "name": "D#5",
          "ticks": 131520,
          "time": 247.12912727499997,
          "velocity": 0.6299212598425197
        },
        {
          "duration": 0.5955882750000114,
          "durationTicks": 324,
          "midi": 77,
          "name": "F5",
          "ticks": 131520,
          "time": 247.12912727499997,
          "velocity": 0.6299212598425197
        },
        {
          "duration": 0.5955882750000114,
          "durationTicks": 324,
          "midi": 82,
          "name": "A#5",
          "ticks": 131520,
          "time": 247.12912727499997,
          "velocity": 0.6299212598425197
        },
        {
          "duration": 0.5955882750000114,
          "durationTicks": 324,
          "midi": 82,
          "name": "A#5",
          "ticks": 131880,
          "time": 247.79089202499998,
          "velocity": 0.6299212598425197
        },
        {
          "duration": 0.5955882750000114,
          "durationTicks": 324,
          "midi": 87,
          "name": "D#6",
          "ticks": 131880,
          "time": 247.79089202499998,
          "velocity": 0.6299212598425197
        },
        {
          "duration": 0.5955882750000114,
          "durationTicks": 324,
          "midi": 89,
          "name": "F6",
          "ticks": 131880,
          "time": 247.79089202499998,
          "velocity": 0.6299212598425197
        },
        {
          "duration": 0.3970588499999792,
          "durationTicks": 216,
          "midi": 94,
          "name": "A#6",
          "ticks": 132240,
          "time": 248.45265677499998,
          "velocity": 0.6299212598425197
        },
        {
          "duration": 0.3970588499999792,
          "durationTicks": 216,
          "midi": 101,
          "name": "F7",
          "ticks": 132240,
          "time": 248.45265677499998,
          "velocity": 0.6299212598425197
        },
        {
          "duration": 0.3970588499999792,
          "durationTicks": 216,
          "midi": 106,
          "name": "A#7",
          "ticks": 132240,
          "time": 248.45265677499998,
          "velocity": 0.6299212598425197
        },
        {
          "duration": 0.5955882750000114,
          "durationTicks": 324,
          "midi": 58,
          "name": "A#3",
          "ticks": 132480,
          "time": 248.89383327499996,
          "velocity": 0.6299212598425197
        },
        {
          "duration": 0.5955882750000114,
          "durationTicks": 324,
          "midi": 62,
          "name": "D4",
          "ticks": 132480,
          "time": 248.89383327499996,
          "velocity": 0.6299212598425197
        },
        {
          "duration": 0.5955882750000114,
          "durationTicks": 324,
          "midi": 58,
          "name": "A#3",
          "ticks": 132840,
          "time": 249.55559802499997,
          "velocity": 0.6299212598425197
        },
        {
          "duration": 0.5955882750000114,
          "durationTicks": 324,
          "midi": 63,
          "name": "D#4",
          "ticks": 132840,
          "time": 249.55559802499997,
          "velocity": 0.6299212598425197
        },
        {
          "duration": 0.3970588500000076,
          "durationTicks": 216,
          "midi": 58,
          "name": "A#3",
          "ticks": 133200,
          "time": 250.21736277499997,
          "velocity": 0.6299212598425197
        },
        {
          "duration": 0.3970588500000076,
          "durationTicks": 216,
          "midi": 65,
          "name": "F4",
          "ticks": 133200,
          "time": 250.21736277499997,
          "velocity": 0.6299212598425197
        },
        {
          "duration": 0.6617647500000032,
          "durationTicks": 360,
          "midi": 58,
          "name": "A#3",
          "ticks": 133440,
          "time": 250.65853927499998,
          "velocity": 0.6299212598425197
        },
        {
          "duration": 0.6617647500000032,
          "durationTicks": 360,
          "midi": 65,
          "name": "F4",
          "ticks": 133440,
          "time": 250.65853927499998,
          "velocity": 0.6299212598425197
        },
        {
          "duration": 0.6617647500000032,
          "durationTicks": 360,
          "midi": 70,
          "name": "A#4",
          "ticks": 133440,
          "time": 250.65853927499998,
          "velocity": 0.6299212598425197
        },
        {
          "duration": 0.5955882750000114,
          "durationTicks": 324,
          "midi": 70,
          "name": "A#4",
          "ticks": 133800,
          "time": 251.32030402499998,
          "velocity": 0.6299212598425197
        },
        {
          "duration": 0.5955882750000114,
          "durationTicks": 324,
          "midi": 75,
          "name": "D#5",
          "ticks": 133800,
          "time": 251.32030402499998,
          "velocity": 0.6299212598425197
        },
        {
          "duration": 0.3970588499999792,
          "durationTicks": 216,
          "midi": 70,
          "name": "A#4",
          "ticks": 134160,
          "time": 251.982068775,
          "velocity": 0.6299212598425197
        },
        {
          "duration": 0.3970588499999792,
          "durationTicks": 216,
          "midi": 77,
          "name": "F5",
          "ticks": 134160,
          "time": 251.982068775,
          "velocity": 0.6299212598425197
        },
        {
          "duration": 1.588235400000002,
          "durationTicks": 864,
          "midi": 70,
          "name": "A#4",
          "ticks": 134400,
          "time": 252.42324527499997,
          "velocity": 0.6299212598425197
        },
        {
          "duration": 1.588235400000002,
          "durationTicks": 864,
          "midi": 77,
          "name": "F5",
          "ticks": 134400,
          "time": 252.42324527499997,
          "velocity": 0.6299212598425197
        },
        {
          "duration": 1.588235400000002,
          "durationTicks": 864,
          "midi": 82,
          "name": "A#5",
          "ticks": 134400,
          "time": 252.42324527499997,
          "velocity": 0.6299212598425197
        },
        {
          "duration": 0.7941176999999584,
          "durationTicks": 432,
          "midi": 73,
          "name": "C#5",
          "ticks": 135360,
          "time": 254.187951275,
          "velocity": 0.6299212598425197
        },
        {
          "duration": 0.7941176999999584,
          "durationTicks": 432,
          "midi": 78,
          "name": "F#5",
          "ticks": 135360,
          "time": 254.187951275,
          "velocity": 0.6299212598425197
        },
        {
          "duration": 0.7941176999999584,
          "durationTicks": 432,
          "midi": 82,
          "name": "A#5",
          "ticks": 135360,
          "time": 254.187951275,
          "velocity": 0.6299212598425197
        },
        {
          "duration": 0.7941176999999584,
          "durationTicks": 432,
          "midi": 73,
          "name": "C#5",
          "ticks": 135840,
          "time": 255.07030427499998,
          "velocity": 0.6299212598425197
        },
        {
          "duration": 0.7941176999999584,
          "durationTicks": 432,
          "midi": 78,
          "name": "F#5",
          "ticks": 135840,
          "time": 255.07030427499998,
          "velocity": 0.6299212598425197
        },
        {
          "duration": 0.7941176999999584,
          "durationTicks": 432,
          "midi": 82,
          "name": "A#5",
          "ticks": 135840,
          "time": 255.07030427499998,
          "velocity": 0.6299212598425197
        },
        {
          "duration": 0.7941176999999584,
          "durationTicks": 432,
          "midi": 70,
          "name": "A#4",
          "ticks": 136170,
          "time": 255.6769219625,
          "velocity": 0.6299212598425197
        },
        {
          "duration": 0.7941177000000152,
          "durationTicks": 432,
          "midi": 73,
          "name": "C#5",
          "ticks": 136207,
          "time": 255.74493667291665,
          "velocity": 0.6299212598425197
        },
        {
          "duration": 0.7941176999999868,
          "durationTicks": 432,
          "midi": 75,
          "name": "D#5",
          "ticks": 136245,
          "time": 255.81478961874998,
          "velocity": 0.6299212598425197
        },
        {
          "duration": 0.7941176999999868,
          "durationTicks": 432,
          "midi": 80,
          "name": "G#5",
          "ticks": 136282,
          "time": 255.88280432916665,
          "velocity": 0.6299212598425197
        },
        {
          "duration": 0.7941176999999584,
          "durationTicks": 432,
          "midi": 75,
          "name": "D#5",
          "ticks": 136800,
          "time": 256.835010275,
          "velocity": 0.6299212598425197
        },
        {
          "duration": 0.7941176999999584,
          "durationTicks": 432,
          "midi": 80,
          "name": "G#5",
          "ticks": 136800,
          "time": 256.835010275,
          "velocity": 0.6299212598425197
        },
        {
          "duration": 0.7941177000000152,
          "durationTicks": 432,
          "midi": 70,
          "name": "A#4",
          "ticks": 137280,
          "time": 257.71736327499997,
          "velocity": 0.6299212598425197
        },
        {
          "duration": 0.7941177000000152,
          "durationTicks": 432,
          "midi": 73,
          "name": "C#5",
          "ticks": 137280,
          "time": 257.71736327499997,
          "velocity": 0.6299212598425197
        },
        {
          "duration": 0.7941177000000152,
          "durationTicks": 432,
          "midi": 77,
          "name": "F5",
          "ticks": 137280,
          "time": 257.71736327499997,
          "velocity": 0.6299212598425197
        },
        {
          "duration": 0.7941176999999584,
          "durationTicks": 432,
          "midi": 70,
          "name": "A#4",
          "ticks": 137760,
          "time": 258.599716275,
          "velocity": 0.6299212598425197
        },
        {
          "duration": 0.7941176999999584,
          "durationTicks": 432,
          "midi": 73,
          "name": "C#5",
          "ticks": 137760,
          "time": 258.599716275,
          "velocity": 0.6299212598425197
        },
        {
          "duration": 0.7941176999999584,
          "durationTicks": 432,
          "midi": 77,
          "name": "F5",
          "ticks": 137760,
          "time": 258.599716275,
          "velocity": 0.6299212598425197
        },
        {
          "duration": 0.7941176999999584,
          "durationTicks": 432,
          "midi": 68,
          "name": "G#4",
          "ticks": 138240,
          "time": 259.482069275,
          "velocity": 0.6299212598425197
        },
        {
          "duration": 0.7941177000000152,
          "durationTicks": 432,
          "midi": 65,
          "name": "F4",
          "ticks": 138720,
          "time": 260.364422275,
          "velocity": 0.6299212598425197
        },
        {
          "duration": 0.7941177000000152,
          "durationTicks": 432,
          "midi": 70,
          "name": "A#4",
          "ticks": 138720,
          "time": 260.364422275,
          "velocity": 0.6299212598425197
        },
        {
          "duration": 0.7941177000000152,
          "durationTicks": 432,
          "midi": 77,
          "name": "F5",
          "ticks": 138720,
          "time": 260.364422275,
          "velocity": 0.6299212598425197
        },
        {
          "duration": 0.7941176999999584,
          "durationTicks": 432,
          "midi": 73,
          "name": "C#5",
          "ticks": 139200,
          "time": 261.246775275,
          "velocity": 0.6299212598425197
        },
        {
          "duration": 0.7941176999999584,
          "durationTicks": 432,
          "midi": 78,
          "name": "F#5",
          "ticks": 139200,
          "time": 261.246775275,
          "velocity": 0.6299212598425197
        },
        {
          "duration": 0.7941176999999584,
          "durationTicks": 432,
          "midi": 82,
          "name": "A#5",
          "ticks": 139200,
          "time": 261.246775275,
          "velocity": 0.6299212598425197
        },
        {
          "duration": 0.7941177000000152,
          "durationTicks": 432,
          "midi": 73,
          "name": "C#5",
          "ticks": 139680,
          "time": 262.12912827499997,
          "velocity": 0.6299212598425197
        },
        {
          "duration": 0.7941177000000152,
          "durationTicks": 432,
          "midi": 78,
          "name": "F#5",
          "ticks": 139680,
          "time": 262.12912827499997,
          "velocity": 0.6299212598425197
        },
        {
          "duration": 0.7941177000000152,
          "durationTicks": 432,
          "midi": 82,
          "name": "A#5",
          "ticks": 139680,
          "time": 262.12912827499997,
          "velocity": 0.6299212598425197
        },
        {
          "duration": 0.7941176999999584,
          "durationTicks": 432,
          "midi": 72,
          "name": "C5",
          "ticks": 140160,
          "time": 263.011481275,
          "velocity": 0.6299212598425197
        },
        {
          "duration": 0.7941176999999584,
          "durationTicks": 432,
          "midi": 75,
          "name": "D#5",
          "ticks": 140160,
          "time": 263.011481275,
          "velocity": 0.6299212598425197
        },
        {
          "duration": 0.7941176999999584,
          "durationTicks": 432,
          "midi": 80,
          "name": "G#5",
          "ticks": 140160,
          "time": 263.011481275,
          "velocity": 0.6299212598425197
        },
        {
          "duration": 0.7941177000000152,
          "durationTicks": 432,
          "midi": 72,
          "name": "C5",
          "ticks": 140640,
          "time": 263.89383427499996,
          "velocity": 0.6299212598425197
        },
        {
          "duration": 0.7941177000000152,
          "durationTicks": 432,
          "midi": 75,
          "name": "D#5",
          "ticks": 140640,
          "time": 263.89383427499996,
          "velocity": 0.6299212598425197
        },
        {
          "duration": 0.7941177000000152,
          "durationTicks": 432,
          "midi": 80,
          "name": "G#5",
          "ticks": 140640,
          "time": 263.89383427499996,
          "velocity": 0.6299212598425197
        },
        {
          "duration": 0.7941176999999584,
          "durationTicks": 432,
          "midi": 70,
          "name": "A#4",
          "ticks": 141120,
          "time": 264.776187275,
          "velocity": 0.6299212598425197
        },
        {
          "duration": 0.7941176999999584,
          "durationTicks": 432,
          "midi": 73,
          "name": "C#5",
          "ticks": 141120,
          "time": 264.776187275,
          "velocity": 0.6299212598425197
        },
        {
          "duration": 0.7941176999999584,
          "durationTicks": 432,
          "midi": 77,
          "name": "F5",
          "ticks": 141120,
          "time": 264.776187275,
          "velocity": 0.6299212598425197
        },
        {
          "duration": 0.7941176999999584,
          "durationTicks": 432,
          "midi": 77,
          "name": "F5",
          "ticks": 141600,
          "time": 265.658540275,
          "velocity": 0.6299212598425197
        },
        {
          "duration": 0.7941176999999584,
          "durationTicks": 432,
          "midi": 82,
          "name": "A#5",
          "ticks": 141600,
          "time": 265.658540275,
          "velocity": 0.6299212598425197
        },
        {
          "duration": 0.7941176999999584,
          "durationTicks": 432,
          "midi": 85,
          "name": "C#6",
          "ticks": 141600,
          "time": 265.658540275,
          "velocity": 0.6299212598425197
        },
        {
          "duration": 0.7941177000000152,
          "durationTicks": 432,
          "midi": 75,
          "name": "D#5",
          "ticks": 142080,
          "time": 266.540893275,
          "velocity": 0.6299212598425197
        },
        {
          "duration": 0.7941177000000152,
          "durationTicks": 432,
          "midi": 80,
          "name": "G#5",
          "ticks": 142080,
          "time": 266.540893275,
          "velocity": 0.6299212598425197
        },
        {
          "duration": 0.7941177000000152,
          "durationTicks": 432,
          "midi": 84,
          "name": "C6",
          "ticks": 142080,
          "time": 266.540893275,
          "velocity": 0.6299212598425197
        },
        {
          "duration": 0.7941176999999584,
          "durationTicks": 432,
          "midi": 72,
          "name": "C5",
          "ticks": 142560,
          "time": 267.423246275,
          "velocity": 0.6299212598425197
        },
        {
          "duration": 0.7941176999999584,
          "durationTicks": 432,
          "midi": 75,
          "name": "D#5",
          "ticks": 142560,
          "time": 267.423246275,
          "velocity": 0.6299212598425197
        },
        {
          "duration": 0.7941176999999584,
          "durationTicks": 432,
          "midi": 80,
          "name": "G#5",
          "ticks": 142560,
          "time": 267.423246275,
          "velocity": 0.6299212598425197
        },
        {
          "duration": 0.7941177000000152,
          "durationTicks": 432,
          "midi": 73,
          "name": "C#5",
          "ticks": 143040,
          "time": 268.30559927499996,
          "velocity": 0.6299212598425197
        },
        {
          "duration": 0.7941177000000152,
          "durationTicks": 432,
          "midi": 77,
          "name": "F5",
          "ticks": 143040,
          "time": 268.30559927499996,
          "velocity": 0.6299212598425197
        },
        {
          "duration": 0.7941177000000152,
          "durationTicks": 432,
          "midi": 82,
          "name": "A#5",
          "ticks": 143040,
          "time": 268.30559927499996,
          "velocity": 0.6299212598425197
        },
        {
          "duration": 0.7941176999999584,
          "durationTicks": 432,
          "midi": 73,
          "name": "C#5",
          "ticks": 143520,
          "time": 269.187952275,
          "velocity": 0.6299212598425197
        },
        {
          "duration": 0.7941176999999584,
          "durationTicks": 432,
          "midi": 77,
          "name": "F5",
          "ticks": 143520,
          "time": 269.187952275,
          "velocity": 0.6299212598425197
        },
        {
          "duration": 0.7941176999999584,
          "durationTicks": 432,
          "midi": 82,
          "name": "A#5",
          "ticks": 143520,
          "time": 269.187952275,
          "velocity": 0.6299212598425197
        },
        {
          "duration": 0.7941176999999584,
          "durationTicks": 432,
          "midi": 72,
          "name": "C5",
          "ticks": 144000,
          "time": 270.070305275,
          "velocity": 0.6299212598425197
        },
        {
          "duration": 0.7941176999999584,
          "durationTicks": 432,
          "midi": 75,
          "name": "D#5",
          "ticks": 144000,
          "time": 270.070305275,
          "velocity": 0.6299212598425197
        },
        {
          "duration": 0.7941176999999584,
          "durationTicks": 432,
          "midi": 80,
          "name": "G#5",
          "ticks": 144000,
          "time": 270.070305275,
          "velocity": 0.6299212598425197
        },
        {
          "duration": 0.7941177000000152,
          "durationTicks": 432,
          "midi": 72,
          "name": "C5",
          "ticks": 144480,
          "time": 270.952658275,
          "velocity": 0.6299212598425197
        },
        {
          "duration": 0.7941177000000152,
          "durationTicks": 432,
          "midi": 75,
          "name": "D#5",
          "ticks": 144480,
          "time": 270.952658275,
          "velocity": 0.6299212598425197
        },
        {
          "duration": 0.7941177000000152,
          "durationTicks": 432,
          "midi": 80,
          "name": "G#5",
          "ticks": 144480,
          "time": 270.952658275,
          "velocity": 0.6299212598425197
        },
        {
          "duration": 0.7941176999999584,
          "durationTicks": 432,
          "midi": 70,
          "name": "A#4",
          "ticks": 144960,
          "time": 271.835011275,
          "velocity": 0.6299212598425197
        },
        {
          "duration": 0.7941176999999584,
          "durationTicks": 432,
          "midi": 73,
          "name": "C#5",
          "ticks": 144960,
          "time": 271.835011275,
          "velocity": 0.6299212598425197
        },
        {
          "duration": 0.7941176999999584,
          "durationTicks": 432,
          "midi": 77,
          "name": "F5",
          "ticks": 144960,
          "time": 271.835011275,
          "velocity": 0.6299212598425197
        },
        {
          "duration": 0.7941176999999584,
          "durationTicks": 432,
          "midi": 80,
          "name": "G#5",
          "ticks": 144960,
          "time": 271.835011275,
          "velocity": 0.6299212598425197
        },
        {
          "duration": 0.7941176999999584,
          "durationTicks": 432,
          "midi": 80,
          "name": "G#5",
          "ticks": 145440,
          "time": 272.717364275,
          "velocity": 0.6299212598425197
        },
        {
          "duration": 1.5882354000000305,
          "durationTicks": 864,
          "midi": 82,
          "name": "A#5",
          "ticks": 145920,
          "time": 273.599717275,
          "velocity": 0.6299212598425197
        },
        {
          "duration": 1.5882353999999737,
          "durationTicks": 864,
          "midi": 63,
          "name": "D#4",
          "ticks": 146768,
          "time": 275.15854090833335,
          "velocity": 0.6299212598425197
        },
        {
          "duration": 1.5882353999999737,
          "durationTicks": 864,
          "midi": 66,
          "name": "F#4",
          "ticks": 146805,
          "time": 275.22655561875,
          "velocity": 0.6299212598425197
        },
        {
          "duration": 1.5882354000000305,
          "durationTicks": 864,
          "midi": 70,
          "name": "A#4",
          "ticks": 146843,
          "time": 275.2964085645833,
          "velocity": 0.6299212598425197
        },
        {
          "duration": 1.5882354000000305,
          "durationTicks": 864,
          "midi": 73,
          "name": "C#5",
          "ticks": 146880,
          "time": 275.364423275,
          "velocity": 0.6299212598425197
        },
        {
          "duration": 1.5882353999999737,
          "durationTicks": 864,
          "midi": 63,
          "name": "D#4",
          "ticks": 147728,
          "time": 276.92324690833334,
          "velocity": 0.6299212598425197
        },
        {
          "duration": 1.5882354000000305,
          "durationTicks": 864,
          "midi": 65,
          "name": "F4",
          "ticks": 147765,
          "time": 276.99126161875,
          "velocity": 0.6299212598425197
        },
        {
          "duration": 1.5882354000000305,
          "durationTicks": 864,
          "midi": 68,
          "name": "G#4",
          "ticks": 147803,
          "time": 277.0611145645833,
          "velocity": 0.6299212598425197
        },
        {
          "duration": 1.5882353999999737,
          "durationTicks": 864,
          "midi": 72,
          "name": "C5",
          "ticks": 147840,
          "time": 277.129129275,
          "velocity": 0.6299212598425197
        },
        {
          "duration": 3.0441178499999637,
          "durationTicks": 1656,
          "midi": 61,
          "name": "C#4",
          "ticks": 148800,
          "time": 278.893835275,
          "velocity": 0.6299212598425197
        },
        {
          "duration": 3.0441178499999637,
          "durationTicks": 1656,
          "midi": 65,
          "name": "F4",
          "ticks": 148800,
          "time": 278.893835275,
          "velocity": 0.6299212598425197
        },
        {
          "duration": 3.0441178499999637,
          "durationTicks": 1656,
          "midi": 70,
          "name": "A#4",
          "ticks": 148800,
          "time": 278.893835275,
          "velocity": 0.6299212598425197
        },
        {
          "duration": 0.3970588500000076,
          "durationTicks": 216,
          "midi": 75,
          "name": "D#5",
          "ticks": 150480,
          "time": 281.982070775,
          "velocity": 0.6299212598425197
        },
        {
          "duration": 0.1985294250000038,
          "durationTicks": 108,
          "midi": 77,
          "name": "F5",
          "ticks": 150720,
          "time": 282.423247275,
          "velocity": 0.6299212598425197
        },
        {
          "duration": 0.19852942500006066,
          "durationTicks": 108,
          "midi": 70,
          "name": "A#4",
          "ticks": 150840,
          "time": 282.643835525,
          "velocity": 0.6299212598425197
        },
        {
          "duration": 0.19852942500006066,
          "durationTicks": 108,
          "midi": 75,
          "name": "D#5",
          "ticks": 150960,
          "time": 282.864423775,
          "velocity": 0.6299212598425197
        },
        {
          "duration": 0.1985294250000038,
          "durationTicks": 108,
          "midi": 77,
          "name": "F5",
          "ticks": 151080,
          "time": 283.085012025,
          "velocity": 0.6299212598425197
        },
        {
          "duration": 0.1985294250000038,
          "durationTicks": 108,
          "midi": 82,
          "name": "A#5",
          "ticks": 151200,
          "time": 283.305600275,
          "velocity": 0.6299212598425197
        },
        {
          "duration": 0.1985294250000038,
          "durationTicks": 108,
          "midi": 77,
          "name": "F5",
          "ticks": 151320,
          "time": 283.526188525,
          "velocity": 0.6299212598425197
        },
        {
          "duration": 0.1985294250000038,
          "durationTicks": 108,
          "midi": 75,
          "name": "D#5",
          "ticks": 151440,
          "time": 283.746776775,
          "velocity": 0.6299212598425197
        },
        {
          "duration": 0.1985294250000038,
          "durationTicks": 108,
          "midi": 70,
          "name": "A#4",
          "ticks": 151560,
          "time": 283.967365025,
          "velocity": 0.6299212598425197
        },
        {
          "duration": 0.19852942500006066,
          "durationTicks": 108,
          "midi": 77,
          "name": "F5",
          "ticks": 151680,
          "time": 284.187953275,
          "velocity": 0.6299212598425197
        },
        {
          "duration": 0.19852942500006066,
          "durationTicks": 108,
          "midi": 72,
          "name": "C5",
          "ticks": 151800,
          "time": 284.408541525,
          "velocity": 0.6299212598425197
        },
        {
          "duration": 0.1985294250000038,
          "durationTicks": 108,
          "midi": 75,
          "name": "D#5",
          "ticks": 151920,
          "time": 284.629129775,
          "velocity": 0.6299212598425197
        },
        {
          "duration": 0.1985294250000038,
          "durationTicks": 108,
          "midi": 77,
          "name": "F5",
          "ticks": 152040,
          "time": 284.849718025,
          "velocity": 0.6299212598425197
        },
        {
          "duration": 0.1985294250000038,
          "durationTicks": 108,
          "midi": 82,
          "name": "A#5",
          "ticks": 152160,
          "time": 285.070306275,
          "velocity": 0.6299212598425197
        },
        {
          "duration": 0.1985294250000038,
          "durationTicks": 108,
          "midi": 77,
          "name": "F5",
          "ticks": 152280,
          "time": 285.290894525,
          "velocity": 0.6299212598425197
        },
        {
          "duration": 0.1985294250000038,
          "durationTicks": 108,
          "midi": 75,
          "name": "D#5",
          "ticks": 152400,
          "time": 285.511482775,
          "velocity": 0.6299212598425197
        },
        {
          "duration": 0.19852942500006066,
          "durationTicks": 108,
          "midi": 72,
          "name": "C5",
          "ticks": 152520,
          "time": 285.732071025,
          "velocity": 0.6299212598425197
        },
        {
          "duration": 0.19852942500006066,
          "durationTicks": 108,
          "midi": 77,
          "name": "F5",
          "ticks": 152640,
          "time": 285.952659275,
          "velocity": 0.6299212598425197
        },
        {
          "duration": 0.1985294250000038,
          "durationTicks": 108,
          "midi": 73,
          "name": "C#5",
          "ticks": 152760,
          "time": 286.173247525,
          "velocity": 0.6299212598425197
        },
        {
          "duration": 0.1985294250000038,
          "durationTicks": 108,
          "midi": 75,
          "name": "D#5",
          "ticks": 152880,
          "time": 286.393835775,
          "velocity": 0.6299212598425197
        },
        {
          "duration": 0.1985294250000038,
          "durationTicks": 108,
          "midi": 77,
          "name": "F5",
          "ticks": 153000,
          "time": 286.614424025,
          "velocity": 0.6299212598425197
        },
        {
          "duration": 0.1985294250000038,
          "durationTicks": 108,
          "midi": 85,
          "name": "C#6",
          "ticks": 153120,
          "time": 286.835012275,
          "velocity": 0.6299212598425197
        },
        {
          "duration": 0.19852942500006066,
          "durationTicks": 108,
          "midi": 77,
          "name": "F5",
          "ticks": 153240,
          "time": 287.055600525,
          "velocity": 0.6299212598425197
        },
        {
          "duration": 0.19852942500006066,
          "durationTicks": 108,
          "midi": 75,
          "name": "D#5",
          "ticks": 153360,
          "time": 287.276188775,
          "velocity": 0.6299212598425197
        },
        {
          "duration": 0.1985294250000038,
          "durationTicks": 108,
          "midi": 73,
          "name": "C#5",
          "ticks": 153480,
          "time": 287.49677702500003,
          "velocity": 0.6299212598425197
        },
        {
          "duration": 0.1985294250000038,
          "durationTicks": 108,
          "midi": 77,
          "name": "F5",
          "ticks": 153600,
          "time": 287.717365275,
          "velocity": 0.6299212598425197
        },
        {
          "duration": 0.1985294250000038,
          "durationTicks": 108,
          "midi": 73,
          "name": "C#5",
          "ticks": 153720,
          "time": 287.937953525,
          "velocity": 0.6299212598425197
        },
        {
          "duration": 0.1985294250000038,
          "durationTicks": 108,
          "midi": 75,
          "name": "D#5",
          "ticks": 153840,
          "time": 288.158541775,
          "velocity": 0.6299212598425197
        },
        {
          "duration": 0.1985294250000038,
          "durationTicks": 108,
          "midi": 77,
          "name": "F5",
          "ticks": 153960,
          "time": 288.379130025,
          "velocity": 0.6299212598425197
        },
        {
          "duration": 0.19852942500006066,
          "durationTicks": 108,
          "midi": 84,
          "name": "C6",
          "ticks": 154080,
          "time": 288.599718275,
          "velocity": 0.6299212598425197
        },
        {
          "duration": 0.19852942500006066,
          "durationTicks": 108,
          "midi": 77,
          "name": "F5",
          "ticks": 154200,
          "time": 288.820306525,
          "velocity": 0.6299212598425197
        },
        {
          "duration": 0.1985294250000038,
          "durationTicks": 108,
          "midi": 75,
          "name": "D#5",
          "ticks": 154320,
          "time": 289.040894775,
          "velocity": 0.6299212598425197
        },
        {
          "duration": 0.1985294250000038,
          "durationTicks": 108,
          "midi": 73,
          "name": "C#5",
          "ticks": 154440,
          "time": 289.261483025,
          "velocity": 0.6299212598425197
        },
        {
          "duration": 0.1985294250000038,
          "durationTicks": 108,
          "midi": 77,
          "name": "F5",
          "ticks": 154560,
          "time": 289.482071275,
          "velocity": 0.6299212598425197
        },
        {
          "duration": 0.1985294250000038,
          "durationTicks": 108,
          "midi": 70,
          "name": "A#4",
          "ticks": 154680,
          "time": 289.702659525,
          "velocity": 0.6299212598425197
        },
        {
          "duration": 0.1985294250000038,
          "durationTicks": 108,
          "midi": 75,
          "name": "D#5",
          "ticks": 154800,
          "time": 289.923247775,
          "velocity": 0.6299212598425197
        },
        {
          "duration": 0.19852942500006066,
          "durationTicks": 108,
          "midi": 77,
          "name": "F5",
          "ticks": 154920,
          "time": 290.143836025,
          "velocity": 0.6299212598425197
        },
        {
          "duration": 0.19852942500006066,
          "durationTicks": 108,
          "midi": 82,
          "name": "A#5",
          "ticks": 155040,
          "time": 290.364424275,
          "velocity": 0.6299212598425197
        },
        {
          "duration": 0.1985294250000038,
          "durationTicks": 108,
          "midi": 77,
          "name": "F5",
          "ticks": 155160,
          "time": 290.585012525,
          "velocity": 0.6299212598425197
        },
        {
          "duration": 0.1985294250000038,
          "durationTicks": 108,
          "midi": 75,
          "name": "D#5",
          "ticks": 155280,
          "time": 290.805600775,
          "velocity": 0.6299212598425197
        },
        {
          "duration": 0.1985294250000038,
          "durationTicks": 108,
          "midi": 70,
          "name": "A#4",
          "ticks": 155400,
          "time": 291.026189025,
          "velocity": 0.6299212598425197
        },
        {
          "duration": 0.1985294250000038,
          "durationTicks": 108,
          "midi": 77,
          "name": "F5",
          "ticks": 155520,
          "time": 291.246777275,
          "velocity": 0.6299212598425197
        },
        {
          "duration": 0.1985294250000038,
          "durationTicks": 108,
          "midi": 72,
          "name": "C5",
          "ticks": 155640,
          "time": 291.467365525,
          "velocity": 0.6299212598425197
        },
        {
          "duration": 0.19852942500006066,
          "durationTicks": 108,
          "midi": 75,
          "name": "D#5",
          "ticks": 155760,
          "time": 291.687953775,
          "velocity": 0.6299212598425197
        },
        {
          "duration": 0.19852942500006066,
          "durationTicks": 108,
          "midi": 77,
          "name": "F5",
          "ticks": 155880,
          "time": 291.908542025,
          "velocity": 0.6299212598425197
        },
        {
          "duration": 0.1985294250000038,
          "durationTicks": 108,
          "midi": 84,
          "name": "C6",
          "ticks": 156000,
          "time": 292.129130275,
          "velocity": 0.6299212598425197
        },
        {
          "duration": 0.1985294250000038,
          "durationTicks": 108,
          "midi": 77,
          "name": "F5",
          "ticks": 156120,
          "time": 292.349718525,
          "velocity": 0.6299212598425197
        },
        {
          "duration": 0.1985294250000038,
          "durationTicks": 108,
          "midi": 75,
          "name": "D#5",
          "ticks": 156240,
          "time": 292.570306775,
          "velocity": 0.6299212598425197
        },
        {
          "duration": 0.1985294250000038,
          "durationTicks": 108,
          "midi": 72,
          "name": "C5",
          "ticks": 156360,
          "time": 292.790895025,
          "velocity": 0.6299212598425197
        },
        {
          "duration": 0.1985294250000038,
          "durationTicks": 108,
          "midi": 77,
          "name": "F5",
          "ticks": 156480,
          "time": 293.011483275,
          "velocity": 0.6299212598425197
        },
        {
          "duration": 0.19852942500006066,
          "durationTicks": 108,
          "midi": 73,
          "name": "C#5",
          "ticks": 156600,
          "time": 293.232071525,
          "velocity": 0.6299212598425197
        },
        {
          "duration": 0.1985294250000038,
          "durationTicks": 108,
          "midi": 75,
          "name": "D#5",
          "ticks": 156720,
          "time": 293.45265977500003,
          "velocity": 0.6299212598425197
        },
        {
          "duration": 0.1985294250000038,
          "durationTicks": 108,
          "midi": 77,
          "name": "F5",
          "ticks": 156840,
          "time": 293.673248025,
          "velocity": 0.6299212598425197
        },
        {
          "duration": 0.1985294250000038,
          "durationTicks": 108,
          "midi": 85,
          "name": "C#6",
          "ticks": 156960,
          "time": 293.893836275,
          "velocity": 0.6299212598425197
        },
        {
          "duration": 0.1985294250000038,
          "durationTicks": 108,
          "midi": 77,
          "name": "F5",
          "ticks": 157080,
          "time": 294.114424525,
          "velocity": 0.6299212598425197
        },
        {
          "duration": 0.1985294250000038,
          "durationTicks": 108,
          "midi": 75,
          "name": "D#5",
          "ticks": 157200,
          "time": 294.335012775,
          "velocity": 0.6299212598425197
        },
        {
          "duration": 0.19852942500006066,
          "durationTicks": 108,
          "midi": 73,
          "name": "C#5",
          "ticks": 157320,
          "time": 294.555601025,
          "velocity": 0.6299212598425197
        },
        {
          "duration": 0.19852942500006066,
          "durationTicks": 108,
          "midi": 84,
          "name": "C6",
          "ticks": 157440,
          "time": 294.776189275,
          "velocity": 0.6299212598425197
        },
        {
          "duration": 0.1985294250000038,
          "durationTicks": 108,
          "midi": 77,
          "name": "F5",
          "ticks": 157560,
          "time": 294.996777525,
          "velocity": 0.6299212598425197
        },
        {
          "duration": 0.1985294250000038,
          "durationTicks": 108,
          "midi": 75,
          "name": "D#5",
          "ticks": 157680,
          "time": 295.217365775,
          "velocity": 0.6299212598425197
        },
        {
          "duration": 0.1985294250000038,
          "durationTicks": 108,
          "midi": 73,
          "name": "C#5",
          "ticks": 157800,
          "time": 295.437954025,
          "velocity": 0.6299212598425197
        },
        {
          "duration": 0.1985294250000038,
          "durationTicks": 108,
          "midi": 82,
          "name": "A#5",
          "ticks": 157920,
          "time": 295.658542275,
          "velocity": 0.6299212598425197
        },
        {
          "duration": 0.1985294250000038,
          "durationTicks": 108,
          "midi": 77,
          "name": "F5",
          "ticks": 158040,
          "time": 295.879130525,
          "velocity": 0.6299212598425197
        },
        {
          "duration": 0.19852942500006066,
          "durationTicks": 108,
          "midi": 75,
          "name": "D#5",
          "ticks": 158160,
          "time": 296.099718775,
          "velocity": 0.6299212598425197
        },
        {
          "duration": 0.19852942500006066,
          "durationTicks": 108,
          "midi": 73,
          "name": "C#5",
          "ticks": 158280,
          "time": 296.320307025,
          "velocity": 0.6299212598425197
        },
        {
          "duration": 0.1985294250000038,
          "durationTicks": 108,
          "midi": 77,
          "name": "F5",
          "ticks": 158400,
          "time": 296.540895275,
          "velocity": 0.6299212598425197
        },
        {
          "duration": 0.1985294250000038,
          "durationTicks": 108,
          "midi": 70,
          "name": "A#4",
          "ticks": 158520,
          "time": 296.761483525,
          "velocity": 0.6299212598425197
        },
        {
          "duration": 0.1985294250000038,
          "durationTicks": 108,
          "midi": 72,
          "name": "C5",
          "ticks": 158640,
          "time": 296.982071775,
          "velocity": 0.6299212598425197
        },
        {
          "duration": 0.1985294250000038,
          "durationTicks": 108,
          "midi": 73,
          "name": "C#5",
          "ticks": 158760,
          "time": 297.202660025,
          "velocity": 0.6299212598425197
        },
        {
          "duration": 0.1985294250000038,
          "durationTicks": 108,
          "midi": 77,
          "name": "F5",
          "ticks": 158880,
          "time": 297.423248275,
          "velocity": 0.6299212598425197
        },
        {
          "duration": 0.19852942500006066,
          "durationTicks": 108,
          "midi": 73,
          "name": "C#5",
          "ticks": 159000,
          "time": 297.643836525,
          "velocity": 0.6299212598425197
        },
        {
          "duration": 0.19852942500006066,
          "durationTicks": 108,
          "midi": 72,
          "name": "C5",
          "ticks": 159120,
          "time": 297.864424775,
          "velocity": 0.6299212598425197
        },
        {
          "duration": 0.1985294250000038,
          "durationTicks": 108,
          "midi": 70,
          "name": "A#4",
          "ticks": 159240,
          "time": 298.085013025,
          "velocity": 0.6299212598425197
        },
        {
          "duration": 0.1985294250000038,
          "durationTicks": 108,
          "midi": 77,
          "name": "F5",
          "ticks": 159360,
          "time": 298.305601275,
          "velocity": 0.6299212598425197
        },
        {
          "duration": 0.1985294250000038,
          "durationTicks": 108,
          "midi": 70,
          "name": "A#4",
          "ticks": 159480,
          "time": 298.526189525,
          "velocity": 0.6299212598425197
        },
        {
          "duration": 0.1985294250000038,
          "durationTicks": 108,
          "midi": 72,
          "name": "C5",
          "ticks": 159600,
          "time": 298.746777775,
          "velocity": 0.6299212598425197
        },
        {
          "duration": 0.1985294250000038,
          "durationTicks": 108,
          "midi": 73,
          "name": "C#5",
          "ticks": 159720,
          "time": 298.967366025,
          "velocity": 0.6299212598425197
        },
        {
          "duration": 0.19852942500006066,
          "durationTicks": 108,
          "midi": 75,
          "name": "D#5",
          "ticks": 159840,
          "time": 299.187954275,
          "velocity": 0.6299212598425197
        },
        {
          "duration": 0.19852942500006066,
          "durationTicks": 108,
          "midi": 73,
          "name": "C#5",
          "ticks": 159960,
          "time": 299.408542525,
          "velocity": 0.6299212598425197
        },
        {
          "duration": 0.1985294250000038,
          "durationTicks": 108,
          "midi": 72,
          "name": "C5",
          "ticks": 160080,
          "time": 299.629130775,
          "velocity": 0.6299212598425197
        },
        {
          "duration": 0.1985294250000038,
          "durationTicks": 108,
          "midi": 70,
          "name": "A#4",
          "ticks": 160200,
          "time": 299.849719025,
          "velocity": 0.6299212598425197
        },
        {
          "duration": 0.1985294250000038,
          "durationTicks": 108,
          "midi": 73,
          "name": "C#5",
          "ticks": 160320,
          "time": 300.070307275,
          "velocity": 0.6299212598425197
        },
        {
          "duration": 0.1985294250000038,
          "durationTicks": 108,
          "midi": 65,
          "name": "F4",
          "ticks": 160440,
          "time": 300.290895525,
          "velocity": 0.6299212598425197
        },
        {
          "duration": 0.19852942500006066,
          "durationTicks": 108,
          "midi": 70,
          "name": "A#4",
          "ticks": 160560,
          "time": 300.511483775,
          "velocity": 0.6299212598425197
        },
        {
          "duration": 0.19852942500006066,
          "durationTicks": 108,
          "midi": 72,
          "name": "C5",
          "ticks": 160680,
          "time": 300.732072025,
          "velocity": 0.6299212598425197
        },
        {
          "duration": 0.1985294250000038,
          "durationTicks": 108,
          "midi": 73,
          "name": "C#5",
          "ticks": 160800,
          "time": 300.952660275,
          "velocity": 0.6299212598425197
        },
        {
          "duration": 0.1985294250000038,
          "durationTicks": 108,
          "midi": 72,
          "name": "C5",
          "ticks": 160920,
          "time": 301.173248525,
          "velocity": 0.6299212598425197
        },
        {
          "duration": 0.1985294250000038,
          "durationTicks": 108,
          "midi": 70,
          "name": "A#4",
          "ticks": 161040,
          "time": 301.393836775,
          "velocity": 0.6299212598425197
        },
        {
          "duration": 0.1985294250000038,
          "durationTicks": 108,
          "midi": 65,
          "name": "F4",
          "ticks": 161160,
          "time": 301.614425025,
          "velocity": 0.6299212598425197
        },
        {
          "duration": 0.7941176999999584,
          "durationTicks": 432,
          "midi": 61,
          "name": "C#4",
          "ticks": 161280,
          "time": 301.835013275,
          "velocity": 0.6299212598425197
        },
        {
          "duration": 0.7941176999999584,
          "durationTicks": 432,
          "midi": 75,
          "name": "D#5",
          "ticks": 161760,
          "time": 302.717366275,
          "velocity": 0.6299212598425197
        },
        {
          "duration": 0.3970588500000076,
          "durationTicks": 216,
          "midi": 75,
          "name": "D#5",
          "ticks": 162240,
          "time": 303.599719275,
          "velocity": 0.6299212598425197
        },
        {
          "duration": 0.3970588499999508,
          "durationTicks": 216,
          "midi": 77,
          "name": "F5",
          "ticks": 162480,
          "time": 304.040895775,
          "velocity": 0.6299212598425197
        },
        {
          "duration": 0.7941176999999584,
          "durationTicks": 432,
          "midi": 70,
          "name": "A#4",
          "ticks": 162720,
          "time": 304.482072275,
          "velocity": 0.6299212598425197
        },
        {
          "duration": 0.3970588500000076,
          "durationTicks": 216,
          "midi": 75,
          "name": "D#5",
          "ticks": 163200,
          "time": 305.364425275,
          "velocity": 0.6299212598425197
        },
        {
          "duration": 0.3970588499999508,
          "durationTicks": 216,
          "midi": 77,
          "name": "F5",
          "ticks": 163440,
          "time": 305.805601775,
          "velocity": 0.6299212598425197
        },
        {
          "duration": 0.3970588500000076,
          "durationTicks": 216,
          "midi": 70,
          "name": "A#4",
          "ticks": 163680,
          "time": 306.246778275,
          "velocity": 0.6299212598425197
        },
        {
          "duration": 0.3970588500000076,
          "durationTicks": 216,
          "midi": 68,
          "name": "G#4",
          "ticks": 163920,
          "time": 306.687954775,
          "velocity": 0.6299212598425197
        },
        {
          "duration": 2.6999999999999886,
          "durationTicks": 1728,
          "midi": 70,
          "name": "A#4",
          "ticks": 164160,
          "time": 307.129131275,
          "velocity": 0.6299212598425197
        },
        {
          "duration": 0.44999999999998863,
          "durationTicks": 216,
          "midi": 68,
          "name": "G#4",
          "ticks": 166080,
          "time": 310.129131275,
          "velocity": 0.6299212598425197
        },
        {
          "duration": 0.44999999999998863,
          "durationTicks": 216,
          "midi": 72,
          "name": "C5",
          "ticks": 166320,
          "time": 310.629131275,
          "velocity": 0.6299212598425197
        },
        {
          "duration": 0.27625000000000455,
          "durationTicks": 216,
          "midi": 73,
          "name": "C#5",
          "ticks": 166560,
          "time": 311.129131275,
          "velocity": 0.6299212598425197
        },
        {
          "duration": 0.44999999999998863,
          "durationTicks": 216,
          "midi": 77,
          "name": "F5",
          "ticks": 166800,
          "time": 311.45538127500004,
          "velocity": 0.6299212598425197
        },
        {
          "duration": 0.44999999999998863,
          "durationTicks": 216,
          "midi": 75,
          "name": "D#5",
          "ticks": 167040,
          "time": 311.95538127500004,
          "velocity": 0.6299212598425197
        },
        {
          "duration": 0.44999999999998863,
          "durationTicks": 216,
          "midi": 82,
          "name": "A#5",
          "ticks": 167280,
          "time": 312.45538127500004,
          "velocity": 0.6299212598425197
        },
        {
          "duration": 0.44999999999998863,
          "durationTicks": 216,
          "midi": 80,
          "name": "G#5",
          "ticks": 167520,
          "time": 312.95538127500004,
          "velocity": 0.6299212598425197
        },
        {
          "duration": 0.44999999999998863,
          "durationTicks": 216,
          "midi": 84,
          "name": "C6",
          "ticks": 167760,
          "time": 313.45538127500004,
          "velocity": 0.6299212598425197
        },
        {
          "duration": 1.8000000000000114,
          "durationTicks": 864,
          "midi": 89,
          "name": "F6",
          "ticks": 168000,
          "time": 313.95538127500004,
          "velocity": 0.6299212598425197
        }
      ],
      "endOfTrackTicks": 169920
    },
    {
      "channel": 0,
      "controlChanges": {
        "0": [
          {
            "number": 0,
            "ticks": 30,
            "time": 0.06818181250000001,
            "value": 0.5039370078740157
          },
          {
            "number": 0,
            "ticks": 5730,
            "time": 15.872796208333332,
            "value": 0.5039370078740157
          },
          {
            "number": 0,
            "ticks": 7650,
            "time": 19.4269062125,
            "value": 0.5039370078740157
          },
          {
            "number": 0,
            "ticks": 9556,
            "time": 22.930582916666665,
            "value": 0.5039370078740157
          },
          {
            "number": 0,
            "ticks": 11506,
            "time": 26.515141979166664,
            "value": 0.5039370078740157
          },
          {
            "number": 0,
            "ticks": 13410,
            "time": 30.0151422125,
            "value": 0.5039370078740157
          },
          {
            "number": 0,
            "ticks": 15346,
            "time": 33.573965979166665,
            "value": 0.5039370078740157
          },
          {
            "number": 0,
            "ticks": 17250,
            "time": 37.0739662125,
            "value": 0.5039370078740157
          },
          {
            "number": 0,
            "ticks": 19156,
            "time": 40.57764291666667,
            "value": 0.5039370078740157
          },
          {
            "number": 0,
            "ticks": 23010,
            "time": 47.6622022125,
            "value": 0.5039370078740157
          },
          {
            "number": 0,
            "ticks": 24946,
            "time": 51.22102597916666,
            "value": 0.5039370078740157
          },
          {
            "number": 0,
            "ticks": 26850,
            "time": 54.72102621249999,
            "value": 0.5039370078740157
          },
          {
            "number": 0,
            "ticks": 28770,
            "time": 58.25043821249999,
            "value": 0.5039370078740157
          },
          {
            "number": 0,
            "ticks": 28770,
            "time": 58.25043821249999,
            "value": 0.5039370078740157
          },
          {
            "number": 0,
            "ticks": 30706,
            "time": 61.809261979166656,
            "value": 0.5039370078740157
          },
          {
            "number": 0,
            "ticks": 32626,
            "time": 65.33867397916666,
            "value": 0.5039370078740157
          },
          {
            "number": 0,
            "ticks": 34530,
            "time": 68.8386742125,
            "value": 0.5039370078740157
          },
          {
            "number": 0,
            "ticks": 36450,
            "time": 72.3680862125,
            "value": 0.5039370078740157
          },
          {
            "number": 0,
            "ticks": 36510,
            "time": 72.4783803375,
            "value": 0.5039370078740157
          },
          {
            "number": 0,
            "ticks": 38370,
            "time": 75.8974982125,
            "value": 0.5039370078740157
          },
          {
            "number": 0,
            "ticks": 40290,
            "time": 79.42691021249999,
            "value": 0.5039370078740157
          },
          {
            "number": 0,
            "ticks": 42210,
            "time": 82.9563222125,
            "value": 0.5039370078740157
          },
          {
            "number": 0,
            "ticks": 44130,
            "time": 86.4857342125,
            "value": 0.5039370078740157
          },
          {
            "number": 0,
            "ticks": 46050,
            "time": 90.0151462125,
            "value": 0.5039370078740157
          },
          {
            "number": 0,
            "ticks": 47970,
            "time": 93.5445582125,
            "value": 0.5039370078740157
          },
          {
            "number": 0,
            "ticks": 49890,
            "time": 97.0739702125,
            "value": 0.5039370078740157
          },
          {
            "number": 0,
            "ticks": 53730,
            "time": 104.1327942125,
            "value": 0.5039370078740157
          },
          {
            "number": 0,
            "ticks": 55650,
            "time": 107.6622062125,
            "value": 0.5039370078740157
          },
          {
            "number": 0,
            "ticks": 57570,
            "time": 111.1916182125,
            "value": 0.5039370078740157
          },
          {
            "number": 0,
            "ticks": 59490,
            "time": 114.7210302125,
            "value": 0.5039370078740157
          },
          {
            "number": 0,
            "ticks": 61410,
            "time": 118.2504422125,
            "value": 0.5039370078740157
          },
          {
            "number": 0,
            "ticks": 63330,
            "time": 121.7798542125,
            "value": 0.5039370078740157
          },
          {
            "number": 0,
            "ticks": 65250,
            "time": 125.30926621249999,
            "value": 0.5039370078740157
          },
          {
            "number": 0,
            "ticks": 67170,
            "time": 128.83867821249999,
            "value": 0.5039370078740157
          },
          {
            "number": 0,
            "ticks": 69090,
            "time": 132.3680902125,
            "value": 0.5039370078740157
          },
          {
            "number": 0,
            "ticks": 70996,
            "time": 135.87176691666664,
            "value": 0.5039370078740157
          },
          {
            "number": 0,
            "ticks": 72946,
            "time": 139.45632597916665,
            "value": 0.5039370078740157
          },
          {
            "number": 0,
            "ticks": 88306,
            "time": 167.69162197916665,
            "value": 0.5039370078740157
          },
          {
            "number": 0,
            "ticks": 90210,
            "time": 171.1916222125,
            "value": 0.5039370078740157
          },
          {
            "number": 0,
            "ticks": 92146,
            "time": 174.75044597916664,
            "value": 0.5039370078740157
          },
          {
            "number": 0,
            "ticks": 94050,
            "time": 178.25044621249998,
            "value": 0.5039370078740157
          },
          {
            "number": 0,
            "ticks": 95986,
            "time": 181.80926997916666,
            "value": 0.5039370078740157
          },
          {
            "number": 0,
            "ticks": 97906,
            "time": 185.33868197916664,
            "value": 0.5039370078740157
          },
          {
            "number": 0,
            "ticks": 99810,
            "time": 188.83868221249998,
            "value": 0.5039370078740157
          },
          {
            "number": 0,
            "ticks": 101716,
            "time": 192.34235891666665,
            "value": 0.5039370078740157
          },
          {
            "number": 0,
            "ticks": 103650,
            "time": 195.8975062125,
            "value": 0.5039370078740157
          },
          {
            "number": 0,
            "ticks": 107490,
            "time": 202.95633021249998,
            "value": 0.5039370078740157
          },
          {
            "number": 0,
            "ticks": 109410,
            "time": 206.48574221249999,
            "value": 0.5039370078740157
          },
          {
            "number": 0,
            "ticks": 111330,
            "time": 210.01515421249997,
            "value": 0.5039370078740157
          },
          {
            "number": 0,
            "ticks": 113266,
            "time": 213.57397797916664,
            "value": 0.5039370078740157
          },
          {
            "number": 0,
            "ticks": 115186,
            "time": 217.10338997916665,
            "value": 0.5039370078740157
          },
          {
            "number": 0,
            "ticks": 117106,
            "time": 220.63280197916663,
            "value": 0.5039370078740157
          },
          {
            "number": 0,
            "ticks": 119010,
            "time": 224.13280221249997,
            "value": 0.5039370078740157
          },
          {
            "number": 0,
            "ticks": 119986,
            "time": 225.92691997916666,
            "value": 0.5039370078740157
          },
          {
            "number": 0,
            "ticks": 132436,
            "time": 248.81295091666667,
            "value": 0.5039370078740157
          },
          {
            "number": 0,
            "ticks": 134370,
            "time": 252.36809821249997,
            "value": 0.5039370078740157
          },
          {
            "number": 0,
            "ticks": 137236,
            "time": 257.6364809166667,
            "value": 0.5039370078740157
          },
          {
            "number": 0,
            "ticks": 139170,
            "time": 261.1916282125,
            "value": 0.5039370078740157
          },
          {
            "number": 0,
            "ticks": 141090,
            "time": 264.7210402125,
            "value": 0.5039370078740157
          },
          {
            "number": 0,
            "ticks": 143010,
            "time": 268.25045221249997,
            "value": 0.5039370078740157
          },
          {
            "number": 0,
            "ticks": 144946,
            "time": 271.80927597916667,
            "value": 0.5039370078740157
          },
          {
            "number": 0,
            "ticks": 146836,
            "time": 275.2835409166667,
            "value": 0.5039370078740157
          },
          {
            "number": 0,
            "ticks": 148786,
            "time": 278.8680999791667,
            "value": 0.5039370078740157
          },
          {
            "number": 0,
            "ticks": 150706,
            "time": 282.39751197916667,
            "value": 0.5039370078740157
          },
          {
            "number": 0,
            "ticks": 151666,
            "time": 284.1622179791667,
            "value": 0.5039370078740157
          },
          {
            "number": 0,
            "ticks": 152626,
            "time": 285.9269239791667,
            "value": 0.5039370078740157
          },
          {
            "number": 0,
            "ticks": 153570,
            "time": 287.6622182125,
            "value": 0.5039370078740157
          },
          {
            "number": 0,
            "ticks": 154546,
            "time": 289.4563359791667,
            "value": 0.5039370078740157
          },
          {
            "number": 0,
            "ticks": 155506,
            "time": 291.22104197916667,
            "value": 0.5039370078740157
          },
          {
            "number": 0,
            "ticks": 156450,
            "time": 292.9563362125,
            "value": 0.5039370078740157
          },
          {
            "number": 0,
            "ticks": 157426,
            "time": 294.7504539791667,
            "value": 0.5039370078740157
          },
          {
            "number": 0,
            "ticks": 158356,
            "time": 296.4600129166667,
            "value": 0.5039370078740157
          },
          {
            "number": 0,
            "ticks": 159330,
            "time": 298.2504542125,
            "value": 0.5039370078740157
          },
          {
            "number": 0,
            "ticks": 160290,
            "time": 300.0151602125,
            "value": 0.5039370078740157
          },
          {
            "number": 0,
            "ticks": 161250,
            "time": 301.7798662125,
            "value": 0.5039370078740157
          },
          {
            "number": 0,
            "ticks": 162226,
            "time": 303.5739839791667,
            "value": 0.5039370078740157
          },
          {
            "number": 0,
            "ticks": 163170,
            "time": 305.3092782125,
            "value": 0.5039370078740157
          },
          {
            "number": 0,
            "ticks": 164130,
            "time": 307.0739842125,
            "value": 0.5039370078740157
          }
        ],
        "10": [
          {
            "number": 10,
            "ticks": 0,
            "time": 0,
            "value": 0.5039370078740157
          }
        ],
        "106": [
          {
            "number": 106,
            "ticks": 46,
            "time": 0.10454544583333335,
            "value": 0.5039370078740157
          },
          {
            "number": 106,
            "ticks": 3886,
            "time": 8.834133033333334,
            "value": 0.5039370078740157
          },
          {
            "number": 106,
            "ticks": 63374,
            "time": 121.86073657083334,
            "value": 0.5039370078740157
          },
          {
            "number": 106,
            "ticks": 65294,
            "time": 125.39014857083333,
            "value": 0.5039370078740157
          },
          {
            "number": 106,
            "ticks": 67214,
            "time": 128.9195605708333,
            "value": 0.5039370078740157
          },
          {
            "number": 106,
            "ticks": 69134,
            "time": 132.44897257083332,
            "value": 0.5039370078740157
          },
          {
            "number": 106,
            "ticks": 71040,
            "time": 135.952649275,
            "value": 0.5039370078740157
          },
          {
            "number": 106,
            "ticks": 74894,
            "time": 143.03720857083331,
            "value": 0.5039370078740157
          },
          {
            "number": 106,
            "ticks": 80654,
            "time": 153.6254445708333,
            "value": 0.5039370078740157
          },
          {
            "number": 106,
            "ticks": 82574,
            "time": 157.15485657083332,
            "value": 0.5039370078740157
          },
          {
            "number": 106,
            "ticks": 84510,
            "time": 160.7136803375,
            "value": 0.5039370078740157
          },
          {
            "number": 106,
            "ticks": 86430,
            "time": 164.24309233749997,
            "value": 0.5039370078740157
          },
          {
            "number": 106,
            "ticks": 88350,
            "time": 167.77250433749998,
            "value": 0.5039370078740157
          },
          {
            "number": 106,
            "ticks": 90254,
            "time": 171.27250457083332,
            "value": 0.5039370078740157
          },
          {
            "number": 106,
            "ticks": 92190,
            "time": 174.83132833749997,
            "value": 0.5039370078740157
          },
          {
            "number": 106,
            "ticks": 94094,
            "time": 178.3313285708333,
            "value": 0.5039370078740157
          },
          {
            "number": 106,
            "ticks": 96030,
            "time": 181.89015233749998,
            "value": 0.5039370078740157
          },
          {
            "number": 106,
            "ticks": 97950,
            "time": 185.4195643375,
            "value": 0.5039370078740157
          },
          {
            "number": 106,
            "ticks": 99854,
            "time": 188.9195645708333,
            "value": 0.5039370078740157
          },
          {
            "number": 106,
            "ticks": 101760,
            "time": 192.42324127499998,
            "value": 0.5039370078740157
          },
          {
            "number": 106,
            "ticks": 103694,
            "time": 195.97838857083332,
            "value": 0.5039370078740157
          },
          {
            "number": 106,
            "ticks": 105614,
            "time": 199.50780057083333,
            "value": 0.5039370078740157
          },
          {
            "number": 106,
            "ticks": 107534,
            "time": 203.0372125708333,
            "value": 0.5039370078740157
          },
          {
            "number": 106,
            "ticks": 109454,
            "time": 206.5666245708333,
            "value": 0.5039370078740157
          },
          {
            "number": 106,
            "ticks": 111374,
            "time": 210.09603657083332,
            "value": 0.5039370078740157
          },
          {
            "number": 106,
            "ticks": 113310,
            "time": 213.65486033749997,
            "value": 0.5039370078740157
          },
          {
            "number": 106,
            "ticks": 115230,
            "time": 217.18427233749998,
            "value": 0.5039370078740157
          },
          {
            "number": 106,
            "ticks": 117150,
            "time": 220.71368433749998,
            "value": 0.5039370078740157
          },
          {
            "number": 106,
            "ticks": 119054,
            "time": 224.21368457083332,
            "value": 0.5039370078740157
          },
          {
            "number": 106,
            "ticks": 130590,
            "time": 245.41956833749998,
            "value": 0.5039370078740157
          },
          {
            "number": 106,
            "ticks": 132480,
            "time": 248.89383327499996,
            "value": 0.5039370078740157
          },
          {
            "number": 106,
            "ticks": 135374,
            "time": 254.2136865708333,
            "value": 0.5039370078740157
          },
          {
            "number": 106,
            "ticks": 137280,
            "time": 257.71736327499997,
            "value": 0.5039370078740157
          },
          {
            "number": 106,
            "ticks": 139214,
            "time": 261.2725105708333,
            "value": 0.5039370078740157
          },
          {
            "number": 106,
            "ticks": 141134,
            "time": 264.8019225708333,
            "value": 0.5039370078740157
          },
          {
            "number": 106,
            "ticks": 143054,
            "time": 268.3313345708333,
            "value": 0.5039370078740157
          },
          {
            "number": 106,
            "ticks": 144990,
            "time": 271.8901583375,
            "value": 0.5039370078740157
          },
          {
            "number": 106,
            "ticks": 146880,
            "time": 275.364423275,
            "value": 0.5039370078740157
          },
          {
            "number": 106,
            "ticks": 148830,
            "time": 278.9489823375,
            "value": 0.5039370078740157
          },
          {
            "number": 106,
            "ticks": 150750,
            "time": 282.4783943375,
            "value": 0.5039370078740157
          },
          {
            "number": 106,
            "ticks": 151710,
            "time": 284.2431003375,
            "value": 0.5039370078740157
          },
          {
            "number": 106,
            "ticks": 152670,
            "time": 286.0078063375,
            "value": 0.5039370078740157
          },
          {
            "number": 106,
            "ticks": 153614,
            "time": 287.7431005708333,
            "value": 0.5039370078740157
          },
          {
            "number": 106,
            "ticks": 154590,
            "time": 289.5372183375,
            "value": 0.5039370078740157
          },
          {
            "number": 106,
            "ticks": 155550,
            "time": 291.3019243375,
            "value": 0.5039370078740157
          },
          {
            "number": 106,
            "ticks": 156494,
            "time": 293.0372185708333,
            "value": 0.5039370078740157
          },
          {
            "number": 106,
            "ticks": 157470,
            "time": 294.8313363375,
            "value": 0.5039370078740157
          },
          {
            "number": 106,
            "ticks": 158400,
            "time": 296.540895275,
            "value": 0.5039370078740157
          },
          {
            "number": 106,
            "ticks": 159374,
            "time": 298.3313365708333,
            "value": 0.5039370078740157
          },
          {
            "number": 106,
            "ticks": 160334,
            "time": 300.09604257083333,
            "value": 0.5039370078740157
          },
          {
            "number": 106,
            "ticks": 161294,
            "time": 301.8607485708333,
            "value": 0.5039370078740157
          },
          {
            "number": 106,
            "ticks": 162270,
            "time": 303.6548663375,
            "value": 0.5039370078740157
          },
          {
            "number": 106,
            "ticks": 163214,
            "time": 305.3901605708333,
            "value": 0.5039370078740157
          },
          {
            "number": 106,
            "ticks": 164174,
            "time": 307.15100627500004,
            "value": 0.5039370078740157
          }
        ],
        "107": [
          {
            "number": 107,
            "ticks": 1980,
            "time": 4.499999625000001,
            "value": 0.5039370078740157
          },
          {
            "number": 107,
            "ticks": 5790,
            "time": 16.0077883375,
            "value": 0.5039370078740157
          },
          {
            "number": 107,
            "ticks": 7710,
            "time": 19.5372003375,
            "value": 0.5039370078740157
          },
          {
            "number": 107,
            "ticks": 9616,
            "time": 23.040877041666665,
            "value": 0.5039370078740157
          },
          {
            "number": 107,
            "ticks": 11566,
            "time": 26.625436104166667,
            "value": 0.5039370078740157
          },
          {
            "number": 107,
            "ticks": 13470,
            "time": 30.1254363375,
            "value": 0.5039370078740157
          },
          {
            "number": 107,
            "ticks": 15406,
            "time": 33.68426010416667,
            "value": 0.5039370078740157
          },
          {
            "number": 107,
            "ticks": 17310,
            "time": 37.1842603375,
            "value": 0.5039370078740157
          },
          {
            "number": 107,
            "ticks": 21150,
            "time": 44.2430843375,
            "value": 0.5039370078740157
          },
          {
            "number": 107,
            "ticks": 23070,
            "time": 47.772496337499994,
            "value": 0.5039370078740157
          },
          {
            "number": 107,
            "ticks": 25006,
            "time": 51.33132010416666,
            "value": 0.5039370078740157
          },
          {
            "number": 107,
            "ticks": 26910,
            "time": 54.831320337499996,
            "value": 0.5039370078740157
          },
          {
            "number": 107,
            "ticks": 28830,
            "time": 58.360732337499996,
            "value": 0.5039370078740157
          },
          {
            "number": 107,
            "ticks": 30766,
            "time": 61.91955610416666,
            "value": 0.5039370078740157
          },
          {
            "number": 107,
            "ticks": 32686,
            "time": 65.44896810416667,
            "value": 0.5039370078740157
          },
          {
            "number": 107,
            "ticks": 34590,
            "time": 68.94896833749999,
            "value": 0.5039370078740157
          },
          {
            "number": 107,
            "ticks": 36510,
            "time": 72.4783803375,
            "value": 0.5039370078740157
          },
          {
            "number": 107,
            "ticks": 38430,
            "time": 76.00779233749999,
            "value": 0.5039370078740157
          },
          {
            "number": 107,
            "ticks": 40350,
            "time": 79.5372043375,
            "value": 0.5039370078740157
          },
          {
            "number": 107,
            "ticks": 42270,
            "time": 83.0666163375,
            "value": 0.5039370078740157
          },
          {
            "number": 107,
            "ticks": 44190,
            "time": 86.5960283375,
            "value": 0.5039370078740157
          },
          {
            "number": 107,
            "ticks": 46110,
            "time": 90.1254403375,
            "value": 0.5039370078740157
          },
          {
            "number": 107,
            "ticks": 48030,
            "time": 93.6548523375,
            "value": 0.5039370078740157
          },
          {
            "number": 107,
            "ticks": 49950,
            "time": 97.1842643375,
            "value": 0.5039370078740157
          },
          {
            "number": 107,
            "ticks": 51870,
            "time": 100.7136763375,
            "value": 0.5039370078740157
          },
          {
            "number": 107,
            "ticks": 53790,
            "time": 104.2430883375,
            "value": 0.5039370078740157
          },
          {
            "number": 107,
            "ticks": 55710,
            "time": 107.7725003375,
            "value": 0.5039370078740157
          },
          {
            "number": 107,
            "ticks": 57630,
            "time": 111.3019123375,
            "value": 0.5039370078740157
          },
          {
            "number": 107,
            "ticks": 59550,
            "time": 114.83132433749999,
            "value": 0.5039370078740157
          },
          {
            "number": 107,
            "ticks": 61470,
            "time": 118.3607363375,
            "value": 0.5039370078740157
          }
        ]
      },
      "pitchBends": [],
      "instrument": {
        "family": "piano",
        "number": 0,
        "name": "acoustic grand piano"
      },
      "name": "Sound 3",
      "notes": [
        {
          "duration": 1.5882354000000003,
          "durationTicks": 864,
          "midi": 54,
          "name": "F#3",
          "ticks": 5760,
          "time": 15.952641275,
          "velocity": 0.6299212598425197
        },
        {
          "duration": 1.5882354000000003,
          "durationTicks": 864,
          "midi": 61,
          "name": "C#4",
          "ticks": 5760,
          "time": 15.952641275,
          "velocity": 0.6299212598425197
        },
        {
          "duration": 1.588235400000002,
          "durationTicks": 864,
          "midi": 56,
          "name": "G#3",
          "ticks": 6720,
          "time": 17.717347274999998,
          "velocity": 0.6299212598425197
        },
        {
          "duration": 1.588235400000002,
          "durationTicks": 864,
          "midi": 63,
          "name": "D#4",
          "ticks": 6720,
          "time": 17.717347274999998,
          "velocity": 0.6299212598425197
        },
        {
          "duration": 1.588235400000002,
          "durationTicks": 864,
          "midi": 58,
          "name": "A#3",
          "ticks": 7680,
          "time": 19.482053275,
          "velocity": 0.6299212598425197
        },
        {
          "duration": 1.588235400000002,
          "durationTicks": 864,
          "midi": 65,
          "name": "F4",
          "ticks": 7680,
          "time": 19.482053275,
          "velocity": 0.6299212598425197
        },
        {
          "duration": 0.794117700000001,
          "durationTicks": 432,
          "midi": 68,
          "name": "G#4",
          "ticks": 8640,
          "time": 21.246759275,
          "velocity": 0.6299212598425197
        },
        {
          "duration": 0.794117700000001,
          "durationTicks": 432,
          "midi": 65,
          "name": "F4",
          "ticks": 9120,
          "time": 22.129112274999997,
          "velocity": 0.6299212598425197
        },
        {
          "duration": 1.588235400000002,
          "durationTicks": 864,
          "midi": 54,
          "name": "F#3",
          "ticks": 9600,
          "time": 23.011465275,
          "velocity": 0.6299212598425197
        },
        {
          "duration": 1.588235400000002,
          "durationTicks": 864,
          "midi": 61,
          "name": "C#4",
          "ticks": 9600,
          "time": 23.011465275,
          "velocity": 0.6299212598425197
        },
        {
          "duration": 1.5882353999999985,
          "durationTicks": 864,
          "midi": 56,
          "name": "G#3",
          "ticks": 10560,
          "time": 24.776171275,
          "velocity": 0.6299212598425197
        },
        {
          "duration": 1.5882353999999985,
          "durationTicks": 864,
          "midi": 63,
          "name": "D#4",
          "ticks": 10560,
          "time": 24.776171275,
          "velocity": 0.6299212598425197
        },
        {
          "duration": 0.3970588500000005,
          "durationTicks": 216,
          "midi": 58,
          "name": "A#3",
          "ticks": 11520,
          "time": 26.540877275,
          "velocity": 0.6141732283464567
        },
        {
          "duration": 0.3970588500000005,
          "durationTicks": 216,
          "midi": 65,
          "name": "F4",
          "ticks": 11760,
          "time": 26.982053774999997,
          "velocity": 0.4566929133858268
        },
        {
          "duration": 0.3970588500000005,
          "durationTicks": 216,
          "midi": 73,
          "name": "C#5",
          "ticks": 12000,
          "time": 27.423230274999998,
          "velocity": 0.5433070866141733
        },
        {
          "duration": 0.3970588500000005,
          "durationTicks": 216,
          "midi": 65,
          "name": "F4",
          "ticks": 12240,
          "time": 27.864406775,
          "velocity": 0.4409448818897638
        },
        {
          "duration": 1.588235400000002,
          "durationTicks": 864,
          "midi": 72,
          "name": "C5",
          "ticks": 12480,
          "time": 28.305583274999996,
          "velocity": 0.6299212598425197
        },
        {
          "duration": 1.5882353999999985,
          "durationTicks": 864,
          "midi": 54,
          "name": "F#3",
          "ticks": 13440,
          "time": 30.070289275,
          "velocity": 0.6299212598425197
        },
        {
          "duration": 1.5882353999999985,
          "durationTicks": 864,
          "midi": 61,
          "name": "C#4",
          "ticks": 13440,
          "time": 30.070289275,
          "velocity": 0.6299212598425197
        },
        {
          "duration": 1.588235400000002,
          "durationTicks": 864,
          "midi": 56,
          "name": "G#3",
          "ticks": 14400,
          "time": 31.834995274999997,
          "velocity": 0.6299212598425197
        },
        {
          "duration": 1.588235400000002,
          "durationTicks": 864,
          "midi": 63,
          "name": "D#4",
          "ticks": 14400,
          "time": 31.834995274999997,
          "velocity": 0.6299212598425197
        },
        {
          "duration": 0.3970588499999934,
          "durationTicks": 216,
          "midi": 58,
          "name": "A#3",
          "ticks": 15360,
          "time": 33.599701275,
          "velocity": 0.6299212598425197
        },
        {
          "duration": 2.8235296000000005,
          "durationTicks": 1536,
          "midi": 65,
          "name": "F4",
          "ticks": 15600,
          "time": 34.040877775,
          "velocity": 0.6299212598425197
        },
        {
          "duration": 1.588235400000002,
          "durationTicks": 864,
          "midi": 54,
          "name": "F#3",
          "ticks": 17280,
          "time": 37.129113274999995,
          "velocity": 0.6299212598425197
        },
        {
          "duration": 1.588235400000002,
          "durationTicks": 864,
          "midi": 61,
          "name": "C#4",
          "ticks": 17280,
          "time": 37.129113274999995,
          "velocity": 0.6299212598425197
        },
        {
          "duration": 1.588235400000002,
          "durationTicks": 864,
          "midi": 56,
          "name": "G#3",
          "ticks": 18150,
          "time": 38.7283780875,
          "velocity": 0.6299212598425197
        },
        {
          "duration": 1.588235400000002,
          "durationTicks": 864,
          "midi": 60,
          "name": "C4",
          "ticks": 18180,
          "time": 38.783525149999996,
          "velocity": 0.6299212598425197
        },
        {
          "duration": 1.588235399999995,
          "durationTicks": 864,
          "midi": 63,
          "name": "D#4",
          "ticks": 18210,
          "time": 38.8386722125,
          "velocity": 0.6299212598425197
        },
        {
          "duration": 0.3970588500000005,
          "durationTicks": 216,
          "midi": 58,
          "name": "A#3",
          "ticks": 19200,
          "time": 40.658525274999995,
          "velocity": 0.6141732283464567
        },
        {
          "duration": 0.3970588500000005,
          "durationTicks": 216,
          "midi": 65,
          "name": "F4",
          "ticks": 19440,
          "time": 41.099701775,
          "velocity": 0.4566929133858268
        },
        {
          "duration": 0.3970588500000005,
          "durationTicks": 216,
          "midi": 73,
          "name": "C#5",
          "ticks": 19680,
          "time": 41.540878275,
          "velocity": 0.5433070866141733
        },
        {
          "duration": 0.3970588500000005,
          "durationTicks": 216,
          "midi": 65,
          "name": "F4",
          "ticks": 19920,
          "time": 41.982054774999995,
          "velocity": 0.4409448818897638
        },
        {
          "duration": 1.588235400000002,
          "durationTicks": 864,
          "midi": 72,
          "name": "C5",
          "ticks": 20160,
          "time": 42.423231275,
          "velocity": 0.6299212598425197
        },
        {
          "duration": 0.3970588500000076,
          "durationTicks": 216,
          "midi": 54,
          "name": "F#3",
          "ticks": 21120,
          "time": 44.187937274999996,
          "velocity": 0.6299212598425197
        },
        {
          "duration": 3.088235499999996,
          "durationTicks": 1680,
          "midi": 61,
          "name": "C#4",
          "ticks": 21360,
          "time": 44.629113775,
          "velocity": 0.6299212598425197
        },
        {
          "duration": 0.3970588500000005,
          "durationTicks": 216,
          "midi": 53,
          "name": "F3",
          "ticks": 23040,
          "time": 47.717349275,
          "velocity": 0.6299212598425197
        },
        {
          "duration": 3.0882355000000032,
          "durationTicks": 1680,
          "midi": 60,
          "name": "C4",
          "ticks": 23280,
          "time": 48.158525774999994,
          "velocity": 0.6299212598425197
        },
        {
          "duration": 0.3970588500000005,
          "durationTicks": 216,
          "midi": 54,
          "name": "F#3",
          "ticks": 24960,
          "time": 51.246761275,
          "velocity": 0.6299212598425197
        },
        {
          "duration": 3.0882355000000032,
          "durationTicks": 1680,
          "midi": 61,
          "name": "C#4",
          "ticks": 25200,
          "time": 51.687937774999995,
          "velocity": 0.6299212598425197
        },
        {
          "duration": 0.3970588500000005,
          "durationTicks": 216,
          "midi": 53,
          "name": "F3",
          "ticks": 26880,
          "time": 54.776173275,
          "velocity": 0.6299212598425197
        },
        {
          "duration": 3.088235499999996,
          "durationTicks": 1680,
          "midi": 60,
          "name": "C4",
          "ticks": 27120,
          "time": 55.217349774999995,
          "velocity": 0.6299212598425197
        },
        {
          "duration": 0.3970588500000076,
          "durationTicks": 216,
          "midi": 54,
          "name": "F#3",
          "ticks": 28800,
          "time": 58.30558527499999,
          "velocity": 0.6299212598425197
        },
        {
          "duration": 3.088235499999996,
          "durationTicks": 1680,
          "midi": 61,
          "name": "C#4",
          "ticks": 29040,
          "time": 58.746761774999996,
          "velocity": 0.6299212598425197
        },
        {
          "duration": 0.3970588500000076,
          "durationTicks": 216,
          "midi": 53,
          "name": "F3",
          "ticks": 30720,
          "time": 61.83499727499999,
          "velocity": 0.6299212598425197
        },
        {
          "duration": 0.3970588500000005,
          "durationTicks": 216,
          "midi": 60,
          "name": "C4",
          "ticks": 30960,
          "time": 62.276173775,
          "velocity": 0.6299212598425197
        },
        {
          "duration": 2.647059000000006,
          "durationTicks": 1440,
          "midi": 61,
          "name": "C#4",
          "ticks": 31200,
          "time": 62.717350274999994,
          "velocity": 0.6299212598425197
        },
        {
          "duration": 1.588235400000002,
          "durationTicks": 864,
          "midi": 51,
          "name": "D#3",
          "ticks": 32640,
          "time": 65.364409275,
          "velocity": 0.6299212598425197
        },
        {
          "duration": 1.588235400000002,
          "durationTicks": 864,
          "midi": 63,
          "name": "D#4",
          "ticks": 32640,
          "time": 65.364409275,
          "velocity": 0.6299212598425197
        },
        {
          "duration": 1.5882353999999879,
          "durationTicks": 864,
          "midi": 53,
          "name": "F3",
          "ticks": 33600,
          "time": 67.129115275,
          "velocity": 0.6299212598425197
        },
        {
          "duration": 1.5882353999999879,
          "durationTicks": 864,
          "midi": 65,
          "name": "F4",
          "ticks": 33600,
          "time": 67.129115275,
          "velocity": 0.6299212598425197
        },
        {
          "duration": 0.3970588500000076,
          "durationTicks": 216,
          "midi": 46,
          "name": "A#2",
          "ticks": 34560,
          "time": 68.893821275,
          "velocity": 0.6299212598425197
        },
        {
          "duration": 0.3970588500000076,
          "durationTicks": 216,
          "midi": 53,
          "name": "F3",
          "ticks": 34800,
          "time": 69.33499777499999,
          "velocity": 0.6299212598425197
        },
        {
          "duration": 0.3970588499999934,
          "durationTicks": 216,
          "midi": 61,
          "name": "C#4",
          "ticks": 35040,
          "time": 69.776174275,
          "velocity": 0.6299212598425197
        },
        {
          "duration": 0.3970588499999934,
          "durationTicks": 216,
          "midi": 60,
          "name": "C4",
          "ticks": 35280,
          "time": 70.217350775,
          "velocity": 0.6299212598425197
        },
        {
          "duration": 0.3970588500000076,
          "durationTicks": 216,
          "midi": 63,
          "name": "D#4",
          "ticks": 35520,
          "time": 70.658527275,
          "velocity": 0.6299212598425197
        },
        {
          "duration": 0.3970588500000076,
          "durationTicks": 216,
          "midi": 58,
          "name": "A#3",
          "ticks": 35760,
          "time": 71.099703775,
          "velocity": 0.6299212598425197
        },
        {
          "duration": 0.794117700000001,
          "durationTicks": 432,
          "midi": 65,
          "name": "F4",
          "ticks": 36000,
          "time": 71.54088027499999,
          "velocity": 0.6299212598425197
        },
        {
          "duration": 0.3970588499999934,
          "durationTicks": 216,
          "midi": 42,
          "name": "F#2",
          "ticks": 36480,
          "time": 72.423233275,
          "velocity": 0.6299212598425197
        },
        {
          "duration": 0.3970588500000076,
          "durationTicks": 216,
          "midi": 49,
          "name": "C#3",
          "ticks": 36720,
          "time": 72.864409775,
          "velocity": 0.6299212598425197
        },
        {
          "duration": 0.794117700000001,
          "durationTicks": 432,
          "midi": 58,
          "name": "A#3",
          "ticks": 36960,
          "time": 73.305586275,
          "velocity": 0.6299212598425197
        },
        {
          "duration": 0.3970588500000076,
          "durationTicks": 216,
          "midi": 44,
          "name": "G#2",
          "ticks": 37440,
          "time": 74.18793927499999,
          "velocity": 0.6299212598425197
        },
        {
          "duration": 0.3970588499999934,
          "durationTicks": 216,
          "midi": 51,
          "name": "D#3",
          "ticks": 37680,
          "time": 74.629115775,
          "velocity": 0.6299212598425197
        },
        {
          "duration": 0.794117700000001,
          "durationTicks": 432,
          "midi": 60,
          "name": "C4",
          "ticks": 37920,
          "time": 75.070292275,
          "velocity": 0.6299212598425197
        },
        {
          "duration": 0.3970588500000076,
          "durationTicks": 216,
          "midi": 46,
          "name": "A#2",
          "ticks": 38400,
          "time": 75.952645275,
          "velocity": 0.6299212598425197
        },
        {
          "duration": 0.3970588500000076,
          "durationTicks": 216,
          "midi": 53,
          "name": "F3",
          "ticks": 38640,
          "time": 76.39382177499999,
          "velocity": 0.6299212598425197
        },
        {
          "duration": 0.3970588499999934,
          "durationTicks": 216,
          "midi": 60,
          "name": "C4",
          "ticks": 38880,
          "time": 76.834998275,
          "velocity": 0.6299212598425197
        },
        {
          "duration": 0.3970588499999934,
          "durationTicks": 216,
          "midi": 61,
          "name": "C#4",
          "ticks": 39120,
          "time": 77.276174775,
          "velocity": 0.6299212598425197
        },
        {
          "duration": 1.588235400000002,
          "durationTicks": 864,
          "midi": 63,
          "name": "D#4",
          "ticks": 39360,
          "time": 77.717351275,
          "velocity": 0.6299212598425197
        },
        {
          "duration": 0.3970588499999934,
          "durationTicks": 216,
          "midi": 42,
          "name": "F#2",
          "ticks": 40320,
          "time": 79.482057275,
          "velocity": 0.6299212598425197
        },
        {
          "duration": 0.3970588500000076,
          "durationTicks": 216,
          "midi": 49,
          "name": "C#3",
          "ticks": 40560,
          "time": 79.923233775,
          "velocity": 0.6299212598425197
        },
        {
          "duration": 0.7941177000000152,
          "durationTicks": 432,
          "midi": 58,
          "name": "A#3",
          "ticks": 40800,
          "time": 80.364410275,
          "velocity": 0.6299212598425197
        },
        {
          "duration": 0.3970588499999934,
          "durationTicks": 216,
          "midi": 44,
          "name": "G#2",
          "ticks": 41280,
          "time": 81.246763275,
          "velocity": 0.6299212598425197
        },
        {
          "duration": 0.3970588499999934,
          "durationTicks": 216,
          "midi": 51,
          "name": "D#3",
          "ticks": 41520,
          "time": 81.687939775,
          "velocity": 0.6299212598425197
        },
        {
          "duration": 0.794117700000001,
          "durationTicks": 432,
          "midi": 60,
          "name": "C4",
          "ticks": 41760,
          "time": 82.129116275,
          "velocity": 0.6299212598425197
        },
        {
          "duration": 0.3970588500000076,
          "durationTicks": 216,
          "midi": 49,
          "name": "C#3",
          "ticks": 42240,
          "time": 83.011469275,
          "velocity": 0.6299212598425197
        },
        {
          "duration": 0.3970588500000076,
          "durationTicks": 216,
          "midi": 56,
          "name": "G#3",
          "ticks": 42480,
          "time": 83.452645775,
          "velocity": 0.6299212598425197
        },
        {
          "duration": 0.3970588499999934,
          "durationTicks": 216,
          "midi": 63,
          "name": "D#4",
          "ticks": 42720,
          "time": 83.893822275,
          "velocity": 0.6299212598425197
        },
        {
          "duration": 0.3970588499999934,
          "durationTicks": 216,
          "midi": 56,
          "name": "G#3",
          "ticks": 42960,
          "time": 84.334998775,
          "velocity": 0.6299212598425197
        },
        {
          "duration": 0.3970588500000076,
          "durationTicks": 216,
          "midi": 65,
          "name": "F4",
          "ticks": 43200,
          "time": 84.776175275,
          "velocity": 0.6299212598425197
        },
        {
          "duration": 0.3970588500000076,
          "durationTicks": 216,
          "midi": 56,
          "name": "G#3",
          "ticks": 43440,
          "time": 85.217351775,
          "velocity": 0.6299212598425197
        },
        {
          "duration": 0.7941177000000152,
          "durationTicks": 432,
          "midi": 63,
          "name": "D#4",
          "ticks": 43680,
          "time": 85.658528275,
          "velocity": 0.6299212598425197
        },
        {
          "duration": 0.3970588499999934,
          "durationTicks": 216,
          "midi": 43,
          "name": "G2",
          "ticks": 44160,
          "time": 86.540881275,
          "velocity": 0.6299212598425197
        },
        {
          "duration": 0.3970588499999934,
          "durationTicks": 216,
          "midi": 55,
          "name": "G3",
          "ticks": 44160,
          "time": 86.540881275,
          "velocity": 0.6299212598425197
        },
        {
          "duration": 0.3970588500000076,
          "durationTicks": 216,
          "midi": 58,
          "name": "A#3",
          "ticks": 44400,
          "time": 86.982057775,
          "velocity": 0.6299212598425197
        },
        {
          "duration": 0.794117700000001,
          "durationTicks": 432,
          "midi": 63,
          "name": "D#4",
          "ticks": 44640,
          "time": 87.423234275,
          "velocity": 0.6299212598425197
        },
        {
          "duration": 0.3970588500000076,
          "durationTicks": 216,
          "midi": 41,
          "name": "F2",
          "ticks": 45120,
          "time": 88.305587275,
          "velocity": 0.6299212598425197
        },
        {
          "duration": 0.3970588500000076,
          "durationTicks": 216,
          "midi": 53,
          "name": "F3",
          "ticks": 45120,
          "time": 88.305587275,
          "velocity": 0.6299212598425197
        },
        {
          "duration": 0.3970588499999934,
          "durationTicks": 216,
          "midi": 60,
          "name": "C4",
          "ticks": 45360,
          "time": 88.746763775,
          "velocity": 0.6299212598425197
        },
        {
          "duration": 0.3970588499999934,
          "durationTicks": 216,
          "midi": 63,
          "name": "D#4",
          "ticks": 45600,
          "time": 89.187940275,
          "velocity": 0.6299212598425197
        },
        {
          "duration": 0.3970588500000076,
          "durationTicks": 216,
          "midi": 60,
          "name": "C4",
          "ticks": 45840,
          "time": 89.629116775,
          "velocity": 0.6299212598425197
        },
        {
          "duration": 0.3970588500000076,
          "durationTicks": 216,
          "midi": 46,
          "name": "A#2",
          "ticks": 46080,
          "time": 90.070293275,
          "velocity": 0.6299212598425197
        },
        {
          "duration": 0.3970588500000076,
          "durationTicks": 216,
          "midi": 53,
          "name": "F3",
          "ticks": 46320,
          "time": 90.511469775,
          "velocity": 0.6299212598425197
        },
        {
          "duration": 0.794117700000001,
          "durationTicks": 432,
          "midi": 58,
          "name": "A#3",
          "ticks": 46560,
          "time": 90.952646275,
          "velocity": 0.6299212598425197
        },
        {
          "duration": 0.3970588500000076,
          "durationTicks": 216,
          "midi": 43,
          "name": "G2",
          "ticks": 47040,
          "time": 91.834999275,
          "velocity": 0.6299212598425197
        },
        {
          "duration": 0.3970588500000076,
          "durationTicks": 216,
          "midi": 55,
          "name": "G3",
          "ticks": 47280,
          "time": 92.276175775,
          "velocity": 0.6299212598425197
        },
        {
          "duration": 0.7941177000000152,
          "durationTicks": 432,
          "midi": 61,
          "name": "C#4",
          "ticks": 47520,
          "time": 92.717352275,
          "velocity": 0.6299212598425197
        },
        {
          "duration": 0.3970588499999934,
          "durationTicks": 216,
          "midi": 51,
          "name": "D#3",
          "ticks": 48000,
          "time": 93.599705275,
          "velocity": 0.6299212598425197
        },
        {
          "duration": 0.3970588499999934,
          "durationTicks": 216,
          "midi": 58,
          "name": "A#3",
          "ticks": 48240,
          "time": 94.040881775,
          "velocity": 0.6299212598425197
        },
        {
          "duration": 0.794117700000001,
          "durationTicks": 432,
          "midi": 61,
          "name": "C#4",
          "ticks": 48480,
          "time": 94.482058275,
          "velocity": 0.6299212598425197
        },
        {
          "duration": 1.588235400000002,
          "durationTicks": 864,
          "midi": 41,
          "name": "F2",
          "ticks": 48960,
          "time": 95.364411275,
          "velocity": 0.6299212598425197
        },
        {
          "duration": 0.3970588500000076,
          "durationTicks": 216,
          "midi": 46,
          "name": "A#2",
          "ticks": 49920,
          "time": 97.129117275,
          "velocity": 0.6299212598425197
        },
        {
          "duration": 0.3970588500000076,
          "durationTicks": 216,
          "midi": 53,
          "name": "F3",
          "ticks": 50160,
          "time": 97.570293775,
          "velocity": 0.6299212598425197
        },
        {
          "duration": 0.3970588500000076,
          "durationTicks": 216,
          "midi": 61,
          "name": "C#4",
          "ticks": 50400,
          "time": 98.011470275,
          "velocity": 0.6299212598425197
        },
        {
          "duration": 0.3970588499999934,
          "durationTicks": 216,
          "midi": 60,
          "name": "C4",
          "ticks": 50640,
          "time": 98.452646775,
          "velocity": 0.6299212598425197
        },
        {
          "duration": 0.3970588499999934,
          "durationTicks": 216,
          "midi": 63,
          "name": "D#4",
          "ticks": 50880,
          "time": 98.893823275,
          "velocity": 0.6299212598425197
        },
        {
          "duration": 0.3970588500000076,
          "durationTicks": 216,
          "midi": 58,
          "name": "A#3",
          "ticks": 51120,
          "time": 99.334999775,
          "velocity": 0.6299212598425197
        },
        {
          "duration": 0.794117700000001,
          "durationTicks": 432,
          "midi": 58,
          "name": "A#3",
          "ticks": 51360,
          "time": 99.776176275,
          "velocity": 0.6299212598425197
        },
        {
          "duration": 0.794117700000001,
          "durationTicks": 432,
          "midi": 61,
          "name": "C#4",
          "ticks": 51360,
          "time": 99.776176275,
          "velocity": 0.6299212598425197
        },
        {
          "duration": 0.794117700000001,
          "durationTicks": 432,
          "midi": 65,
          "name": "F4",
          "ticks": 51360,
          "time": 99.776176275,
          "velocity": 0.6299212598425197
        },
        {
          "duration": 0.3970588500000076,
          "durationTicks": 216,
          "midi": 42,
          "name": "F#2",
          "ticks": 51840,
          "time": 100.65852927499999,
          "velocity": 0.6299212598425197
        },
        {
          "duration": 0.3970588499999934,
          "durationTicks": 216,
          "midi": 49,
          "name": "C#3",
          "ticks": 52080,
          "time": 101.099705775,
          "velocity": 0.6299212598425197
        },
        {
          "duration": 0.794117700000001,
          "durationTicks": 432,
          "midi": 54,
          "name": "F#3",
          "ticks": 52320,
          "time": 101.540882275,
          "velocity": 0.6299212598425197
        },
        {
          "duration": 0.794117700000001,
          "durationTicks": 432,
          "midi": 58,
          "name": "A#3",
          "ticks": 52320,
          "time": 101.540882275,
          "velocity": 0.6299212598425197
        },
        {
          "duration": 0.3970588500000076,
          "durationTicks": 216,
          "midi": 44,
          "name": "G#2",
          "ticks": 52800,
          "time": 102.423235275,
          "velocity": 0.6299212598425197
        },
        {
          "duration": 0.3970588500000076,
          "durationTicks": 216,
          "midi": 51,
          "name": "D#3",
          "ticks": 53040,
          "time": 102.864411775,
          "velocity": 0.6299212598425197
        },
        {
          "duration": 0.794117700000001,
          "durationTicks": 432,
          "midi": 56,
          "name": "G#3",
          "ticks": 53280,
          "time": 103.305588275,
          "velocity": 0.6299212598425197
        },
        {
          "duration": 0.794117700000001,
          "durationTicks": 432,
          "midi": 60,
          "name": "C4",
          "ticks": 53280,
          "time": 103.305588275,
          "velocity": 0.6299212598425197
        },
        {
          "duration": 0.3970588500000076,
          "durationTicks": 216,
          "midi": 46,
          "name": "A#2",
          "ticks": 53760,
          "time": 104.187941275,
          "velocity": 0.6299212598425197
        },
        {
          "duration": 0.3970588500000076,
          "durationTicks": 216,
          "midi": 53,
          "name": "F3",
          "ticks": 54000,
          "time": 104.629117775,
          "velocity": 0.6299212598425197
        },
        {
          "duration": 0.3970588500000076,
          "durationTicks": 216,
          "midi": 60,
          "name": "C4",
          "ticks": 54240,
          "time": 105.070294275,
          "velocity": 0.6299212598425197
        },
        {
          "duration": 0.3970588500000076,
          "durationTicks": 216,
          "midi": 61,
          "name": "C#4",
          "ticks": 54480,
          "time": 105.51147077499999,
          "velocity": 0.6299212598425197
        },
        {
          "duration": 0.3970588499999934,
          "durationTicks": 216,
          "midi": 63,
          "name": "D#4",
          "ticks": 54720,
          "time": 105.952647275,
          "velocity": 0.6299212598425197
        },
        {
          "duration": 0.3970588499999934,
          "durationTicks": 216,
          "midi": 60,
          "name": "C4",
          "ticks": 54960,
          "time": 106.393823775,
          "velocity": 0.6299212598425197
        },
        {
          "duration": 0.794117700000001,
          "durationTicks": 432,
          "midi": 61,
          "name": "C#4",
          "ticks": 55200,
          "time": 106.835000275,
          "velocity": 0.6299212598425197
        },
        {
          "duration": 0.3970588500000076,
          "durationTicks": 216,
          "midi": 42,
          "name": "F#2",
          "ticks": 55680,
          "time": 107.717353275,
          "velocity": 0.6299212598425197
        },
        {
          "duration": 0.3970588499999934,
          "durationTicks": 216,
          "midi": 49,
          "name": "C#3",
          "ticks": 55920,
          "time": 108.158529775,
          "velocity": 0.6299212598425197
        },
        {
          "duration": 0.794117700000001,
          "durationTicks": 432,
          "midi": 58,
          "name": "A#3",
          "ticks": 56160,
          "time": 108.599706275,
          "velocity": 0.6299212598425197
        },
        {
          "duration": 0.3970588500000076,
          "durationTicks": 216,
          "midi": 44,
          "name": "G#2",
          "ticks": 56640,
          "time": 109.482059275,
          "velocity": 0.6299212598425197
        },
        {
          "duration": 0.3970588500000076,
          "durationTicks": 216,
          "midi": 51,
          "name": "D#3",
          "ticks": 56880,
          "time": 109.923235775,
          "velocity": 0.6299212598425197
        },
        {
          "duration": 0.7941177000000152,
          "durationTicks": 432,
          "midi": 58,
          "name": "A#3",
          "ticks": 57120,
          "time": 110.36441227499999,
          "velocity": 0.6299212598425197
        },
        {
          "duration": 0.3970588499999934,
          "durationTicks": 216,
          "midi": 46,
          "name": "A#2",
          "ticks": 57600,
          "time": 111.246765275,
          "velocity": 0.6299212598425197
        },
        {
          "duration": 0.3970588500000076,
          "durationTicks": 216,
          "midi": 53,
          "name": "F3",
          "ticks": 57840,
          "time": 111.687941775,
          "velocity": 0.6299212598425197
        },
        {
          "duration": 0.3970588500000076,
          "durationTicks": 216,
          "midi": 61,
          "name": "C#4",
          "ticks": 58080,
          "time": 112.129118275,
          "velocity": 0.6299212598425197
        },
        {
          "duration": 0.3970588500000076,
          "durationTicks": 216,
          "midi": 60,
          "name": "C4",
          "ticks": 58320,
          "time": 112.570294775,
          "velocity": 0.6299212598425197
        },
        {
          "duration": 0.3970588499999934,
          "durationTicks": 216,
          "midi": 63,
          "name": "D#4",
          "ticks": 58560,
          "time": 113.011471275,
          "velocity": 0.6299212598425197
        },
        {
          "duration": 0.3970588499999934,
          "durationTicks": 216,
          "midi": 60,
          "name": "C4",
          "ticks": 58800,
          "time": 113.452647775,
          "velocity": 0.6299212598425197
        },
        {
          "duration": 0.794117700000001,
          "durationTicks": 432,
          "midi": 53,
          "name": "F3",
          "ticks": 59040,
          "time": 113.893824275,
          "velocity": 0.6299212598425197
        },
        {
          "duration": 0.3970588500000076,
          "durationTicks": 216,
          "midi": 42,
          "name": "F#2",
          "ticks": 59520,
          "time": 114.776177275,
          "velocity": 0.6299212598425197
        },
        {
          "duration": 0.3970588500000076,
          "durationTicks": 216,
          "midi": 49,
          "name": "C#3",
          "ticks": 59760,
          "time": 115.21735377499999,
          "velocity": 0.6299212598425197
        },
        {
          "duration": 0.794117700000001,
          "durationTicks": 432,
          "midi": 54,
          "name": "F#3",
          "ticks": 60000,
          "time": 115.658530275,
          "velocity": 0.6299212598425197
        },
        {
          "duration": 0.3970588500000076,
          "durationTicks": 216,
          "midi": 44,
          "name": "G#2",
          "ticks": 60480,
          "time": 116.540883275,
          "velocity": 0.6299212598425197
        },
        {
          "duration": 0.3970588500000076,
          "durationTicks": 216,
          "midi": 51,
          "name": "D#3",
          "ticks": 60720,
          "time": 116.982059775,
          "velocity": 0.6299212598425197
        },
        {
          "duration": 0.7941177000000152,
          "durationTicks": 432,
          "midi": 56,
          "name": "G#3",
          "ticks": 60960,
          "time": 117.423236275,
          "velocity": 0.6299212598425197
        },
        {
          "duration": 0.3970588499999934,
          "durationTicks": 216,
          "midi": 46,
          "name": "A#2",
          "ticks": 61440,
          "time": 118.305589275,
          "velocity": 0.6299212598425197
        },
        {
          "duration": 0.3970588500000076,
          "durationTicks": 216,
          "midi": 53,
          "name": "F3",
          "ticks": 61680,
          "time": 118.746765775,
          "velocity": 0.6299212598425197
        },
        {
          "duration": 0.3970588500000076,
          "durationTicks": 216,
          "midi": 63,
          "name": "D#4",
          "ticks": 61920,
          "time": 119.187942275,
          "velocity": 0.6299212598425197
        },
        {
          "duration": 0.3970588500000076,
          "durationTicks": 216,
          "midi": 60,
          "name": "C4",
          "ticks": 62160,
          "time": 119.629118775,
          "velocity": 0.6299212598425197
        },
        {
          "duration": 1.588235400000002,
          "durationTicks": 864,
          "midi": 61,
          "name": "C#4",
          "ticks": 62400,
          "time": 120.07029527499999,
          "velocity": 0.6299212598425197
        },
        {
          "duration": 1.588235400000002,
          "durationTicks": 864,
          "midi": 39,
          "name": "D#2",
          "ticks": 63360,
          "time": 121.835001275,
          "velocity": 0.6299212598425197
        },
        {
          "duration": 1.588235400000002,
          "durationTicks": 864,
          "midi": 51,
          "name": "D#3",
          "ticks": 63360,
          "time": 121.835001275,
          "velocity": 0.6299212598425197
        },
        {
          "duration": 1.588235400000002,
          "durationTicks": 864,
          "midi": 41,
          "name": "F2",
          "ticks": 64320,
          "time": 123.599707275,
          "velocity": 0.6299212598425197
        },
        {
          "duration": 1.588235400000002,
          "durationTicks": 864,
          "midi": 53,
          "name": "F3",
          "ticks": 64320,
          "time": 123.599707275,
          "velocity": 0.6299212598425197
        },
        {
          "duration": 0.3970588499999934,
          "durationTicks": 216,
          "midi": 46,
          "name": "A#2",
          "ticks": 65280,
          "time": 125.364413275,
          "velocity": 0.6299212598425197
        },
        {
          "duration": 0.3970588499999934,
          "durationTicks": 216,
          "midi": 53,
          "name": "F3",
          "ticks": 65520,
          "time": 125.805589775,
          "velocity": 0.6299212598425197
        },
        {
          "duration": 0.3970588500000076,
          "durationTicks": 216,
          "midi": 61,
          "name": "C#4",
          "ticks": 65760,
          "time": 126.246766275,
          "velocity": 0.6299212598425197
        },
        {
          "duration": 0.3970588500000076,
          "durationTicks": 216,
          "midi": 53,
          "name": "F3",
          "ticks": 66000,
          "time": 126.687942775,
          "velocity": 0.6299212598425197
        },
        {
          "duration": 1.588235400000002,
          "durationTicks": 864,
          "midi": 60,
          "name": "C4",
          "ticks": 66240,
          "time": 127.129119275,
          "velocity": 0.6299212598425197
        },
        {
          "duration": 1.5882354000000305,
          "durationTicks": 864,
          "midi": 54,
          "name": "F#3",
          "ticks": 67200,
          "time": 128.89382527499998,
          "velocity": 0.6299212598425197
        },
        {
          "duration": 1.5882354000000305,
          "durationTicks": 864,
          "midi": 61,
          "name": "C#4",
          "ticks": 67200,
          "time": 128.89382527499998,
          "velocity": 0.6299212598425197
        },
        {
          "duration": 1.588235400000002,
          "durationTicks": 864,
          "midi": 56,
          "name": "G#3",
          "ticks": 68160,
          "time": 130.658531275,
          "velocity": 0.6299212598425197
        },
        {
          "duration": 1.588235400000002,
          "durationTicks": 864,
          "midi": 63,
          "name": "D#4",
          "ticks": 68160,
          "time": 130.658531275,
          "velocity": 0.6299212598425197
        },
        {
          "duration": 1.588235400000002,
          "durationTicks": 864,
          "midi": 58,
          "name": "A#3",
          "ticks": 69120,
          "time": 132.423237275,
          "velocity": 0.6299212598425197
        },
        {
          "duration": 1.588235400000002,
          "durationTicks": 864,
          "midi": 65,
          "name": "F4",
          "ticks": 69120,
          "time": 132.423237275,
          "velocity": 0.6299212598425197
        },
        {
          "duration": 0.7941177000000152,
          "durationTicks": 432,
          "midi": 68,
          "name": "G#4",
          "ticks": 70080,
          "time": 134.18794327499998,
          "velocity": 0.6299212598425197
        },
        {
          "duration": 0.7941176999999868,
          "durationTicks": 432,
          "midi": 65,
          "name": "F4",
          "ticks": 70560,
          "time": 135.070296275,
          "velocity": 0.6299212598425197
        },
        {
          "duration": 1.588235400000002,
          "durationTicks": 864,
          "midi": 54,
          "name": "F#3",
          "ticks": 71040,
          "time": 135.952649275,
          "velocity": 0.6299212598425197
        },
        {
          "duration": 1.588235400000002,
          "durationTicks": 864,
          "midi": 61,
          "name": "C#4",
          "ticks": 71040,
          "time": 135.952649275,
          "velocity": 0.6299212598425197
        },
        {
          "duration": 1.588235400000002,
          "durationTicks": 864,
          "midi": 56,
          "name": "G#3",
          "ticks": 72000,
          "time": 137.717355275,
          "velocity": 0.6299212598425197
        },
        {
          "duration": 1.588235400000002,
          "durationTicks": 864,
          "midi": 63,
          "name": "D#4",
          "ticks": 72000,
          "time": 137.717355275,
          "velocity": 0.6299212598425197
        },
        {
          "duration": 0.3970588500000076,
          "durationTicks": 216,
          "midi": 58,
          "name": "A#3",
          "ticks": 72960,
          "time": 139.48206127499998,
          "velocity": 0.6141732283464567
        },
        {
          "duration": 0.3970588499999792,
          "durationTicks": 216,
          "midi": 65,
          "name": "F4",
          "ticks": 73200,
          "time": 139.923237775,
          "velocity": 0.4566929133858268
        },
        {
          "duration": 0.3970588499999792,
          "durationTicks": 216,
          "midi": 73,
          "name": "C#5",
          "ticks": 73440,
          "time": 140.364414275,
          "velocity": 0.5433070866141733
        },
        {
          "duration": 0.3970588500000076,
          "durationTicks": 216,
          "midi": 65,
          "name": "F4",
          "ticks": 73680,
          "time": 140.80559077499998,
          "velocity": 0.4409448818897638
        },
        {
          "duration": 1.588235400000002,
          "durationTicks": 864,
          "midi": 72,
          "name": "C5",
          "ticks": 73920,
          "time": 141.246767275,
          "velocity": 0.6299212598425197
        },
        {
          "duration": 0.3970588500000076,
          "durationTicks": 216,
          "midi": 42,
          "name": "F#2",
          "ticks": 74880,
          "time": 143.011473275,
          "velocity": 0.6299212598425197
        },
        {
          "duration": 0.3970588499999792,
          "durationTicks": 216,
          "midi": 49,
          "name": "C#3",
          "ticks": 75120,
          "time": 143.452649775,
          "velocity": 0.6299212598425197
        },
        {
          "duration": 0.3970588499999792,
          "durationTicks": 216,
          "midi": 56,
          "name": "G#3",
          "ticks": 75360,
          "time": 143.89382627499998,
          "velocity": 0.6299212598425197
        },
        {
          "duration": 0.3970588499999792,
          "durationTicks": 216,
          "midi": 58,
          "name": "A#3",
          "ticks": 75600,
          "time": 144.335002775,
          "velocity": 0.6299212598425197
        },
        {
          "duration": 1.5882354000000305,
          "durationTicks": 864,
          "midi": 61,
          "name": "C#4",
          "ticks": 75840,
          "time": 144.77617927499998,
          "velocity": 0.6299212598425197
        },
        {
          "duration": 0.3970588499999792,
          "durationTicks": 216,
          "midi": 44,
          "name": "G#2",
          "ticks": 76800,
          "time": 146.540885275,
          "velocity": 0.6299212598425197
        },
        {
          "duration": 0.3970588500000076,
          "durationTicks": 216,
          "midi": 51,
          "name": "D#3",
          "ticks": 77040,
          "time": 146.98206177499998,
          "velocity": 0.6299212598425197
        },
        {
          "duration": 0.3970588499999792,
          "durationTicks": 216,
          "midi": 58,
          "name": "A#3",
          "ticks": 77280,
          "time": 147.423238275,
          "velocity": 0.6299212598425197
        },
        {
          "duration": 0.3970588500000076,
          "durationTicks": 216,
          "midi": 60,
          "name": "C4",
          "ticks": 77520,
          "time": 147.86441477499997,
          "velocity": 0.6299212598425197
        },
        {
          "duration": 1.588235400000002,
          "durationTicks": 864,
          "midi": 63,
          "name": "D#4",
          "ticks": 77760,
          "time": 148.30559127499998,
          "velocity": 0.6299212598425197
        },
        {
          "duration": 0.3970588500000076,
          "durationTicks": 216,
          "midi": 42,
          "name": "F#2",
          "ticks": 78720,
          "time": 150.07029727499997,
          "velocity": 0.6299212598425197
        },
        {
          "duration": 0.3970588499999792,
          "durationTicks": 216,
          "midi": 49,
          "name": "C#3",
          "ticks": 78960,
          "time": 150.51147377499998,
          "velocity": 0.6299212598425197
        },
        {
          "duration": 0.3970588500000076,
          "durationTicks": 216,
          "midi": 56,
          "name": "G#3",
          "ticks": 79200,
          "time": 150.95265027499997,
          "velocity": 0.6299212598425197
        },
        {
          "duration": 0.3970588499999792,
          "durationTicks": 216,
          "midi": 58,
          "name": "A#3",
          "ticks": 79440,
          "time": 151.39382677499998,
          "velocity": 0.6299212598425197
        },
        {
          "duration": 1.588235400000002,
          "durationTicks": 864,
          "midi": 61,
          "name": "C#4",
          "ticks": 79680,
          "time": 151.835003275,
          "velocity": 0.6299212598425197
        },
        {
          "duration": 0.3970588499999792,
          "durationTicks": 216,
          "midi": 41,
          "name": "F2",
          "ticks": 80640,
          "time": 153.59970927499998,
          "velocity": 0.6299212598425197
        },
        {
          "duration": 0.3970588499999792,
          "durationTicks": 216,
          "midi": 48,
          "name": "C3",
          "ticks": 80880,
          "time": 154.040885775,
          "velocity": 0.6299212598425197
        },
        {
          "duration": 0.3970588500000076,
          "durationTicks": 216,
          "midi": 56,
          "name": "G#3",
          "ticks": 81120,
          "time": 154.48206227499998,
          "velocity": 0.6299212598425197
        },
        {
          "duration": 0.3970588499999792,
          "durationTicks": 216,
          "midi": 49,
          "name": "C#3",
          "ticks": 81360,
          "time": 154.923238775,
          "velocity": 0.6299212598425197
        },
        {
          "duration": 1.5882354000000305,
          "durationTicks": 864,
          "midi": 60,
          "name": "C4",
          "ticks": 81600,
          "time": 155.36441527499997,
          "velocity": 0.6299212598425197
        },
        {
          "duration": 0.3970588499999792,
          "durationTicks": 216,
          "midi": 42,
          "name": "F#2",
          "ticks": 82560,
          "time": 157.129121275,
          "velocity": 0.6299212598425197
        },
        {
          "duration": 0.3970588500000076,
          "durationTicks": 216,
          "midi": 49,
          "name": "C#3",
          "ticks": 82800,
          "time": 157.57029777499997,
          "velocity": 0.6299212598425197
        },
        {
          "duration": 0.3970588499999792,
          "durationTicks": 216,
          "midi": 56,
          "name": "G#3",
          "ticks": 83040,
          "time": 158.01147427499998,
          "velocity": 0.6299212598425197
        },
        {
          "duration": 0.3970588499999792,
          "durationTicks": 216,
          "midi": 58,
          "name": "A#3",
          "ticks": 83280,
          "time": 158.452650775,
          "velocity": 0.6299212598425197
        },
        {
          "duration": 1.588235400000002,
          "durationTicks": 864,
          "midi": 61,
          "name": "C#4",
          "ticks": 83520,
          "time": 158.89382727499998,
          "velocity": 0.6299212598425197
        },
        {
          "duration": 0.3970588500000076,
          "durationTicks": 216,
          "midi": 41,
          "name": "F2",
          "ticks": 84480,
          "time": 160.65853327499997,
          "velocity": 0.6299212598425197
        },
        {
          "duration": 0.3970588499999792,
          "durationTicks": 216,
          "midi": 48,
          "name": "C3",
          "ticks": 84720,
          "time": 161.09970977499998,
          "velocity": 0.6299212598425197
        },
        {
          "duration": 0.3970588499999792,
          "durationTicks": 216,
          "midi": 51,
          "name": "D#3",
          "ticks": 84960,
          "time": 161.540886275,
          "velocity": 0.6299212598425197
        },
        {
          "duration": 0.3970588500000076,
          "durationTicks": 216,
          "midi": 56,
          "name": "G#3",
          "ticks": 85200,
          "time": 161.98206277499997,
          "velocity": 0.6299212598425197
        },
        {
          "duration": 1.588235400000002,
          "durationTicks": 864,
          "midi": 63,
          "name": "D#4",
          "ticks": 85440,
          "time": 162.423239275,
          "velocity": 0.6299212598425197
        },
        {
          "duration": 1.588235400000002,
          "durationTicks": 864,
          "midi": 39,
          "name": "D#2",
          "ticks": 86400,
          "time": 164.18794527499998,
          "velocity": 0.6299212598425197
        },
        {
          "duration": 1.588235400000002,
          "durationTicks": 864,
          "midi": 51,
          "name": "D#3",
          "ticks": 86400,
          "time": 164.18794527499998,
          "velocity": 0.6299212598425197
        },
        {
          "duration": 1.588235400000002,
          "durationTicks": 864,
          "midi": 41,
          "name": "F2",
          "ticks": 87360,
          "time": 165.952651275,
          "velocity": 0.6299212598425197
        },
        {
          "duration": 1.588235400000002,
          "durationTicks": 864,
          "midi": 53,
          "name": "F3",
          "ticks": 87360,
          "time": 165.952651275,
          "velocity": 0.6299212598425197
        },
        {
          "duration": 0.3970588499999792,
          "durationTicks": 216,
          "midi": 46,
          "name": "A#2",
          "ticks": 88320,
          "time": 167.71735727499998,
          "velocity": 0.6299212598425197
        },
        {
          "duration": 0.3970588500000076,
          "durationTicks": 216,
          "midi": 53,
          "name": "F3",
          "ticks": 88560,
          "time": 168.15853377499997,
          "velocity": 0.6299212598425197
        },
        {
          "duration": 0.3970588499999792,
          "durationTicks": 216,
          "midi": 61,
          "name": "C#4",
          "ticks": 88800,
          "time": 168.59971027499998,
          "velocity": 0.6299212598425197
        },
        {
          "duration": 0.3970588499999792,
          "durationTicks": 216,
          "midi": 60,
          "name": "C4",
          "ticks": 89040,
          "time": 169.040886775,
          "velocity": 0.6299212598425197
        },
        {
          "duration": 0.3970588500000076,
          "durationTicks": 216,
          "midi": 63,
          "name": "D#4",
          "ticks": 89280,
          "time": 169.48206327499997,
          "velocity": 0.6299212598425197
        },
        {
          "duration": 0.3970588499999792,
          "durationTicks": 216,
          "midi": 58,
          "name": "A#3",
          "ticks": 89520,
          "time": 169.92323977499998,
          "velocity": 0.6299212598425197
        },
        {
          "duration": 0.3970588500000076,
          "durationTicks": 216,
          "midi": 65,
          "name": "F4",
          "ticks": 89760,
          "time": 170.36441627499997,
          "velocity": 0.6299212598425197
        },
        {
          "duration": 0.3970588499999792,
          "durationTicks": 216,
          "midi": 58,
          "name": "A#3",
          "ticks": 90000,
          "time": 170.80559277499998,
          "velocity": 0.6299212598425197
        },
        {
          "duration": 0.3970588499999792,
          "durationTicks": 216,
          "midi": 42,
          "name": "F#2",
          "ticks": 90240,
          "time": 171.246769275,
          "velocity": 0.6299212598425197
        },
        {
          "duration": 0.3970588500000076,
          "durationTicks": 216,
          "midi": 49,
          "name": "C#3",
          "ticks": 90480,
          "time": 171.68794577499997,
          "velocity": 0.6299212598425197
        },
        {
          "duration": 0.7941176999999868,
          "durationTicks": 432,
          "midi": 58,
          "name": "A#3",
          "ticks": 90720,
          "time": 172.129122275,
          "velocity": 0.6299212598425197
        },
        {
          "duration": 0.3970588499999792,
          "durationTicks": 216,
          "midi": 44,
          "name": "G#2",
          "ticks": 91200,
          "time": 173.01147527499998,
          "velocity": 0.6299212598425197
        },
        {
          "duration": 0.3970588499999792,
          "durationTicks": 216,
          "midi": 51,
          "name": "D#3",
          "ticks": 91440,
          "time": 173.452651775,
          "velocity": 0.6299212598425197
        },
        {
          "duration": 0.7941177000000152,
          "durationTicks": 432,
          "midi": 60,
          "name": "C4",
          "ticks": 91680,
          "time": 173.89382827499998,
          "velocity": 0.6299212598425197
        },
        {
          "duration": 0.3970588500000076,
          "durationTicks": 216,
          "midi": 46,
          "name": "A#2",
          "ticks": 92160,
          "time": 174.77618127499997,
          "velocity": 0.6299212598425197
        },
        {
          "duration": 0.3970588499999792,
          "durationTicks": 216,
          "midi": 53,
          "name": "F3",
          "ticks": 92400,
          "time": 175.21735777499998,
          "velocity": 0.6299212598425197
        },
        {
          "duration": 0.3970588499999792,
          "durationTicks": 216,
          "midi": 60,
          "name": "C4",
          "ticks": 92640,
          "time": 175.658534275,
          "velocity": 0.6299212598425197
        },
        {
          "duration": 0.3970588499999792,
          "durationTicks": 216,
          "midi": 61,
          "name": "C#4",
          "ticks": 92880,
          "time": 176.09971077499998,
          "velocity": 0.6299212598425197
        },
        {
          "duration": 0.3970588499999792,
          "durationTicks": 216,
          "midi": 68,
          "name": "G#4",
          "ticks": 93120,
          "time": 176.540887275,
          "velocity": 0.6299212598425197
        },
        {
          "duration": 0.3970588500000076,
          "durationTicks": 216,
          "midi": 60,
          "name": "C4",
          "ticks": 93360,
          "time": 176.98206377499997,
          "velocity": 0.6299212598425197
        },
        {
          "duration": 0.7941177000000152,
          "durationTicks": 432,
          "midi": 61,
          "name": "C#4",
          "ticks": 93600,
          "time": 177.42324027499998,
          "velocity": 0.6299212598425197
        },
        {
          "duration": 0.3970588499999792,
          "durationTicks": 216,
          "midi": 42,
          "name": "F#2",
          "ticks": 94080,
          "time": 178.30559327499998,
          "velocity": 0.6299212598425197
        },
        {
          "duration": 0.3970588499999792,
          "durationTicks": 216,
          "midi": 49,
          "name": "C#3",
          "ticks": 94320,
          "time": 178.746769775,
          "velocity": 0.6299212598425197
        },
        {
          "duration": 0.7941177000000152,
          "durationTicks": 432,
          "midi": 58,
          "name": "A#3",
          "ticks": 94560,
          "time": 179.18794627499997,
          "velocity": 0.6299212598425197
        },
        {
          "duration": 0.3970588500000076,
          "durationTicks": 216,
          "midi": 44,
          "name": "G#2",
          "ticks": 95040,
          "time": 180.07029927499997,
          "velocity": 0.6299212598425197
        },
        {
          "duration": 0.3970588499999792,
          "durationTicks": 216,
          "midi": 51,
          "name": "D#3",
          "ticks": 95280,
          "time": 180.51147577499998,
          "velocity": 0.6299212598425197
        },
        {
          "duration": 0.7941176999999868,
          "durationTicks": 432,
          "midi": 60,
          "name": "C4",
          "ticks": 95520,
          "time": 180.952652275,
          "velocity": 0.6299212598425197
        },
        {
          "duration": 0.3970588499999792,
          "durationTicks": 216,
          "midi": 49,
          "name": "C#3",
          "ticks": 96000,
          "time": 181.835005275,
          "velocity": 0.6299212598425197
        },
        {
          "duration": 0.3970588500000076,
          "durationTicks": 216,
          "midi": 56,
          "name": "G#3",
          "ticks": 96240,
          "time": 182.27618177499997,
          "velocity": 0.6299212598425197
        },
        {
          "duration": 0.3970588499999792,
          "durationTicks": 216,
          "midi": 63,
          "name": "D#4",
          "ticks": 96480,
          "time": 182.71735827499998,
          "velocity": 0.6299212598425197
        },
        {
          "duration": 0.3970588499999792,
          "durationTicks": 216,
          "midi": 56,
          "name": "G#3",
          "ticks": 96720,
          "time": 183.158534775,
          "velocity": 0.6299212598425197
        },
        {
          "duration": 0.3970588500000076,
          "durationTicks": 216,
          "midi": 65,
          "name": "F4",
          "ticks": 96960,
          "time": 183.59971127499998,
          "velocity": 0.6299212598425197
        },
        {
          "duration": 0.3970588499999792,
          "durationTicks": 216,
          "midi": 56,
          "name": "G#3",
          "ticks": 97200,
          "time": 184.040887775,
          "velocity": 0.6299212598425197
        },
        {
          "duration": 0.7941177000000152,
          "durationTicks": 432,
          "midi": 63,
          "name": "D#4",
          "ticks": 97440,
          "time": 184.48206427499997,
          "velocity": 0.6299212598425197
        },
        {
          "duration": 0.3970588500000076,
          "durationTicks": 216,
          "midi": 43,
          "name": "G2",
          "ticks": 97920,
          "time": 185.36441727499997,
          "velocity": 0.6299212598425197
        },
        {
          "duration": 0.3970588500000076,
          "durationTicks": 216,
          "midi": 55,
          "name": "G3",
          "ticks": 97920,
          "time": 185.36441727499997,
          "velocity": 0.6299212598425197
        },
        {
          "duration": 0.3970588499999792,
          "durationTicks": 216,
          "midi": 58,
          "name": "A#3",
          "ticks": 98160,
          "time": 185.80559377499998,
          "velocity": 0.6299212598425197
        },
        {
          "duration": 0.3970588499999792,
          "durationTicks": 216,
          "midi": 63,
          "name": "D#4",
          "ticks": 98400,
          "time": 186.246770275,
          "velocity": 0.6299212598425197
        },
        {
          "duration": 0.3970588500000076,
          "durationTicks": 216,
          "midi": 58,
          "name": "A#3",
          "ticks": 98640,
          "time": 186.68794677499997,
          "velocity": 0.6299212598425197
        },
        {
          "duration": 0.3970588499999792,
          "durationTicks": 216,
          "midi": 41,
          "name": "F2",
          "ticks": 98880,
          "time": 187.12912327499998,
          "velocity": 0.6299212598425197
        },
        {
          "duration": 0.3970588499999792,
          "durationTicks": 216,
          "midi": 53,
          "name": "F3",
          "ticks": 98880,
          "time": 187.12912327499998,
          "velocity": 0.6299212598425197
        },
        {
          "duration": 0.3970588500000076,
          "durationTicks": 216,
          "midi": 60,
          "name": "C4",
          "ticks": 99120,
          "time": 187.57029977499997,
          "velocity": 0.6299212598425197
        },
        {
          "duration": 0.3970588499999792,
          "durationTicks": 216,
          "midi": 63,
          "name": "D#4",
          "ticks": 99360,
          "time": 188.01147627499998,
          "velocity": 0.6299212598425197
        },
        {
          "duration": 0.3970588499999792,
          "durationTicks": 216,
          "midi": 60,
          "name": "C4",
          "ticks": 99600,
          "time": 188.452652775,
          "velocity": 0.6299212598425197
        },
        {
          "duration": 0.3970588500000076,
          "durationTicks": 216,
          "midi": 46,
          "name": "A#2",
          "ticks": 99840,
          "time": 188.89382927499997,
          "velocity": 0.6299212598425197
        },
        {
          "duration": 0.3970588499999792,
          "durationTicks": 216,
          "midi": 53,
          "name": "F3",
          "ticks": 100080,
          "time": 189.33500577499998,
          "velocity": 0.6299212598425197
        },
        {
          "duration": 0.3970588500000076,
          "durationTicks": 216,
          "midi": 58,
          "name": "A#3",
          "ticks": 100320,
          "time": 189.77618227499997,
          "velocity": 0.6299212598425197
        },
        {
          "duration": 0.3970588499999792,
          "durationTicks": 216,
          "midi": 53,
          "name": "F3",
          "ticks": 100560,
          "time": 190.21735877499998,
          "velocity": 0.6299212598425197
        },
        {
          "duration": 0.3970588499999792,
          "durationTicks": 216,
          "midi": 43,
          "name": "G2",
          "ticks": 100800,
          "time": 190.658535275,
          "velocity": 0.6299212598425197
        },
        {
          "duration": 0.3970588500000076,
          "durationTicks": 216,
          "midi": 55,
          "name": "G3",
          "ticks": 101040,
          "time": 191.09971177499997,
          "velocity": 0.6299212598425197
        },
        {
          "duration": 0.7941176999999868,
          "durationTicks": 432,
          "midi": 61,
          "name": "C#4",
          "ticks": 101280,
          "time": 191.540888275,
          "velocity": 0.6299212598425197
        },
        {
          "duration": 0.3970588499999792,
          "durationTicks": 216,
          "midi": 51,
          "name": "D#3",
          "ticks": 101760,
          "time": 192.42324127499998,
          "velocity": 0.6299212598425197
        },
        {
          "duration": 0.3970588499999792,
          "durationTicks": 216,
          "midi": 58,
          "name": "A#3",
          "ticks": 102000,
          "time": 192.864417775,
          "velocity": 0.6299212598425197
        },
        {
          "duration": 0.3970588499999792,
          "durationTicks": 216,
          "midi": 61,
          "name": "C#4",
          "ticks": 102240,
          "time": 193.30559427499998,
          "velocity": 0.6299212598425197
        },
        {
          "duration": 0.3970588499999792,
          "durationTicks": 216,
          "midi": 65,
          "name": "F4",
          "ticks": 102480,
          "time": 193.746770775,
          "velocity": 0.6299212598425197
        },
        {
          "duration": 1.5882354000000305,
          "durationTicks": 864,
          "midi": 41,
          "name": "F2",
          "ticks": 102720,
          "time": 194.18794727499997,
          "velocity": 0.6299212598425197
        },
        {
          "duration": 0.3970588499999792,
          "durationTicks": 216,
          "midi": 46,
          "name": "A#2",
          "ticks": 103680,
          "time": 195.952653275,
          "velocity": 0.6299212598425197
        },
        {
          "duration": 0.3970588500000076,
          "durationTicks": 216,
          "midi": 53,
          "name": "F3",
          "ticks": 103920,
          "time": 196.39382977499997,
          "velocity": 0.6299212598425197
        },
        {
          "duration": 0.3970588499999792,
          "durationTicks": 216,
          "midi": 61,
          "name": "C#4",
          "ticks": 104160,
          "time": 196.83500627499998,
          "velocity": 0.6299212598425197
        },
        {
          "duration": 0.3970588500000076,
          "durationTicks": 216,
          "midi": 60,
          "name": "C4",
          "ticks": 104400,
          "time": 197.27618277499997,
          "velocity": 0.6299212598425197
        },
        {
          "duration": 0.3970588499999792,
          "durationTicks": 216,
          "midi": 63,
          "name": "D#4",
          "ticks": 104640,
          "time": 197.71735927499998,
          "velocity": 0.6299212598425197
        },
        {
          "duration": 0.3970588499999792,
          "durationTicks": 216,
          "midi": 58,
          "name": "A#3",
          "ticks": 104880,
          "time": 198.158535775,
          "velocity": 0.6299212598425197
        },
        {
          "duration": 0.7941177000000152,
          "durationTicks": 432,
          "midi": 58,
          "name": "A#3",
          "ticks": 105120,
          "time": 198.59971227499997,
          "velocity": 0.6299212598425197
        },
        {
          "duration": 0.7941177000000152,
          "durationTicks": 432,
          "midi": 61,
          "name": "C#4",
          "ticks": 105120,
          "time": 198.59971227499997,
          "velocity": 0.6299212598425197
        },
        {
          "duration": 0.7941177000000152,
          "durationTicks": 432,
          "midi": 65,
          "name": "F4",
          "ticks": 105120,
          "time": 198.59971227499997,
          "velocity": 0.6299212598425197
        },
        {
          "duration": 0.3970588500000076,
          "durationTicks": 216,
          "midi": 42,
          "name": "F#2",
          "ticks": 105600,
          "time": 199.48206527499997,
          "velocity": 0.6299212598425197
        },
        {
          "duration": 0.3970588500000076,
          "durationTicks": 216,
          "midi": 54,
          "name": "F#3",
          "ticks": 105600,
          "time": 199.48206527499997,
          "velocity": 0.6299212598425197
        },
        {
          "duration": 0.3970588499999792,
          "durationTicks": 216,
          "midi": 49,
          "name": "C#3",
          "ticks": 105840,
          "time": 199.92324177499998,
          "velocity": 0.6299212598425197
        },
        {
          "duration": 0.7941176999999868,
          "durationTicks": 432,
          "midi": 54,
          "name": "F#3",
          "ticks": 106080,
          "time": 200.364418275,
          "velocity": 0.6299212598425197
        },
        {
          "duration": 0.7941176999999868,
          "durationTicks": 432,
          "midi": 58,
          "name": "A#3",
          "ticks": 106080,
          "time": 200.364418275,
          "velocity": 0.6299212598425197
        },
        {
          "duration": 0.3970588499999792,
          "durationTicks": 216,
          "midi": 44,
          "name": "G#2",
          "ticks": 106560,
          "time": 201.246771275,
          "velocity": 0.6299212598425197
        },
        {
          "duration": 0.3970588499999792,
          "durationTicks": 216,
          "midi": 56,
          "name": "G#3",
          "ticks": 106560,
          "time": 201.246771275,
          "velocity": 0.6299212598425197
        },
        {
          "duration": 0.3970588500000076,
          "durationTicks": 216,
          "midi": 51,
          "name": "D#3",
          "ticks": 106800,
          "time": 201.68794777499997,
          "velocity": 0.6299212598425197
        },
        {
          "duration": 0.7941177000000152,
          "durationTicks": 432,
          "midi": 56,
          "name": "G#3",
          "ticks": 107040,
          "time": 202.12912427499998,
          "velocity": 0.6299212598425197
        },
        {
          "duration": 0.7941177000000152,
          "durationTicks": 432,
          "midi": 60,
          "name": "C4",
          "ticks": 107040,
          "time": 202.12912427499998,
          "velocity": 0.6299212598425197
        },
        {
          "duration": 0.3970588499999792,
          "durationTicks": 216,
          "midi": 46,
          "name": "A#2",
          "ticks": 107520,
          "time": 203.01147727499998,
          "velocity": 0.6299212598425197
        },
        {
          "duration": 0.3970588499999792,
          "durationTicks": 216,
          "midi": 58,
          "name": "A#3",
          "ticks": 107520,
          "time": 203.01147727499998,
          "velocity": 0.6299212598425197
        },
        {
          "duration": 0.3970588499999792,
          "durationTicks": 216,
          "midi": 53,
          "name": "F3",
          "ticks": 107760,
          "time": 203.452653775,
          "velocity": 0.6299212598425197
        },
        {
          "duration": 0.3970588500000076,
          "durationTicks": 216,
          "midi": 60,
          "name": "C4",
          "ticks": 108000,
          "time": 203.89383027499997,
          "velocity": 0.6299212598425197
        },
        {
          "duration": 0.3970588499999792,
          "durationTicks": 216,
          "midi": 61,
          "name": "C#4",
          "ticks": 108240,
          "time": 204.33500677499998,
          "velocity": 0.6299212598425197
        },
        {
          "duration": 0.3970588500000076,
          "durationTicks": 216,
          "midi": 63,
          "name": "D#4",
          "ticks": 108480,
          "time": 204.77618327499997,
          "velocity": 0.6299212598425197
        },
        {
          "duration": 0.3970588499999792,
          "durationTicks": 216,
          "midi": 60,
          "name": "C4",
          "ticks": 108720,
          "time": 205.21735977499998,
          "velocity": 0.6299212598425197
        },
        {
          "duration": 0.7941176999999868,
          "durationTicks": 432,
          "midi": 61,
          "name": "C#4",
          "ticks": 108960,
          "time": 205.658536275,
          "velocity": 0.6299212598425197
        },
        {
          "duration": 0.3970588499999792,
          "durationTicks": 216,
          "midi": 42,
          "name": "F#2",
          "ticks": 109440,
          "time": 206.54088927499998,
          "velocity": 0.6299212598425197
        },
        {
          "duration": 0.3970588499999792,
          "durationTicks": 216,
          "midi": 54,
          "name": "F#3",
          "ticks": 109440,
          "time": 206.54088927499998,
          "velocity": 0.6299212598425197
        },
        {
          "duration": 0.3970588500000076,
          "durationTicks": 216,
          "midi": 49,
          "name": "C#3",
          "ticks": 109680,
          "time": 206.98206577499997,
          "velocity": 0.6299212598425197
        },
        {
          "duration": 0.7941177000000152,
          "durationTicks": 432,
          "midi": 58,
          "name": "A#3",
          "ticks": 109920,
          "time": 207.42324227499998,
          "velocity": 0.6299212598425197
        },
        {
          "duration": 0.3970588500000076,
          "durationTicks": 216,
          "midi": 44,
          "name": "G#2",
          "ticks": 110400,
          "time": 208.30559527499997,
          "velocity": 0.6299212598425197
        },
        {
          "duration": 0.3970588500000076,
          "durationTicks": 216,
          "midi": 56,
          "name": "G#3",
          "ticks": 110400,
          "time": 208.30559527499997,
          "velocity": 0.6299212598425197
        },
        {
          "duration": 0.3970588499999792,
          "durationTicks": 216,
          "midi": 51,
          "name": "D#3",
          "ticks": 110640,
          "time": 208.74677177499998,
          "velocity": 0.6299212598425197
        },
        {
          "duration": 0.7941177000000152,
          "durationTicks": 432,
          "midi": 58,
          "name": "A#3",
          "ticks": 110880,
          "time": 209.18794827499997,
          "velocity": 0.6299212598425197
        },
        {
          "duration": 0.3970588499999792,
          "durationTicks": 216,
          "midi": 46,
          "name": "A#2",
          "ticks": 111360,
          "time": 210.070301275,
          "velocity": 0.6299212598425197
        },
        {
          "duration": 0.3970588499999792,
          "durationTicks": 216,
          "midi": 58,
          "name": "A#3",
          "ticks": 111360,
          "time": 210.070301275,
          "velocity": 0.6299212598425197
        },
        {
          "duration": 0.3970588499999792,
          "durationTicks": 216,
          "midi": 53,
          "name": "F3",
          "ticks": 111600,
          "time": 210.51147777499997,
          "velocity": 0.6299212598425197
        },
        {
          "duration": 0.3970588499999792,
          "durationTicks": 216,
          "midi": 61,
          "name": "C#4",
          "ticks": 111840,
          "time": 210.952654275,
          "velocity": 0.6299212598425197
        },
        {
          "duration": 0.3970588500000076,
          "durationTicks": 216,
          "midi": 60,
          "name": "C4",
          "ticks": 112080,
          "time": 211.39383077499997,
          "velocity": 0.6299212598425197
        },
        {
          "duration": 0.3970588499999792,
          "durationTicks": 216,
          "midi": 63,
          "name": "D#4",
          "ticks": 112320,
          "time": 211.83500727499998,
          "velocity": 0.6299212598425197
        },
        {
          "duration": 0.3970588500000076,
          "durationTicks": 216,
          "midi": 58,
          "name": "A#3",
          "ticks": 112560,
          "time": 212.27618377499996,
          "velocity": 0.6299212598425197
        },
        {
          "duration": 0.7941177000000152,
          "durationTicks": 432,
          "midi": 53,
          "name": "F3",
          "ticks": 112800,
          "time": 212.71736027499998,
          "velocity": 0.6299212598425197
        },
        {
          "duration": 0.3970588500000076,
          "durationTicks": 216,
          "midi": 42,
          "name": "F#2",
          "ticks": 113280,
          "time": 213.59971327499997,
          "velocity": 0.6299212598425197
        },
        {
          "duration": 0.3970588500000076,
          "durationTicks": 216,
          "midi": 54,
          "name": "F#3",
          "ticks": 113280,
          "time": 213.59971327499997,
          "velocity": 0.6299212598425197
        },
        {
          "duration": 0.3970588499999792,
          "durationTicks": 216,
          "midi": 49,
          "name": "C#3",
          "ticks": 113520,
          "time": 214.04088977499998,
          "velocity": 0.6299212598425197
        },
        {
          "duration": 0.7941177000000152,
          "durationTicks": 432,
          "midi": 54,
          "name": "F#3",
          "ticks": 113760,
          "time": 214.48206627499997,
          "velocity": 0.6299212598425197
        },
        {
          "duration": 0.7941177000000152,
          "durationTicks": 432,
          "midi": 58,
          "name": "A#3",
          "ticks": 113760,
          "time": 214.48206627499997,
          "velocity": 0.6299212598425197
        },
        {
          "duration": 0.7941177000000152,
          "durationTicks": 432,
          "midi": 61,
          "name": "C#4",
          "ticks": 113760,
          "time": 214.48206627499997,
          "velocity": 0.6299212598425197
        },
        {
          "duration": 0.3970588499999792,
          "durationTicks": 216,
          "midi": 44,
          "name": "G#2",
          "ticks": 114240,
          "time": 215.364419275,
          "velocity": 0.6299212598425197
        },
        {
          "duration": 0.3970588499999792,
          "durationTicks": 216,
          "midi": 56,
          "name": "G#3",
          "ticks": 114240,
          "time": 215.364419275,
          "velocity": 0.6299212598425197
        },
        {
          "duration": 0.3970588500000076,
          "durationTicks": 216,
          "midi": 51,
          "name": "D#3",
          "ticks": 114480,
          "time": 215.80559577499997,
          "velocity": 0.6299212598425197
        },
        {
          "duration": 0.7941176999999868,
          "durationTicks": 432,
          "midi": 56,
          "name": "G#3",
          "ticks": 114720,
          "time": 216.24677227499998,
          "velocity": 0.6299212598425197
        },
        {
          "duration": 0.7941176999999868,
          "durationTicks": 432,
          "midi": 60,
          "name": "C4",
          "ticks": 114720,
          "time": 216.24677227499998,
          "velocity": 0.6299212598425197
        },
        {
          "duration": 0.7941176999999868,
          "durationTicks": 432,
          "midi": 63,
          "name": "D#4",
          "ticks": 114720,
          "time": 216.24677227499998,
          "velocity": 0.6299212598425197
        },
        {
          "duration": 0.3970588499999792,
          "durationTicks": 216,
          "midi": 46,
          "name": "A#2",
          "ticks": 115200,
          "time": 217.12912527499998,
          "velocity": 0.6299212598425197
        },
        {
          "duration": 0.3970588499999792,
          "durationTicks": 216,
          "midi": 58,
          "name": "A#3",
          "ticks": 115200,
          "time": 217.12912527499998,
          "velocity": 0.6299212598425197
        },
        {
          "duration": 0.3970588499999792,
          "durationTicks": 216,
          "midi": 53,
          "name": "F3",
          "ticks": 115440,
          "time": 217.570301775,
          "velocity": 0.6299212598425197
        },
        {
          "duration": 0.3970588500000076,
          "durationTicks": 216,
          "midi": 63,
          "name": "D#4",
          "ticks": 115680,
          "time": 218.01147827499997,
          "velocity": 0.6299212598425197
        },
        {
          "duration": 0.3970588499999792,
          "durationTicks": 216,
          "midi": 60,
          "name": "C4",
          "ticks": 115920,
          "time": 218.45265477499998,
          "velocity": 0.6299212598425197
        },
        {
          "duration": 1.5882354000000305,
          "durationTicks": 864,
          "midi": 61,
          "name": "C#4",
          "ticks": 116160,
          "time": 218.89383127499997,
          "velocity": 0.6299212598425197
        },
        {
          "duration": 1.588235400000002,
          "durationTicks": 864,
          "midi": 39,
          "name": "D#2",
          "ticks": 117120,
          "time": 220.658537275,
          "velocity": 0.6299212598425197
        },
        {
          "duration": 1.588235400000002,
          "durationTicks": 864,
          "midi": 51,
          "name": "D#3",
          "ticks": 117120,
          "time": 220.658537275,
          "velocity": 0.6299212598425197
        },
        {
          "duration": 1.588235400000002,
          "durationTicks": 864,
          "midi": 41,
          "name": "F2",
          "ticks": 118080,
          "time": 222.42324327499998,
          "velocity": 0.6299212598425197
        },
        {
          "duration": 1.588235400000002,
          "durationTicks": 864,
          "midi": 53,
          "name": "F3",
          "ticks": 118080,
          "time": 222.42324327499998,
          "velocity": 0.6299212598425197
        },
        {
          "duration": 0.7941177000000152,
          "durationTicks": 432,
          "midi": 42,
          "name": "F#2",
          "ticks": 119040,
          "time": 224.18794927499997,
          "velocity": 0.6299212598425197
        },
        {
          "duration": 0.7941177000000152,
          "durationTicks": 432,
          "midi": 49,
          "name": "C#3",
          "ticks": 119040,
          "time": 224.18794927499997,
          "velocity": 0.6299212598425197
        },
        {
          "duration": 0.7941177000000152,
          "durationTicks": 432,
          "midi": 54,
          "name": "F#3",
          "ticks": 119040,
          "time": 224.18794927499997,
          "velocity": 0.6299212598425197
        },
        {
          "duration": 0.7941176999999868,
          "durationTicks": 432,
          "midi": 42,
          "name": "F#2",
          "ticks": 119520,
          "time": 225.070302275,
          "velocity": 0.6299212598425197
        },
        {
          "duration": 0.7941176999999868,
          "durationTicks": 432,
          "midi": 49,
          "name": "C#3",
          "ticks": 119520,
          "time": 225.070302275,
          "velocity": 0.6299212598425197
        },
        {
          "duration": 0.7941176999999868,
          "durationTicks": 432,
          "midi": 54,
          "name": "F#3",
          "ticks": 119520,
          "time": 225.070302275,
          "velocity": 0.6299212598425197
        },
        {
          "duration": 0.7941176999999868,
          "durationTicks": 432,
          "midi": 42,
          "name": "F#2",
          "ticks": 120000,
          "time": 225.95265527499998,
          "velocity": 0.6299212598425197
        },
        {
          "duration": 0.7941176999999868,
          "durationTicks": 432,
          "midi": 49,
          "name": "C#3",
          "ticks": 120000,
          "time": 225.95265527499998,
          "velocity": 0.6299212598425197
        },
        {
          "duration": 0.7941176999999868,
          "durationTicks": 432,
          "midi": 54,
          "name": "F#3",
          "ticks": 120000,
          "time": 225.95265527499998,
          "velocity": 0.6299212598425197
        },
        {
          "duration": 0.7941177000000152,
          "durationTicks": 432,
          "midi": 42,
          "name": "F#2",
          "ticks": 120480,
          "time": 226.83500827499998,
          "velocity": 0.6299212598425197
        },
        {
          "duration": 0.7941177000000152,
          "durationTicks": 432,
          "midi": 49,
          "name": "C#3",
          "ticks": 120480,
          "time": 226.83500827499998,
          "velocity": 0.6299212598425197
        },
        {
          "duration": 0.7941177000000152,
          "durationTicks": 432,
          "midi": 54,
          "name": "F#3",
          "ticks": 120480,
          "time": 226.83500827499998,
          "velocity": 0.6299212598425197
        },
        {
          "duration": 0.7941177000000152,
          "durationTicks": 432,
          "midi": 44,
          "name": "G#2",
          "ticks": 120960,
          "time": 227.71736127499997,
          "velocity": 0.6299212598425197
        },
        {
          "duration": 0.7941177000000152,
          "durationTicks": 432,
          "midi": 51,
          "name": "D#3",
          "ticks": 120960,
          "time": 227.71736127499997,
          "velocity": 0.6299212598425197
        },
        {
          "duration": 0.7941177000000152,
          "durationTicks": 432,
          "midi": 56,
          "name": "G#3",
          "ticks": 120960,
          "time": 227.71736127499997,
          "velocity": 0.6299212598425197
        },
        {
          "duration": 0.7941177000000152,
          "durationTicks": 432,
          "midi": 44,
          "name": "G#2",
          "ticks": 121440,
          "time": 228.59971427499997,
          "velocity": 0.6299212598425197
        },
        {
          "duration": 0.7941177000000152,
          "durationTicks": 432,
          "midi": 51,
          "name": "D#3",
          "ticks": 121440,
          "time": 228.59971427499997,
          "velocity": 0.6299212598425197
        },
        {
          "duration": 0.7941177000000152,
          "durationTicks": 432,
          "midi": 56,
          "name": "G#3",
          "ticks": 121440,
          "time": 228.59971427499997,
          "velocity": 0.6299212598425197
        },
        {
          "duration": 0.7941177000000152,
          "durationTicks": 432,
          "midi": 44,
          "name": "G#2",
          "ticks": 121920,
          "time": 229.48206727499996,
          "velocity": 0.6299212598425197
        },
        {
          "duration": 0.7941177000000152,
          "durationTicks": 432,
          "midi": 51,
          "name": "D#3",
          "ticks": 121920,
          "time": 229.48206727499996,
          "velocity": 0.6299212598425197
        },
        {
          "duration": 0.7941177000000152,
          "durationTicks": 432,
          "midi": 56,
          "name": "G#3",
          "ticks": 121920,
          "time": 229.48206727499996,
          "velocity": 0.6299212598425197
        },
        {
          "duration": 0.7941176999999868,
          "durationTicks": 432,
          "midi": 44,
          "name": "G#2",
          "ticks": 122400,
          "time": 230.364420275,
          "velocity": 0.6299212598425197
        },
        {
          "duration": 0.7941176999999868,
          "durationTicks": 432,
          "midi": 51,
          "name": "D#3",
          "ticks": 122400,
          "time": 230.364420275,
          "velocity": 0.6299212598425197
        },
        {
          "duration": 0.7941176999999868,
          "durationTicks": 432,
          "midi": 56,
          "name": "G#3",
          "ticks": 122400,
          "time": 230.364420275,
          "velocity": 0.6299212598425197
        },
        {
          "duration": 0.7941176999999868,
          "durationTicks": 432,
          "midi": 42,
          "name": "F#2",
          "ticks": 122880,
          "time": 231.24677327499998,
          "velocity": 0.6299212598425197
        },
        {
          "duration": 0.7941176999999868,
          "durationTicks": 432,
          "midi": 49,
          "name": "C#3",
          "ticks": 122880,
          "time": 231.24677327499998,
          "velocity": 0.6299212598425197
        },
        {
          "duration": 0.7941176999999868,
          "durationTicks": 432,
          "midi": 54,
          "name": "F#3",
          "ticks": 122880,
          "time": 231.24677327499998,
          "velocity": 0.6299212598425197
        },
        {
          "duration": 0.7941177000000152,
          "durationTicks": 432,
          "midi": 42,
          "name": "F#2",
          "ticks": 123360,
          "time": 232.12912627499998,
          "velocity": 0.6299212598425197
        },
        {
          "duration": 0.7941177000000152,
          "durationTicks": 432,
          "midi": 49,
          "name": "C#3",
          "ticks": 123360,
          "time": 232.12912627499998,
          "velocity": 0.6299212598425197
        },
        {
          "duration": 0.7941177000000152,
          "durationTicks": 432,
          "midi": 54,
          "name": "F#3",
          "ticks": 123360,
          "time": 232.12912627499998,
          "velocity": 0.6299212598425197
        },
        {
          "duration": 0.7941177000000152,
          "durationTicks": 432,
          "midi": 42,
          "name": "F#2",
          "ticks": 123840,
          "time": 233.01147927499997,
          "velocity": 0.6299212598425197
        },
        {
          "duration": 0.7941177000000152,
          "durationTicks": 432,
          "midi": 49,
          "name": "C#3",
          "ticks": 123840,
          "time": 233.01147927499997,
          "velocity": 0.6299212598425197
        },
        {
          "duration": 0.7941177000000152,
          "durationTicks": 432,
          "midi": 54,
          "name": "F#3",
          "ticks": 123840,
          "time": 233.01147927499997,
          "velocity": 0.6299212598425197
        },
        {
          "duration": 0.7941177000000152,
          "durationTicks": 432,
          "midi": 42,
          "name": "F#2",
          "ticks": 124320,
          "time": 233.89383227499997,
          "velocity": 0.6299212598425197
        },
        {
          "duration": 0.7941177000000152,
          "durationTicks": 432,
          "midi": 49,
          "name": "C#3",
          "ticks": 124320,
          "time": 233.89383227499997,
          "velocity": 0.6299212598425197
        },
        {
          "duration": 0.7941177000000152,
          "durationTicks": 432,
          "midi": 54,
          "name": "F#3",
          "ticks": 124320,
          "time": 233.89383227499997,
          "velocity": 0.6299212598425197
        },
        {
          "duration": 0.7941176999999868,
          "durationTicks": 432,
          "midi": 42,
          "name": "F#2",
          "ticks": 124800,
          "time": 234.776185275,
          "velocity": 0.6299212598425197
        },
        {
          "duration": 0.7941176999999868,
          "durationTicks": 432,
          "midi": 49,
          "name": "C#3",
          "ticks": 124800,
          "time": 234.776185275,
          "velocity": 0.6299212598425197
        },
        {
          "duration": 0.7941176999999868,
          "durationTicks": 432,
          "midi": 54,
          "name": "F#3",
          "ticks": 124800,
          "time": 234.776185275,
          "velocity": 0.6299212598425197
        },
        {
          "duration": 0.7941176999999868,
          "durationTicks": 432,
          "midi": 42,
          "name": "F#2",
          "ticks": 125280,
          "time": 235.65853827499998,
          "velocity": 0.6299212598425197
        },
        {
          "duration": 0.7941176999999868,
          "durationTicks": 432,
          "midi": 49,
          "name": "C#3",
          "ticks": 125280,
          "time": 235.65853827499998,
          "velocity": 0.6299212598425197
        },
        {
          "duration": 0.7941176999999868,
          "durationTicks": 432,
          "midi": 54,
          "name": "F#3",
          "ticks": 125280,
          "time": 235.65853827499998,
          "velocity": 0.6299212598425197
        },
        {
          "duration": 0.7941177000000152,
          "durationTicks": 432,
          "midi": 42,
          "name": "F#2",
          "ticks": 125760,
          "time": 236.54089127499998,
          "velocity": 0.6299212598425197
        },
        {
          "duration": 0.7941177000000152,
          "durationTicks": 432,
          "midi": 49,
          "name": "C#3",
          "ticks": 125760,
          "time": 236.54089127499998,
          "velocity": 0.6299212598425197
        },
        {
          "duration": 0.7941177000000152,
          "durationTicks": 432,
          "midi": 54,
          "name": "F#3",
          "ticks": 125760,
          "time": 236.54089127499998,
          "velocity": 0.6299212598425197
        },
        {
          "duration": 0.7941177000000152,
          "durationTicks": 432,
          "midi": 42,
          "name": "F#2",
          "ticks": 126240,
          "time": 237.42324427499997,
          "velocity": 0.6299212598425197
        },
        {
          "duration": 0.7941177000000152,
          "durationTicks": 432,
          "midi": 49,
          "name": "C#3",
          "ticks": 126240,
          "time": 237.42324427499997,
          "velocity": 0.6299212598425197
        },
        {
          "duration": 0.7941177000000152,
          "durationTicks": 432,
          "midi": 54,
          "name": "F#3",
          "ticks": 126240,
          "time": 237.42324427499997,
          "velocity": 0.6299212598425197
        },
        {
          "duration": 0.7941177000000152,
          "durationTicks": 432,
          "midi": 44,
          "name": "G#2",
          "ticks": 126720,
          "time": 238.30559727499997,
          "velocity": 0.6299212598425197
        },
        {
          "duration": 0.7941177000000152,
          "durationTicks": 432,
          "midi": 51,
          "name": "D#3",
          "ticks": 126720,
          "time": 238.30559727499997,
          "velocity": 0.6299212598425197
        },
        {
          "duration": 0.7941177000000152,
          "durationTicks": 432,
          "midi": 56,
          "name": "G#3",
          "ticks": 126720,
          "time": 238.30559727499997,
          "velocity": 0.6299212598425197
        },
        {
          "duration": 0.7941177000000152,
          "durationTicks": 432,
          "midi": 44,
          "name": "G#2",
          "ticks": 127200,
          "time": 239.18795027499996,
          "velocity": 0.6299212598425197
        },
        {
          "duration": 0.7941177000000152,
          "durationTicks": 432,
          "midi": 51,
          "name": "D#3",
          "ticks": 127200,
          "time": 239.18795027499996,
          "velocity": 0.6299212598425197
        },
        {
          "duration": 0.7941177000000152,
          "durationTicks": 432,
          "midi": 56,
          "name": "G#3",
          "ticks": 127200,
          "time": 239.18795027499996,
          "velocity": 0.6299212598425197
        },
        {
          "duration": 0.7941176999999868,
          "durationTicks": 432,
          "midi": 44,
          "name": "G#2",
          "ticks": 127680,
          "time": 240.070303275,
          "velocity": 0.6299212598425197
        },
        {
          "duration": 0.7941176999999868,
          "durationTicks": 432,
          "midi": 51,
          "name": "D#3",
          "ticks": 127680,
          "time": 240.070303275,
          "velocity": 0.6299212598425197
        },
        {
          "duration": 0.7941176999999868,
          "durationTicks": 432,
          "midi": 56,
          "name": "G#3",
          "ticks": 127680,
          "time": 240.070303275,
          "velocity": 0.6299212598425197
        },
        {
          "duration": 0.7941176999999868,
          "durationTicks": 432,
          "midi": 44,
          "name": "G#2",
          "ticks": 128160,
          "time": 240.95265627499998,
          "velocity": 0.6299212598425197
        },
        {
          "duration": 0.7941176999999868,
          "durationTicks": 432,
          "midi": 51,
          "name": "D#3",
          "ticks": 128160,
          "time": 240.95265627499998,
          "velocity": 0.6299212598425197
        },
        {
          "duration": 0.7941176999999868,
          "durationTicks": 432,
          "midi": 56,
          "name": "G#3",
          "ticks": 128160,
          "time": 240.95265627499998,
          "velocity": 0.6299212598425197
        },
        {
          "duration": 0.7941176999999868,
          "durationTicks": 432,
          "midi": 51,
          "name": "D#3",
          "ticks": 128640,
          "time": 241.83500927499998,
          "velocity": 0.6299212598425197
        },
        {
          "duration": 0.7941176999999868,
          "durationTicks": 432,
          "midi": 58,
          "name": "A#3",
          "ticks": 128640,
          "time": 241.83500927499998,
          "velocity": 0.6299212598425197
        },
        {
          "duration": 0.7941176999999868,
          "durationTicks": 432,
          "midi": 63,
          "name": "D#4",
          "ticks": 128640,
          "time": 241.83500927499998,
          "velocity": 0.6299212598425197
        },
        {
          "duration": 0.7941176999999868,
          "durationTicks": 432,
          "midi": 51,
          "name": "D#3",
          "ticks": 129120,
          "time": 242.71736227499997,
          "velocity": 0.6299212598425197
        },
        {
          "duration": 0.7941176999999868,
          "durationTicks": 432,
          "midi": 58,
          "name": "A#3",
          "ticks": 129120,
          "time": 242.71736227499997,
          "velocity": 0.6299212598425197
        },
        {
          "duration": 0.7941176999999868,
          "durationTicks": 432,
          "midi": 63,
          "name": "D#4",
          "ticks": 129120,
          "time": 242.71736227499997,
          "velocity": 0.6299212598425197
        },
        {
          "duration": 0.7941176999999868,
          "durationTicks": 432,
          "midi": 51,
          "name": "D#3",
          "ticks": 129600,
          "time": 243.59971527499997,
          "velocity": 0.6299212598425197
        },
        {
          "duration": 0.7941176999999868,
          "durationTicks": 432,
          "midi": 58,
          "name": "A#3",
          "ticks": 129600,
          "time": 243.59971527499997,
          "velocity": 0.6299212598425197
        },
        {
          "duration": 0.7941176999999868,
          "durationTicks": 432,
          "midi": 63,
          "name": "D#4",
          "ticks": 129600,
          "time": 243.59971527499997,
          "velocity": 0.6299212598425197
        },
        {
          "duration": 0.7941176999999584,
          "durationTicks": 432,
          "midi": 51,
          "name": "D#3",
          "ticks": 130080,
          "time": 244.482068275,
          "velocity": 0.6299212598425197
        },
        {
          "duration": 0.7941176999999584,
          "durationTicks": 432,
          "midi": 58,
          "name": "A#3",
          "ticks": 130080,
          "time": 244.482068275,
          "velocity": 0.6299212598425197
        },
        {
          "duration": 0.7941176999999584,
          "durationTicks": 432,
          "midi": 63,
          "name": "D#4",
          "ticks": 130080,
          "time": 244.482068275,
          "velocity": 0.6299212598425197
        },
        {
          "duration": 0.7941176999999584,
          "durationTicks": 432,
          "midi": 46,
          "name": "A#2",
          "ticks": 130560,
          "time": 245.36442127499998,
          "velocity": 0.6299212598425197
        },
        {
          "duration": 0.7941176999999584,
          "durationTicks": 432,
          "midi": 49,
          "name": "C#3",
          "ticks": 130560,
          "time": 245.36442127499998,
          "velocity": 0.6299212598425197
        },
        {
          "duration": 0.7941176999999584,
          "durationTicks": 432,
          "midi": 53,
          "name": "F3",
          "ticks": 130560,
          "time": 245.36442127499998,
          "velocity": 0.6299212598425197
        },
        {
          "duration": 0.7941176999999584,
          "durationTicks": 432,
          "midi": 58,
          "name": "A#3",
          "ticks": 130560,
          "time": 245.36442127499998,
          "velocity": 0.6299212598425197
        },
        {
          "duration": 0.7941176999999868,
          "durationTicks": 432,
          "midi": 46,
          "name": "A#2",
          "ticks": 131040,
          "time": 246.24677427499998,
          "velocity": 0.6299212598425197
        },
        {
          "duration": 0.7941176999999868,
          "durationTicks": 432,
          "midi": 49,
          "name": "C#3",
          "ticks": 131040,
          "time": 246.24677427499998,
          "velocity": 0.6299212598425197
        },
        {
          "duration": 0.7941176999999868,
          "durationTicks": 432,
          "midi": 53,
          "name": "F3",
          "ticks": 131040,
          "time": 246.24677427499998,
          "velocity": 0.6299212598425197
        },
        {
          "duration": 0.7941176999999868,
          "durationTicks": 432,
          "midi": 58,
          "name": "A#3",
          "ticks": 131040,
          "time": 246.24677427499998,
          "velocity": 0.6299212598425197
        },
        {
          "duration": 0.3970588499999792,
          "durationTicks": 216,
          "midi": 46,
          "name": "A#2",
          "ticks": 131520,
          "time": 247.12912727499997,
          "velocity": 0.6299212598425197
        },
        {
          "duration": 0.3970588499999792,
          "durationTicks": 216,
          "midi": 53,
          "name": "F3",
          "ticks": 131520,
          "time": 247.12912727499997,
          "velocity": 0.6299212598425197
        },
        {
          "duration": 0.3970588499999792,
          "durationTicks": 216,
          "midi": 58,
          "name": "A#3",
          "ticks": 131520,
          "time": 247.12912727499997,
          "velocity": 0.6299212598425197
        },
        {
          "duration": 0.3970588499999792,
          "durationTicks": 216,
          "midi": 46,
          "name": "A#2",
          "ticks": 131760,
          "time": 247.57030377499999,
          "velocity": 0.6299212598425197
        },
        {
          "duration": 0.3970588499999792,
          "durationTicks": 216,
          "midi": 53,
          "name": "F3",
          "ticks": 131760,
          "time": 247.57030377499999,
          "velocity": 0.6299212598425197
        },
        {
          "duration": 0.3970588499999792,
          "durationTicks": 216,
          "midi": 58,
          "name": "A#3",
          "ticks": 131760,
          "time": 247.57030377499999,
          "velocity": 0.6299212598425197
        },
        {
          "duration": 0.3970588500000076,
          "durationTicks": 216,
          "midi": 46,
          "name": "A#2",
          "ticks": 132000,
          "time": 248.01148027499997,
          "velocity": 0.6299212598425197
        },
        {
          "duration": 0.3970588500000076,
          "durationTicks": 216,
          "midi": 53,
          "name": "F3",
          "ticks": 132000,
          "time": 248.01148027499997,
          "velocity": 0.6299212598425197
        },
        {
          "duration": 0.3970588500000076,
          "durationTicks": 216,
          "midi": 58,
          "name": "A#3",
          "ticks": 132000,
          "time": 248.01148027499997,
          "velocity": 0.6299212598425197
        },
        {
          "duration": 0.3970588499999792,
          "durationTicks": 216,
          "midi": 46,
          "name": "A#2",
          "ticks": 132240,
          "time": 248.45265677499998,
          "velocity": 0.6299212598425197
        },
        {
          "duration": 0.3970588499999792,
          "durationTicks": 216,
          "midi": 53,
          "name": "F3",
          "ticks": 132240,
          "time": 248.45265677499998,
          "velocity": 0.6299212598425197
        },
        {
          "duration": 0.3970588499999792,
          "durationTicks": 216,
          "midi": 58,
          "name": "A#3",
          "ticks": 132240,
          "time": 248.45265677499998,
          "velocity": 0.6299212598425197
        },
        {
          "duration": 0.5955882750000114,
          "durationTicks": 324,
          "midi": 46,
          "name": "A#2",
          "ticks": 132480,
          "time": 248.89383327499996,
          "velocity": 0.6299212598425197
        },
        {
          "duration": 0.5955882750000114,
          "durationTicks": 324,
          "midi": 53,
          "name": "F3",
          "ticks": 132480,
          "time": 248.89383327499996,
          "velocity": 0.6299212598425197
        },
        {
          "duration": 0.5955882750000114,
          "durationTicks": 324,
          "midi": 58,
          "name": "A#3",
          "ticks": 132480,
          "time": 248.89383327499996,
          "velocity": 0.6299212598425197
        },
        {
          "duration": 0.5955882750000114,
          "durationTicks": 324,
          "midi": 46,
          "name": "A#2",
          "ticks": 132840,
          "time": 249.55559802499997,
          "velocity": 0.6299212598425197
        },
        {
          "duration": 0.5955882750000114,
          "durationTicks": 324,
          "midi": 53,
          "name": "F3",
          "ticks": 132840,
          "time": 249.55559802499997,
          "velocity": 0.6299212598425197
        },
        {
          "duration": 0.5955882750000114,
          "durationTicks": 324,
          "midi": 58,
          "name": "A#3",
          "ticks": 132840,
          "time": 249.55559802499997,
          "velocity": 0.6299212598425197
        },
        {
          "duration": 0.3970588500000076,
          "durationTicks": 216,
          "midi": 46,
          "name": "A#2",
          "ticks": 133200,
          "time": 250.21736277499997,
          "velocity": 0.6299212598425197
        },
        {
          "duration": 0.3970588500000076,
          "durationTicks": 216,
          "midi": 53,
          "name": "F3",
          "ticks": 133200,
          "time": 250.21736277499997,
          "velocity": 0.6299212598425197
        },
        {
          "duration": 0.3970588500000076,
          "durationTicks": 216,
          "midi": 58,
          "name": "A#3",
          "ticks": 133200,
          "time": 250.21736277499997,
          "velocity": 0.6299212598425197
        },
        {
          "duration": 1.588235400000002,
          "durationTicks": 864,
          "midi": 46,
          "name": "A#2",
          "ticks": 133440,
          "time": 250.65853927499998,
          "velocity": 0.6299212598425197
        },
        {
          "duration": 1.588235400000002,
          "durationTicks": 864,
          "midi": 53,
          "name": "F3",
          "ticks": 133440,
          "time": 250.65853927499998,
          "velocity": 0.6299212598425197
        },
        {
          "duration": 0.3970588499999792,
          "durationTicks": 216,
          "midi": 42,
          "name": "F#2",
          "ticks": 135360,
          "time": 254.187951275,
          "velocity": 0.6299212598425197
        },
        {
          "duration": 0.3970588499999792,
          "durationTicks": 216,
          "midi": 54,
          "name": "F#3",
          "ticks": 135360,
          "time": 254.187951275,
          "velocity": 0.6299212598425197
        },
        {
          "duration": 0.3970588499999792,
          "durationTicks": 216,
          "midi": 49,
          "name": "C#3",
          "ticks": 135600,
          "time": 254.62912777499997,
          "velocity": 0.6299212598425197
        },
        {
          "duration": 0.7941176999999584,
          "durationTicks": 432,
          "midi": 54,
          "name": "F#3",
          "ticks": 135840,
          "time": 255.07030427499998,
          "velocity": 0.6299212598425197
        },
        {
          "duration": 0.7941176999999584,
          "durationTicks": 432,
          "midi": 58,
          "name": "A#3",
          "ticks": 135840,
          "time": 255.07030427499998,
          "velocity": 0.6299212598425197
        },
        {
          "duration": 0.3970588500000076,
          "durationTicks": 216,
          "midi": 44,
          "name": "G#2",
          "ticks": 136320,
          "time": 255.95265727499998,
          "velocity": 0.6299212598425197
        },
        {
          "duration": 0.3970588500000076,
          "durationTicks": 216,
          "midi": 56,
          "name": "G#3",
          "ticks": 136320,
          "time": 255.95265727499998,
          "velocity": 0.6299212598425197
        },
        {
          "duration": 0.3970588500000076,
          "durationTicks": 216,
          "midi": 51,
          "name": "D#3",
          "ticks": 136560,
          "time": 256.39383377499996,
          "velocity": 0.6299212598425197
        },
        {
          "duration": 0.7941176999999584,
          "durationTicks": 432,
          "midi": 56,
          "name": "G#3",
          "ticks": 136800,
          "time": 256.835010275,
          "velocity": 0.6299212598425197
        },
        {
          "duration": 0.7941176999999584,
          "durationTicks": 432,
          "midi": 60,
          "name": "C4",
          "ticks": 136800,
          "time": 256.835010275,
          "velocity": 0.6299212598425197
        },
        {
          "duration": 0.3970588500000076,
          "durationTicks": 216,
          "midi": 46,
          "name": "A#2",
          "ticks": 137280,
          "time": 257.71736327499997,
          "velocity": 0.6299212598425197
        },
        {
          "duration": 0.3970588500000076,
          "durationTicks": 216,
          "midi": 58,
          "name": "A#3",
          "ticks": 137280,
          "time": 257.71736327499997,
          "velocity": 0.6299212598425197
        },
        {
          "duration": 0.3970588499999508,
          "durationTicks": 216,
          "midi": 53,
          "name": "F3",
          "ticks": 137520,
          "time": 258.158539775,
          "velocity": 0.6299212598425197
        },
        {
          "duration": 0.3970588500000076,
          "durationTicks": 216,
          "midi": 58,
          "name": "A#3",
          "ticks": 137760,
          "time": 258.599716275,
          "velocity": 0.6299212598425197
        },
        {
          "duration": 0.3970588500000076,
          "durationTicks": 216,
          "midi": 60,
          "name": "C4",
          "ticks": 138000,
          "time": 259.040892775,
          "velocity": 0.6299212598425197
        },
        {
          "duration": 0.3970588499999508,
          "durationTicks": 216,
          "midi": 60,
          "name": "C4",
          "ticks": 138240,
          "time": 259.482069275,
          "velocity": 0.6299212598425197
        },
        {
          "duration": 0.3970588499999508,
          "durationTicks": 216,
          "midi": 63,
          "name": "D#4",
          "ticks": 138240,
          "time": 259.482069275,
          "velocity": 0.6299212598425197
        },
        {
          "duration": 0.3970588500000076,
          "durationTicks": 216,
          "midi": 58,
          "name": "A#3",
          "ticks": 138480,
          "time": 259.923245775,
          "velocity": 0.6299212598425197
        },
        {
          "duration": 0.7941177000000152,
          "durationTicks": 432,
          "midi": 61,
          "name": "C#4",
          "ticks": 138720,
          "time": 260.364422275,
          "velocity": 0.6299212598425197
        },
        {
          "duration": 0.3970588499999508,
          "durationTicks": 216,
          "midi": 42,
          "name": "F#2",
          "ticks": 139200,
          "time": 261.246775275,
          "velocity": 0.6299212598425197
        },
        {
          "duration": 0.3970588499999508,
          "durationTicks": 216,
          "midi": 54,
          "name": "F#3",
          "ticks": 139200,
          "time": 261.246775275,
          "velocity": 0.6299212598425197
        },
        {
          "duration": 0.3970588500000076,
          "durationTicks": 216,
          "midi": 49,
          "name": "C#3",
          "ticks": 139440,
          "time": 261.687951775,
          "velocity": 0.6299212598425197
        },
        {
          "duration": 0.7941177000000152,
          "durationTicks": 432,
          "midi": 58,
          "name": "A#3",
          "ticks": 139680,
          "time": 262.12912827499997,
          "velocity": 0.6299212598425197
        },
        {
          "duration": 0.3970588500000076,
          "durationTicks": 216,
          "midi": 44,
          "name": "G#2",
          "ticks": 140160,
          "time": 263.011481275,
          "velocity": 0.6299212598425197
        },
        {
          "duration": 0.3970588500000076,
          "durationTicks": 216,
          "midi": 56,
          "name": "G#3",
          "ticks": 140160,
          "time": 263.011481275,
          "velocity": 0.6299212598425197
        },
        {
          "duration": 0.3970588500000076,
          "durationTicks": 216,
          "midi": 51,
          "name": "D#3",
          "ticks": 140400,
          "time": 263.452657775,
          "velocity": 0.6299212598425197
        },
        {
          "duration": 0.7941177000000152,
          "durationTicks": 432,
          "midi": 58,
          "name": "A#3",
          "ticks": 140640,
          "time": 263.89383427499996,
          "velocity": 0.6299212598425197
        },
        {
          "duration": 0.3970588500000076,
          "durationTicks": 216,
          "midi": 46,
          "name": "A#2",
          "ticks": 141120,
          "time": 264.776187275,
          "velocity": 0.6299212598425197
        },
        {
          "duration": 0.3970588500000076,
          "durationTicks": 216,
          "midi": 58,
          "name": "A#3",
          "ticks": 141120,
          "time": 264.776187275,
          "velocity": 0.6299212598425197
        },
        {
          "duration": 0.3970588500000076,
          "durationTicks": 216,
          "midi": 53,
          "name": "F3",
          "ticks": 141360,
          "time": 265.21736377499997,
          "velocity": 0.6299212598425197
        },
        {
          "duration": 0.3970588499999508,
          "durationTicks": 216,
          "midi": 61,
          "name": "C#4",
          "ticks": 141600,
          "time": 265.658540275,
          "velocity": 0.6299212598425197
        },
        {
          "duration": 0.3970588500000076,
          "durationTicks": 216,
          "midi": 60,
          "name": "C4",
          "ticks": 141840,
          "time": 266.099716775,
          "velocity": 0.6299212598425197
        },
        {
          "duration": 0.3970588500000076,
          "durationTicks": 216,
          "midi": 63,
          "name": "D#4",
          "ticks": 142080,
          "time": 266.540893275,
          "velocity": 0.6299212598425197
        },
        {
          "duration": 0.3970588499999508,
          "durationTicks": 216,
          "midi": 58,
          "name": "A#3",
          "ticks": 142320,
          "time": 266.982069775,
          "velocity": 0.6299212598425197
        },
        {
          "duration": 0.7941176999999584,
          "durationTicks": 432,
          "midi": 53,
          "name": "F3",
          "ticks": 142560,
          "time": 267.423246275,
          "velocity": 0.6299212598425197
        },
        {
          "duration": 0.3970588500000076,
          "durationTicks": 216,
          "midi": 42,
          "name": "F#2",
          "ticks": 143040,
          "time": 268.30559927499996,
          "velocity": 0.6299212598425197
        },
        {
          "duration": 0.3970588500000076,
          "durationTicks": 216,
          "midi": 54,
          "name": "F#3",
          "ticks": 143040,
          "time": 268.30559927499996,
          "velocity": 0.6299212598425197
        },
        {
          "duration": 0.3970588499999508,
          "durationTicks": 216,
          "midi": 49,
          "name": "C#3",
          "ticks": 143280,
          "time": 268.746775775,
          "velocity": 0.6299212598425197
        },
        {
          "duration": 0.7941176999999584,
          "durationTicks": 432,
          "midi": 54,
          "name": "F#3",
          "ticks": 143520,
          "time": 269.187952275,
          "velocity": 0.6299212598425197
        },
        {
          "duration": 0.3970588499999508,
          "durationTicks": 216,
          "midi": 44,
          "name": "G#2",
          "ticks": 144000,
          "time": 270.070305275,
          "velocity": 0.6299212598425197
        },
        {
          "duration": 0.3970588499999508,
          "durationTicks": 216,
          "midi": 56,
          "name": "G#3",
          "ticks": 144000,
          "time": 270.070305275,
          "velocity": 0.6299212598425197
        },
        {
          "duration": 0.3970588500000076,
          "durationTicks": 216,
          "midi": 51,
          "name": "D#3",
          "ticks": 144240,
          "time": 270.511481775,
          "velocity": 0.6299212598425197
        },
        {
          "duration": 0.7941177000000152,
          "durationTicks": 432,
          "midi": 56,
          "name": "G#3",
          "ticks": 144480,
          "time": 270.952658275,
          "velocity": 0.6299212598425197
        },
        {
          "duration": 0.3970588500000076,
          "durationTicks": 216,
          "midi": 46,
          "name": "A#2",
          "ticks": 144960,
          "time": 271.835011275,
          "velocity": 0.6299212598425197
        },
        {
          "duration": 0.3970588500000076,
          "durationTicks": 216,
          "midi": 58,
          "name": "A#3",
          "ticks": 144960,
          "time": 271.835011275,
          "velocity": 0.6299212598425197
        },
        {
          "duration": 0.3970588500000076,
          "durationTicks": 216,
          "midi": 53,
          "name": "F3",
          "ticks": 145200,
          "time": 272.276187775,
          "velocity": 0.6299212598425197
        },
        {
          "duration": 0.3970588499999508,
          "durationTicks": 216,
          "midi": 60,
          "name": "C4",
          "ticks": 145440,
          "time": 272.717364275,
          "velocity": 0.6299212598425197
        },
        {
          "duration": 0.3970588499999508,
          "durationTicks": 216,
          "midi": 63,
          "name": "D#4",
          "ticks": 145440,
          "time": 272.717364275,
          "velocity": 0.6299212598425197
        },
        {
          "duration": 0.3970588500000076,
          "durationTicks": 216,
          "midi": 60,
          "name": "C4",
          "ticks": 145680,
          "time": 273.158540775,
          "velocity": 0.6299212598425197
        },
        {
          "duration": 1.5882354000000305,
          "durationTicks": 864,
          "midi": 58,
          "name": "A#3",
          "ticks": 145920,
          "time": 273.599717275,
          "velocity": 0.6299212598425197
        },
        {
          "duration": 1.5882354000000305,
          "durationTicks": 864,
          "midi": 61,
          "name": "C#4",
          "ticks": 145920,
          "time": 273.599717275,
          "velocity": 0.6299212598425197
        },
        {
          "duration": 1.5882354000000305,
          "durationTicks": 864,
          "midi": 39,
          "name": "D#2",
          "ticks": 146880,
          "time": 275.364423275,
          "velocity": 0.6299212598425197
        },
        {
          "duration": 1.5882354000000305,
          "durationTicks": 864,
          "midi": 51,
          "name": "D#3",
          "ticks": 146880,
          "time": 275.364423275,
          "velocity": 0.6299212598425197
        },
        {
          "duration": 1.5882353999999737,
          "durationTicks": 864,
          "midi": 41,
          "name": "F2",
          "ticks": 147840,
          "time": 277.129129275,
          "velocity": 0.6299212598425197
        },
        {
          "duration": 1.5882353999999737,
          "durationTicks": 864,
          "midi": 53,
          "name": "F3",
          "ticks": 147840,
          "time": 277.129129275,
          "velocity": 0.6299212598425197
        },
        {
          "duration": 0.3970588499999508,
          "durationTicks": 216,
          "midi": 46,
          "name": "A#2",
          "ticks": 148800,
          "time": 278.893835275,
          "velocity": 0.6299212598425197
        },
        {
          "duration": 0.3970588500000076,
          "durationTicks": 216,
          "midi": 53,
          "name": "F3",
          "ticks": 149040,
          "time": 279.335011775,
          "velocity": 0.6299212598425197
        },
        {
          "duration": 0.3970588500000076,
          "durationTicks": 216,
          "midi": 61,
          "name": "C#4",
          "ticks": 149280,
          "time": 279.776188275,
          "velocity": 0.6299212598425197
        },
        {
          "duration": 0.3970588499999508,
          "durationTicks": 216,
          "midi": 53,
          "name": "F3",
          "ticks": 149520,
          "time": 280.217364775,
          "velocity": 0.6299212598425197
        },
        {
          "duration": 1.5882354000000305,
          "durationTicks": 864,
          "midi": 60,
          "name": "C4",
          "ticks": 149760,
          "time": 280.658541275,
          "velocity": 0.6299212598425197
        },
        {
          "duration": 0.3970588500000076,
          "durationTicks": 216,
          "midi": 54,
          "name": "F#3",
          "ticks": 150720,
          "time": 282.423247275,
          "velocity": 0.6299212598425197
        },
        {
          "duration": 0.3970588500000076,
          "durationTicks": 216,
          "midi": 61,
          "name": "C#4",
          "ticks": 150960,
          "time": 282.864423775,
          "velocity": 0.6299212598425197
        },
        {
          "duration": 0.7941176999999584,
          "durationTicks": 432,
          "midi": 65,
          "name": "F4",
          "ticks": 151200,
          "time": 283.305600275,
          "velocity": 0.6299212598425197
        },
        {
          "duration": 0.3970588500000076,
          "durationTicks": 216,
          "midi": 56,
          "name": "G#3",
          "ticks": 151680,
          "time": 284.187953275,
          "velocity": 0.6299212598425197
        },
        {
          "duration": 0.3970588499999508,
          "durationTicks": 216,
          "midi": 63,
          "name": "D#4",
          "ticks": 151920,
          "time": 284.629129775,
          "velocity": 0.6299212598425197
        },
        {
          "duration": 0.7941176999999584,
          "durationTicks": 432,
          "midi": 65,
          "name": "F4",
          "ticks": 152160,
          "time": 285.070306275,
          "velocity": 0.6299212598425197
        },
        {
          "duration": 0.3970588500000076,
          "durationTicks": 216,
          "midi": 58,
          "name": "A#3",
          "ticks": 152640,
          "time": 285.952659275,
          "velocity": 0.6299212598425197
        },
        {
          "duration": 0.3970588499999508,
          "durationTicks": 216,
          "midi": 61,
          "name": "C#4",
          "ticks": 152880,
          "time": 286.393835775,
          "velocity": 0.6299212598425197
        },
        {
          "duration": 0.7941176999999584,
          "durationTicks": 432,
          "midi": 65,
          "name": "F4",
          "ticks": 153120,
          "time": 286.835012275,
          "velocity": 0.6299212598425197
        },
        {
          "duration": 1.5882353999999737,
          "durationTicks": 864,
          "midi": 58,
          "name": "A#3",
          "ticks": 153600,
          "time": 287.717365275,
          "velocity": 0.6299212598425197
        },
        {
          "duration": 0.3970588500000076,
          "durationTicks": 216,
          "midi": 42,
          "name": "F#2",
          "ticks": 154560,
          "time": 289.482071275,
          "velocity": 0.6299212598425197
        },
        {
          "duration": 0.3970588500000076,
          "durationTicks": 216,
          "midi": 49,
          "name": "C#3",
          "ticks": 154800,
          "time": 289.923247775,
          "velocity": 0.6299212598425197
        },
        {
          "duration": 0.7941177000000152,
          "durationTicks": 432,
          "midi": 61,
          "name": "C#4",
          "ticks": 155040,
          "time": 290.364424275,
          "velocity": 0.6299212598425197
        },
        {
          "duration": 0.3970588500000076,
          "durationTicks": 216,
          "midi": 44,
          "name": "G#2",
          "ticks": 155520,
          "time": 291.246777275,
          "velocity": 0.6299212598425197
        },
        {
          "duration": 0.3970588500000076,
          "durationTicks": 216,
          "midi": 51,
          "name": "D#3",
          "ticks": 155760,
          "time": 291.687953775,
          "velocity": 0.6299212598425197
        },
        {
          "duration": 0.7941176999999584,
          "durationTicks": 432,
          "midi": 60,
          "name": "C4",
          "ticks": 156000,
          "time": 292.129130275,
          "velocity": 0.6299212598425197
        },
        {
          "duration": 0.3970588500000076,
          "durationTicks": 216,
          "midi": 46,
          "name": "A#2",
          "ticks": 156480,
          "time": 293.011483275,
          "velocity": 0.6299212598425197
        },
        {
          "duration": 0.3970588499999508,
          "durationTicks": 216,
          "midi": 53,
          "name": "F3",
          "ticks": 156720,
          "time": 293.45265977500003,
          "velocity": 0.6299212598425197
        },
        {
          "duration": 0.3970588499999508,
          "durationTicks": 216,
          "midi": 60,
          "name": "C4",
          "ticks": 156960,
          "time": 293.893836275,
          "velocity": 0.6299212598425197
        },
        {
          "duration": 0.3970588500000076,
          "durationTicks": 216,
          "midi": 61,
          "name": "C#4",
          "ticks": 157200,
          "time": 294.335012775,
          "velocity": 0.6299212598425197
        },
        {
          "duration": 1.5882354000000305,
          "durationTicks": 864,
          "midi": 65,
          "name": "F4",
          "ticks": 157440,
          "time": 294.776189275,
          "velocity": 0.6299212598425197
        },
        {
          "duration": 0.3970588499999508,
          "durationTicks": 216,
          "midi": 42,
          "name": "F#2",
          "ticks": 158400,
          "time": 296.540895275,
          "velocity": 0.6299212598425197
        },
        {
          "duration": 0.3970588500000076,
          "durationTicks": 216,
          "midi": 49,
          "name": "C#3",
          "ticks": 158640,
          "time": 296.982071775,
          "velocity": 0.6299212598425197
        },
        {
          "duration": 0.7941177000000152,
          "durationTicks": 432,
          "midi": 56,
          "name": "G#3",
          "ticks": 158880,
          "time": 297.423248275,
          "velocity": 0.6299212598425197
        },
        {
          "duration": 0.3970588499999508,
          "durationTicks": 216,
          "midi": 44,
          "name": "G#2",
          "ticks": 159360,
          "time": 298.305601275,
          "velocity": 0.6299212598425197
        },
        {
          "duration": 0.3970588500000076,
          "durationTicks": 216,
          "midi": 51,
          "name": "D#3",
          "ticks": 159600,
          "time": 298.746777775,
          "velocity": 0.6299212598425197
        },
        {
          "duration": 0.7941177000000152,
          "durationTicks": 432,
          "midi": 58,
          "name": "A#3",
          "ticks": 159840,
          "time": 299.187954275,
          "velocity": 0.6299212598425197
        },
        {
          "duration": 0.3970588500000076,
          "durationTicks": 216,
          "midi": 46,
          "name": "A#2",
          "ticks": 160320,
          "time": 300.070307275,
          "velocity": 0.6299212598425197
        },
        {
          "duration": 0.3970588500000076,
          "durationTicks": 216,
          "midi": 53,
          "name": "F3",
          "ticks": 160560,
          "time": 300.511483775,
          "velocity": 0.6299212598425197
        },
        {
          "duration": 0.3970588499999508,
          "durationTicks": 216,
          "midi": 60,
          "name": "C4",
          "ticks": 160800,
          "time": 300.952660275,
          "velocity": 0.6299212598425197
        },
        {
          "duration": 0.3970588500000076,
          "durationTicks": 216,
          "midi": 61,
          "name": "C#4",
          "ticks": 161040,
          "time": 301.393836775,
          "velocity": 0.6299212598425197
        },
        {
          "duration": 1.5882354000000305,
          "durationTicks": 864,
          "midi": 65,
          "name": "F4",
          "ticks": 161280,
          "time": 301.835013275,
          "velocity": 0.6299212598425197
        },
        {
          "duration": 1.5882354000000305,
          "durationTicks": 864,
          "midi": 51,
          "name": "D#3",
          "ticks": 162090,
          "time": 303.3239839625,
          "velocity": 0.6299212598425197
        },
        {
          "duration": 1.5882354000000305,
          "durationTicks": 864,
          "midi": 54,
          "name": "F#3",
          "ticks": 162127,
          "time": 303.39199867291666,
          "velocity": 0.6299212598425197
        },
        {
          "duration": 1.5882353999999737,
          "durationTicks": 864,
          "midi": 58,
          "name": "A#3",
          "ticks": 162165,
          "time": 303.46185161875,
          "velocity": 0.6299212598425197
        },
        {
          "duration": 1.5882354000000305,
          "durationTicks": 864,
          "midi": 61,
          "name": "C#4",
          "ticks": 162202,
          "time": 303.5298663291667,
          "velocity": 0.6299212598425197
        },
        {
          "duration": 1.5882354000000305,
          "durationTicks": 864,
          "midi": 53,
          "name": "F3",
          "ticks": 163050,
          "time": 305.0886899625,
          "velocity": 0.6299212598425197
        },
        {
          "duration": 1.5882353999999737,
          "durationTicks": 864,
          "midi": 56,
          "name": "G#3",
          "ticks": 163100,
          "time": 305.18060173333333,
          "velocity": 0.6299212598425197
        },
        {
          "duration": 1.5882354000000305,
          "durationTicks": 864,
          "midi": 60,
          "name": "C4",
          "ticks": 163150,
          "time": 305.2725135041666,
          "velocity": 0.6299212598425197
        },
        {
          "duration": 0.33749999999997726,
          "durationTicks": 216,
          "midi": 46,
          "name": "A#2",
          "ticks": 164160,
          "time": 307.129131275,
          "velocity": 0.6299212598425197
        },
        {
          "duration": 0.33749999999997726,
          "durationTicks": 216,
          "midi": 53,
          "name": "F3",
          "ticks": 164400,
          "time": 307.504131275,
          "velocity": 0.6299212598425197
        },
        {
          "duration": 0.33749999999997726,
          "durationTicks": 216,
          "midi": 58,
          "name": "A#3",
          "ticks": 164640,
          "time": 307.879131275,
          "velocity": 0.6299212598425197
        },
        {
          "duration": 0.33749999999997726,
          "durationTicks": 216,
          "midi": 61,
          "name": "C#4",
          "ticks": 164880,
          "time": 308.254131275,
          "velocity": 0.6299212598425197
        },
        {
          "duration": 0.33749999999997726,
          "durationTicks": 216,
          "midi": 60,
          "name": "C4",
          "ticks": 165120,
          "time": 308.629131275,
          "velocity": 0.6299212598425197
        },
        {
          "duration": 0.33749999999997726,
          "durationTicks": 216,
          "midi": 63,
          "name": "D#4",
          "ticks": 165360,
          "time": 309.004131275,
          "velocity": 0.6299212598425197
        },
        {
          "duration": 0.33749999999997726,
          "durationTicks": 216,
          "midi": 65,
          "name": "F4",
          "ticks": 165600,
          "time": 309.379131275,
          "velocity": 0.6299212598425197
        },
        {
          "duration": 0.33749999999997726,
          "durationTicks": 216,
          "midi": 70,
          "name": "A#4",
          "ticks": 165840,
          "time": 309.754131275,
          "velocity": 0.6299212598425197
        }
      ],
      "endOfTrackTicks": 166080
    }
  ]
}